<?xml version="1.0" encoding="utf-8"?>
<!-- Generator: Adobe Illustrator 16.0.0, SVG Export Plug-In . SVG Version: 6.00 Build 0)  -->
<!DOCTYPE svg PUBLIC "-//W3C//DTD SVG 1.1//EN" "http://www.w3.org/Graphics/SVG/1.1/DTD/svg11.dtd">
<svg version="1.1" id="Layer_1" xmlns="http://www.w3.org/2000/svg" xmlns:xlink="http://www.w3.org/1999/xlink" x="0px" y="0px"
	 width="160px" height="30px" viewBox="0 0 160 30" enable-background="new 0 0 160 30" xml:space="preserve">
<path fill-rule="evenodd" clip-rule="evenodd" fill="#FFFFFF" d="M95.813,11.003c1.23-1.382,2.427-2.803,3.705-4.138
	c1.627-1.697,3.379-3.253,5.519-4.24c0.549-0.253,1.144-0.456,1.736-0.534c1.669-0.216,2.723,0.685,2.577,2.415
	c-0.114,1.359-0.588,2.686-0.91,4.024c-0.056,0.225-0.159,0.437-0.133,0.767c0.229-0.24,0.465-0.476,0.692-0.719
	c1.895-2.049,3.86-4.014,6.22-5.496c0.533-0.336,1.118-0.643,1.72-0.796c1.915-0.481,3.238,0.711,2.833,2.718
	c-0.295,1.459-0.819,2.926-1.521,4.229c-1.611,2.992-3.402,5.881-5.096,8.828c-0.645,1.123-1.234,2.279-1.827,3.436
	c-0.162,0.318-0.285,0.676-0.345,1.031c-0.177,1.07,0.379,1.588,1.285,1.078c0.966-0.543,1.867-1.25,2.691-2.006
	c0.812-0.742,1.48-1.646,2.234-2.457c0.191-0.207,0.463-0.338,0.831-0.594c-0.025,0.34-0.007,0.432-0.041,0.488
	c-1.336,2.18-2.983,4.027-5.269,5.174c-0.871,0.438-1.689,0.406-2.459-0.307c-0.718-0.668-1.001-1.48-0.725-2.4
	c0.313-1.041,0.676-2.086,1.162-3.053c2.285-4.548,4.629-9.065,6.93-13.607c0.233-0.467,0.772-1,0.21-1.555
	c-0.575-0.566-1.207-0.156-1.661,0.199c-1.671,1.308-3.354,2.617-4.906,4.07c-1.439,1.353-2.729,2.878-4.056,4.354
	c-0.305,0.337-0.505,0.778-0.729,1.185c-1.709,3.087-3.392,6.189-5.131,9.255c-0.78,1.377-2.189,1.691-3.736,0.887
	c0.136-0.262,0.259-0.531,0.412-0.781c2.628-4.318,5.31-8.6,7.862-12.964c0.787-1.348,1.267-2.896,1.796-4.391
	c0.232-0.663,0.443-1.492-0.174-2.063c-0.679-0.626-1.423-0.175-2.043,0.197c-2.516,1.509-4.715,3.42-6.672,5.647
	c-3.639,4.145-6.839,8.617-9.496,13.498c-0.457,0.842-2.103,1.488-2.978,1.223c-0.49-0.148-0.31-0.432-0.14-0.719
	c1.052-1.787,2.104-3.576,3.153-5.365c2.454-4.183,4.979-8.325,6.868-12.83c0.181-0.432,0.332-0.877,0.463-1.328
	c0.328-1.123-0.004-1.807-1.08-2.201c-1.428-0.525-2.882-0.314-4.274,0.063C84.894,2.971,80.076,6.93,76.67,12.762
	c-0.539,0.922-0.868,1.943-0.759,3.065c0.123,1.29,0.835,2.01,2.089,1.997c1.907-0.018,3.594-0.795,5.234-1.699
	c3.47-1.911,5.932-4.864,7.895-8.289c0.718-1.252,1.227-2.63,1.833-3.947c0.091-0.195,0.198-0.381,0.299-0.569
	c0.098,0.025,0.194,0.051,0.292,0.077c-0.073,0.507-0.067,1.044-0.235,1.516c-1.117,3.137-2.828,5.893-5.069,8.303
	c-2.223,2.389-4.825,4.136-7.95,4.98c-0.656,0.176-1.339,0.303-2.018,0.34c-2.193,0.121-3.447-1.115-3.455-3.387
	c-0.003-1.483,0.503-2.839,1.24-4.067c3.368-5.615,8.253-9.045,14.479-10.392c1.465-0.319,3.028-0.396,4.522-0.278
	c2.589,0.205,3.762,2.063,2.981,4.635c-0.535,1.764-1.292,3.454-1.955,5.174c-0.101,0.26-0.241,0.5-0.363,0.75
	C95.757,10.98,95.785,10.992,95.813,11.003z"/>
<path fill-rule="evenodd" clip-rule="evenodd" fill="#FFFFFF" d="M25.242,9.487c0.787-0.938,1.397-1.734,2.076-2.463
	c1.917-2.054,4.02-3.859,6.761-4.604c0.739-0.199,1.563-0.203,2.33-0.119c0.959,0.105,1.532,0.98,1.459,1.971
	c-0.08,1.091-0.843,2.071-1.732,2.072c-0.38,0-1.003-0.201-1.09-0.46c-0.179-0.54-0.265-1.28-0.034-1.757
	c0.261-0.539,0.909-0.879,1.486-1.393c-0.561,0.051-1.145,0.018-1.68,0.168c-1.693,0.475-3.007,1.607-4.214,2.849
	c-3.516,3.616-6.167,7.815-7.76,12.684c-0.272,0.832-0.4,1.73-0.482,2.611c-0.123,1.311,0.661,2.045,1.95,1.943
	c1.74-0.137,3.197-1,4.546-2.02c1.075-0.811,2.011-1.818,3.021-2.725c0.148-0.133,0.364-0.186,0.548-0.277
	c-0.013,0.227,0.063,0.547-0.054,0.664c-1.03,1.029-2.016,2.131-3.167,3c-1.476,1.113-3.117,1.963-5.018,2.039
	c-1.839,0.072-3.092-1.047-3.106-2.951c-0.009-1.238,0.217-2.479,0.343-3.771c-0.156,0.17-0.331,0.357-0.502,0.551
	c-2.358,2.637-5.08,4.732-8.448,5.773c-0.904,0.279-1.895,0.348-2.846,0.348c-0.833-0.002-1.486-0.494-1.785-1.352
	c-0.285-0.818-0.129-1.551,0.472-2.162c0.516-0.523,1.373-0.654,1.977-0.336c0.541,0.281,0.651,0.789,0.585,1.33
	c-0.1,0.809-0.66,1.197-1.358,1.406c-0.21,0.063-0.441,0.053-0.662,0.076c-0.02,0.076-0.04,0.154-0.06,0.232
	c0.394,0.105,0.788,0.301,1.182,0.301c1.409,0.006,2.695-0.512,3.869-1.252c4.521-2.854,7.74-6.847,9.582-11.984
	c0.277-0.773,0.4-1.622,0.488-2.447c0.269-2.509-1.075-4.227-3.48-4.662c-2.734-0.498-5.301,0.074-7.763,1.231
	c-3.72,1.751-6.934,4.214-9.501,7.524c-0.924,1.193-1.774,2.443-1.827,4.052c-0.056,1.731,1,2.709,2.685,2.586
	c1.77-0.127,3.35-0.82,4.831-1.748c3.032-1.899,5.743-4.209,7.989-7.058c0.555-0.703,0.957-1.535,1.461-2.283
	c0.146-0.219,0.404-0.355,0.611-0.529c0.015,0.271,0.139,0.606,0.028,0.805c-0.568,1.015-1.098,2.078-1.821,2.971
	c-2.696,3.324-5.813,6.125-9.731,7.843c-1.205,0.529-2.469,0.799-3.782,0.674c-2.1-0.201-3.302-1.629-2.991-3.783
	c0.164-1.135,0.499-2.345,1.094-3.295c3.763-6,9.08-9.428,16.052-9.86c1.268-0.079,2.591,0.126,3.836,0.429
	c3.015,0.734,4.268,2.94,3.773,6.379C25.356,8.888,25.318,9.065,25.242,9.487z"/>
<path fill-rule="evenodd" clip-rule="evenodd" fill="#FFFFFF" d="M49.075,17.996c0.732-0.686,1.529-1.488,2.387-2.213
	c0.481-0.406,1.045-0.724,1.608-1.005c0.206-0.104,0.516,0.015,0.778,0.031c-0.054,0.238-0.074,0.491-0.168,0.711
	c-0.904,2.128-1.83,4.248-2.719,6.384c-0.102,0.246-0.019,0.576-0.021,0.867c0.31-0.023,0.695,0.064,0.913-0.096
	c0.424-0.307,0.748-0.758,1.125-1.137c0.197-0.199,0.418-0.369,0.684-0.484c-0.229,1.486-1.961,2.771-3.196,2.512
	c-0.816-0.168-1.215-0.572-1.068-1.416c0.172-0.99,0.513-1.957,0.845-2.908c0.253-0.727,0.608-1.416,0.805-2.223
	c-0.325,0.332-0.696,0.631-0.967,1.004c-1.088,1.508-2.146,3.039-3.214,4.561c-0.118,0.17-0.189,0.438-0.345,0.502
	c-0.475,0.201-0.979,0.326-1.473,0.479c0.065-0.398,0.055-0.834,0.21-1.193c0.66-1.527,1.37-3.029,2.058-4.545
	c0.103-0.225,0.185-0.461,0.276-0.689c-0.075-0.064-0.15-0.125-0.226-0.188c-0.353,0.43-0.717,0.852-1.055,1.293
	c-1.113,1.459-2.198,2.941-3.334,4.381c-0.272,0.346-0.678,0.6-1.063,0.822c-0.158,0.09-0.49,0.063-0.62-0.057
	c-0.098-0.09-0.062-0.436,0.019-0.619c0.708-1.619,1.445-3.225,2.157-4.84c0.199-0.451,0.375-0.918,0.498-1.396
	c0.185-0.719-0.03-0.901-0.739-0.754c-0.229,0.048-0.484-0.029-0.728-0.052c0.168-0.2,0.299-0.493,0.511-0.584
	c0.485-0.205,1.002-0.388,1.52-0.44c1-0.103,1.508,0.517,1.228,1.508c-0.226,0.799-0.568,1.563-0.864,2.34
	c-0.098,0.258-0.216,0.506-0.358,0.834c1.123-1.203,2.123-2.391,3.248-3.432c0.573-0.531,1.363-0.821,2.072-1.183
	c0.15-0.076,0.38,0.019,0.718,0.045C50.018,15.994,49.509,17.074,49.075,17.996z"/>
<path fill-rule="evenodd" clip-rule="evenodd" fill="#FFFFFF" d="M33.909,22.969c0.435-0.26,0.928-0.455,1.294-0.795
	c1.488-1.379,2.679-2.986,3.378-4.949c0.218-0.613,0.453-1.223,0.729-1.809c0.332-0.705,0.708-0.812,1.574-0.464
	c-0.758,2.138-1.518,4.281-2.277,6.421c0.046,0.041,0.092,0.078,0.139,0.117c0.19-0.176,0.363-0.383,0.579-0.514
	c0.116-0.07,0.306-0.014,0.462-0.014c-0.014,0.158-0.014,0.318-0.049,0.469c-0.015,0.064-0.096,0.123-0.161,0.16
	c-1.196,0.688-1.729,1.859-2.284,3.082c-0.825,1.816-2.007,3.395-3.62,4.564c-0.424,0.307-0.932,0.535-1.435,0.666
	c-0.534,0.139-1.237,0.217-1.476-0.422c-0.175-0.469-0.208-1.25,0.056-1.596c0.789-1.031,1.726-1.951,2.666-2.846
	c0.458-0.438,1.026-0.781,1.594-1.059c0.989-0.48,1.437-1.322,1.702-2.479c-0.264,0.232-0.456,0.402-0.646,0.572
	c-0.192,0.17-0.37,0.361-0.576,0.51c-0.413,0.299-0.83,0.596-1.266,0.855c-0.495,0.297-1.069,0.264-1.389-0.176
	c-0.286-0.391-0.523-1.008-0.439-1.457c0.14-0.75,0.521-1.463,0.858-2.162c0.518-1.076,1.104-2.119,1.616-3.197
	c0.116-0.242,0.044-0.582,0.06-0.875c-0.264,0.02-0.527,0.049-0.791,0.054c-0.267,0.005-0.534-0.017-0.8-0.026
	c0.173-0.222,0.318-0.479,0.53-0.651c0.169-0.137,0.415-0.189,0.635-0.236c0.657-0.143,1.346-0.243,1.848,0.334
	c0.509,0.587,0.243,1.253-0.036,1.839c-0.755,1.596-1.556,3.17-2.322,4.762c-0.168,0.348-0.265,0.732-0.395,1.1
	C33.748,22.822,33.828,22.896,33.909,22.969z M35.842,24.643c-0.085-0.072-0.169-0.146-0.254-0.217
	c-1.408,0.738-2.545,1.795-3.373,3.197c-0.268,0.453-0.749,1.037-0.247,1.457c0.544,0.453,1.079-0.137,1.382-0.572
	C34.226,27.254,35.018,25.936,35.842,24.643z"/>
<path fill-rule="evenodd" clip-rule="evenodd" fill="#FFFFFF" d="M62.734,15.732c-0.228,0.146-0.444,0.319-0.687,0.426
	c-0.11,0.049-0.326,0.014-0.4-0.07c-0.068-0.078-0.058-0.295-0.003-0.413c0.289-0.63,1.549-1.264,2.153-0.989
	c0.307,0.14,0.627,0.548,0.692,0.884c0.098,0.52-0.018,1.083-0.045,1.651c0.406-0.484,0.793-1.01,1.242-1.469
	c0.356-0.362,0.751-0.724,1.193-0.941c1.167-0.57,2.129,0.114,2.061,1.438c-0.069,1.365-0.565,2.598-1.279,3.725
	c-0.51,0.807-1.042,1.617-1.674,2.32c-1.082,1.205-2.365,1.803-3.997,0.871c-0.295,0.617-0.572,1.191-0.847,1.77
	c-0.645,1.361-1.281,2.727-1.937,4.082c-0.122,0.248-0.279,0.555-0.498,0.658c-0.316,0.152-0.704,0.141-1.062,0.199
	c0.02-0.313-0.042-0.66,0.07-0.93c1.653-3.984,3.333-7.959,4.992-11.941c0.147-0.355,0.189-0.754,0.28-1.134
	C62.906,15.824,62.819,15.778,62.734,15.732z M62.244,22.537c0.803,0.584,1.435,0.543,2.139-0.244
	c1.528-1.705,2.518-3.713,2.914-6.008c0.042-0.244-0.099-0.522-0.154-0.783c-0.214,0.118-0.481,0.187-0.629,0.364
	C64.809,17.877,63.304,20.027,62.244,22.537z"/>
<path fill-rule="evenodd" clip-rule="evenodd" fill="#FFFFFF" d="M154.407,20.75c-0.552,0.604-1.071,1.242-1.665,1.797
	c-0.403,0.379-0.877,0.73-1.379,0.934c-0.961,0.385-1.759-0.299-1.616-1.357c0.065-0.482,0.226-0.967,0.413-1.418
	c0.688-1.648,1.407-3.281,2.103-4.896c-0.068-0.087-0.094-0.131-0.13-0.164c-0.221-0.198-0.444-0.395-0.666-0.592
	c0.284-0.109,0.559-0.273,0.851-0.317c0.499-0.074,1.008-0.089,1.512-0.097c0.234-0.004,0.469,0.068,0.705,0.105
	c-0.052,0.244-0.063,0.51-0.162,0.731c-0.843,1.842-1.712,3.672-2.551,5.518c-0.205,0.449-0.323,0.941-0.482,1.412
	c0.078,0.063,0.157,0.125,0.236,0.186c0.266-0.193,0.57-0.346,0.788-0.584c1.758-1.93,3.393-3.953,4.395-6.432
	c0.258-0.639,0.631-1.034,1.367-0.987c0.698,0.045,0.773,0.133,0.472,0.794c-0.848,1.868-1.699,3.731-2.537,5.602
	c-0.137,0.307-0.265,0.637-0.304,0.965c-0.034,0.283,0.062,0.582,0.101,0.875c0.245-0.1,0.548-0.135,0.725-0.309
	c0.452-0.451,0.843-0.969,1.271-1.447c0.172-0.191,0.38-0.346,0.724-0.652c-0.177,1.465-2.044,3.221-3.133,3.197
	c-0.656-0.014-1.222-0.625-1.223-1.344c0-0.26,0.038-0.523,0.087-0.779c0.041-0.225,0.12-0.443,0.185-0.666
	C154.464,20.801,154.436,20.773,154.407,20.75z"/>
<path fill-rule="evenodd" clip-rule="evenodd" fill="#FFFFFF" d="M121.039,22.584c0.248-0.186,0.537-0.338,0.744-0.564
	c1.78-1.945,3.417-3.998,4.434-6.5c0.234-0.576,0.564-0.95,1.244-0.928c0.779,0.025,0.868,0.133,0.54,0.851
	c-0.851,1.864-1.719,3.723-2.532,5.606c-0.223,0.521-0.276,1.123-0.447,1.859c1.54-0.24,1.85-1.787,2.989-2.428
	c-0.199,1.381-1.972,3.084-3.063,3.133c-0.74,0.033-1.374-0.676-1.296-1.5c0.045-0.455,0.165-0.904,0.271-1.465
	c-0.603,0.666-1.107,1.285-1.679,1.828c-0.402,0.385-0.86,0.752-1.358,0.971c-1.062,0.463-1.974-0.303-1.678-1.449
	c0.278-1.076,0.732-2.109,1.155-3.143c0.421-1.027,0.901-2.029,1.341-3.011c-0.07-0.101-0.092-0.149-0.128-0.182
	c-0.228-0.198-0.458-0.393-0.688-0.588c0.301-0.115,0.596-0.281,0.908-0.334c0.472-0.076,0.957-0.089,1.436-0.1
	c0.239-0.005,0.48,0.054,0.722,0.085c-0.047,0.244-0.046,0.511-0.146,0.729c-0.831,1.82-1.688,3.626-2.516,5.447
	c-0.217,0.477-0.354,0.99-0.527,1.486C120.856,22.453,120.948,22.52,121.039,22.584z"/>
<path fill-rule="evenodd" clip-rule="evenodd" fill="#FFFFFF" d="M148.373,20.563c-0.13,1.342-1.635,2.834-2.738,3.027
	c-0.731,0.127-1.441-0.439-1.448-1.223c-0.005-0.504,0.108-1.01,0.179-1.623c-0.56,0.613-1.041,1.168-1.555,1.691
	c-0.285,0.291-0.607,0.553-0.938,0.789c-0.563,0.404-1.187,0.537-1.768,0.094c-0.586-0.445-0.494-1.104-0.317-1.725
	c0.12-0.424,0.285-0.84,0.459-1.244c0.527-1.217,1.067-2.426,1.602-3.641c0.133-0.301,0.255-0.607,0.4-0.956
	c-0.209-0.09-0.366-0.116-0.47-0.207c-0.137-0.123-0.333-0.303-0.32-0.439c0.013-0.138,0.243-0.345,0.393-0.36
	c0.755-0.08,1.515-0.133,2.271-0.144c0.571-0.008,0.435,0.39,0.286,0.708c-0.462,0.99-0.957,1.962-1.411,2.953
	c-0.518,1.135-1.011,2.281-1.503,3.428c-0.095,0.223-0.131,0.473-0.196,0.709c0.063,0.061,0.125,0.121,0.186,0.182
	c0.265-0.178,0.574-0.313,0.786-0.543c1.772-1.916,3.408-3.939,4.412-6.42c0.266-0.656,0.642-1.085,1.422-1.032
	c0.568,0.039,0.749,0.176,0.465,0.754c-0.676,1.373-1.349,2.75-1.971,4.152c-0.348,0.779-0.619,1.6-0.866,2.422
	c-0.081,0.262,0.023,0.584,0.045,0.879c0.283-0.117,0.629-0.162,0.834-0.361c0.439-0.426,0.799-0.939,1.208-1.4
	C147.978,20.852,148.186,20.719,148.373,20.563z"/>
<path fill-rule="evenodd" clip-rule="evenodd" fill="#FFFFFF" d="M137.801,15.221c-0.581,0.865-1.275,1.671-1.714,2.607
	c-0.586,1.258-1.015,2.602-1.419,3.939c-0.098,0.322,0.054,0.924,0.295,1.104c0.243,0.18,0.805,0.109,1.114-0.064
	c0.568-0.32,1.052-0.801,1.578-1.203c0.193-0.145,0.408-0.26,0.686-0.285c-0.4,0.906-1.144,1.422-1.924,1.863
	c-1.749,0.986-3.021,0.326-3.284-1.746c-0.48,0.424-0.89,0.893-1.392,1.199c-0.619,0.381-1.293,0.705-1.984,0.91
	c-0.591,0.176-1.172-0.014-1.44-0.691c-0.24-0.607,0.025-1.521,0.606-1.766c0.311-0.129,0.814-0.1,1.091,0.086
	c0.404,0.27,0.271,0.732-0.013,1.098c-0.153,0.199-0.316,0.389-0.544,0.664c0.754,0.168,1.237-0.197,1.554-0.652
	c0.897-1.289,1.749-2.615,2.555-3.965c0.328-0.549,0.538-1.186,0.702-1.813c0.084-0.314,0.063-0.852-0.126-1.002
	c-0.235-0.187-0.747-0.208-1.043-0.073c-0.755,0.349-1.449,0.835-2.184,1.242c-0.189,0.105-0.433,0.107-0.65,0.16
	c0.083-0.219,0.105-0.541,0.259-0.635c0.819-0.503,1.631-1.076,2.521-1.384c1.506-0.521,2.229-0.061,2.709,1.523
	c0.369-0.332,0.698-0.688,1.083-0.957c0.394-0.273,0.826-0.51,1.271-0.677c0.507-0.188,1.061-0.158,1.329,0.403
	c0.263,0.555,0.065,1.119-0.41,1.453c-0.241,0.172-0.729,0.268-0.927,0.127c-0.189-0.135-0.169-0.615-0.202-0.946
	c-0.012-0.104,0.096-0.221,0.148-0.332C137.965,15.346,137.883,15.284,137.801,15.221z"/>
<path fill-rule="evenodd" clip-rule="evenodd" fill="#FFFFFF" d="M57.609,15.709c-0.245-0.083-0.419-0.093-0.514-0.188
	c-0.126-0.125-0.258-0.316-0.258-0.48c0-0.104,0.227-0.286,0.363-0.299c0.755-0.07,1.514-0.147,2.269-0.127
	c0.676,0.02,0.429,0.491,0.269,0.838c-0.847,1.839-1.709,3.669-2.557,5.507c-0.163,0.354-0.311,0.719-0.412,1.094
	c-0.055,0.203,0.004,0.439,0.012,0.66c0.234-0.029,0.523,0.021,0.692-0.102c0.515-0.377,0.976-0.828,1.473-1.229
	c0.14-0.113,0.331-0.16,0.498-0.234c-0.038,0.201-0.008,0.49-0.127,0.588c-0.763,0.619-1.508,1.307-2.368,1.742
	c-0.388,0.195-1.115,0.002-1.528-0.271c-0.504-0.334-0.486-1.006-0.252-1.576c0.706-1.732,1.428-3.459,2.143-5.186
	C57.398,16.238,57.482,16.025,57.609,15.709z"/>
<path fill-rule="evenodd" clip-rule="evenodd" fill="#FFFFFF" d="M156.068,12.502c-0.283-0.171-0.893-0.4-1.313-0.828
	c-0.53-0.543-0.248-1.545,0.45-1.824c0.155-0.061,0.478,0.072,0.602,0.223c1.452,1.743,1.44,1.743,2.997,0.18
	c0.12-0.121,0.379-0.097,0.574-0.141c0.007,0.162,0.085,0.38,0.012,0.476C158.621,11.591,157.76,12.459,156.068,12.502z"/>
<path fill-rule="evenodd" clip-rule="evenodd" fill="#FFFFFF" d="M61.083,11.742c-0.024,0.737-0.657,1.454-1.26,1.431
	c-0.568-0.022-0.978-0.544-0.938-1.192c0.046-0.765,0.654-1.407,1.295-1.369C60.744,10.644,61.106,11.096,61.083,11.742z"/>
</svg>
