<?xml version="1.0" encoding="utf-8"?>
<!-- Generator: Adobe Illustrator 16.0.0, SVG Export Plug-In . SVG Version: 6.00 Build 0)  -->
<!DOCTYPE svg PUBLIC "-//W3C//DTD SVG 1.1//EN" "http://www.w3.org/Graphics/SVG/1.1/DTD/svg11.dtd">
<svg version="1.1" id="Layer_1" xmlns="http://www.w3.org/2000/svg" xmlns:xlink="http://www.w3.org/1999/xlink" x="0px" y="0px"
	 width="276px" height="140px" viewBox="0 0 276 140" enable-background="new 0 0 276 140" xml:space="preserve">
<path fill-rule="evenodd" clip-rule="evenodd" fill="#FFFFFF" d="M166.203,55.531c0.389,0.076,0.497,0.112,0.607,0.117
	c2.374,0.1,2.374,0.099,2.384,2.607c0.004,1.241-0.021,2.483,0.022,3.723c0.024,0.692-0.207,1.077-0.833,1.375
	c-6.105,2.897-12.209,5.8-18.288,8.759c-2.791,1.358-2.802,1.453-4.913-0.812c-4.427-4.749-8.81-9.54-13.207-14.317
	c-0.265-0.288-0.498-0.609-0.825-1.012c-4.748,6.537-9.383,12.919-14.252,19.624c1.193,0,2.088,0.04,2.979-0.012
	c0.776-0.046,1.115,0.188,1.105,1.063c-0.036,3.562,0.008,7.127-0.043,10.688c-0.007,0.417-0.318,1.028-0.659,1.214
	c-8.308,4.534-16.637,9.024-24.964,13.516c-0.063,0.035-0.149,0.024-0.403,0.055c-7.319-7.592-14.716-15.266-22.209-23.039
	c-6.552,8.619-13.019,17.123-19.713,25.929c1.435,0,2.569,0.051,3.697-0.017c0.884-0.055,1.124,0.289,1.117,1.172
	c-0.036,4.484-0.038,8.968,0.002,13.45c0.007,0.816-0.302,1.24-0.967,1.566c-8.844,4.336-17.92,8.062-27.36,10.765
	c-4.426,1.269-8.907,2.352-13.396,3.358c-2.09,0.468-4.262,0.555-6.396,0.813c-0.028-0.158-0.058-0.319-0.087-0.479
	c0.477-0.119,0.955-0.229,1.431-0.354c8.867-2.32,17.381-5.69,25.664-9.629c5.044-2.398,9.872-5.285,14.769-8.008
	c0.37-0.204,0.708-0.828,0.731-1.276c0.086-1.638-0.001-3.281,0.048-4.922c0.025-0.844-0.274-1.11-1.076-1.103
	c-2.985,0.035-5.97,0.018-8.956,0.01c-0.331,0-0.662-0.051-1.208-0.095c10.594-12.968,21.046-25.761,31.829-38.96
	c0.366,0.593,0.569,1.098,0.914,1.456c7.271,7.551,14.57,15.072,21.824,22.641c0.676,0.705,1.164,0.762,1.978,0.311
	c6.097-3.376,12.223-6.693,18.312-10.086c0.4-0.225,0.752-0.875,0.805-1.363c0.123-1.147,0.011-2.32,0.072-3.478
	c0.047-0.889-0.272-1.209-1.134-1.188c-1.86,0.047-3.722,0.018-5.583,0.011c-0.376-0.001-0.751-0.04-1.354-0.077
	c7.469-9.783,14.806-19.393,22.211-29.089c5.664,6.01,11.278,11.965,16.883,17.913c3.943-1.791,7.814-3.575,11.709-5.307
	c1.984-0.883,3.993-1.722,6.026-2.481c1-0.375,1.375-0.922,0.964-2.157c-1.717,0-3.51,0-5.301,0
	c-0.061-0.116-0.123-0.231-0.184-0.347c4.969-6.589,9.939-13.177,15.018-19.91c1.41,1.781,2.701,3.408,3.99,5.038
	c2.326,2.944,4.667,5.875,6.964,8.843c0.539,0.698,1.033,0.805,1.886,0.604c5.461-1.288,10.946-2.476,16.417-3.725
	c0.413-0.094,0.956-0.301,1.138-0.632c2.711-4.935,5.372-9.899,8.039-14.859c0.052-0.093,0.047-0.217,0.102-0.483
	c-0.918,0-1.785,0-3.027,0c3.264-6.072,6.374-11.863,9.681-18.021c3.021,6.124,5.881,11.917,8.841,17.919
	c-1.078,0.057-1.942,0.103-2.993,0.158c0.17,0.428,0.282,0.781,0.445,1.108c1.723,3.487,3.478,6.958,5.167,10.464
	c0.384,0.797,0.887,1.036,1.707,1.113c4.508,0.422,9.008,0.909,13.508,1.391c0.343,0.037,0.668,0.225,0.947,0.502
	c-4.793,0-9.588,0-14.621,0c0.813,1.622,1.556,3.167,2.381,4.663c0.109,0.203,0.632,0.225,0.964,0.23
	c8.157,0.131,16.221,1.13,24.189,2.895c4.304,0.953,8.561,2.136,12.838,3.224c0.291,0.075,0.565,0.228,0.825,0.515
	c-12.317-1.957-24.595-4.3-37.278-3.705c0.533,1.156,1.016,2.204,1.594,3.46c-2.019,0-3.779,0-5.802,0
	c4.825,9.567,9.538,18.917,14.396,28.55c-2.63,0-4.994,0-7.695,0c6.161,16.126,12.208,31.956,18.384,48.125
	c-15.565-0.438-29.908-3.949-43.126-11.849c11.789,3.927,23.577,7.805,36.56,7.157c-6.327-16.144-12.561-32.048-18.874-48.159
	c2.924,0,5.718,0,8.781,0c-4.635-9.071-9.136-17.881-13.748-26.915c2.056,0,3.952,0,6.101,0
	c-3.844-8.437-7.574-16.617-11.391-24.985c0.963-0.052,1.817-0.098,2.965-0.161c-1.699-3.917-3.346-7.72-5.106-11.778
	c-2.146,4.148-4.156,8.029-6.305,12.177c1.217,0,2.155,0,3.284,0c-4.321,8.428-8.52,16.625-12.857,25.086c1.729,0,3.203,0,5.048,0
	c-5.319,9.845-10.469,19.374-15.718,29.093c-2.03-2.844-3.968-5.559-6.045-8.468c-1.658,2.566-3.227,4.991-4.914,7.604
	c0.983,0.063,1.758,0.112,2.854,0.182c-2.304,2.97-4.416,5.689-6.705,8.635c1.22,0,2.221,0,3.614,0
	c-3.455,4.652-6.677,8.991-9.985,13.444c8.955,1.984,17.405,4.991,25.488,9.078c0.216,0.109,0.39,0.305,0.536,0.558
	c-9.697-3.6-19.414-7.066-29.805-8.829c3.188-4.13,6.257-8.109,9.515-12.333c-1.207,0-2.139,0-3.07,0
	c-0.054-0.101-0.104-0.2-0.156-0.301c2.211-2.729,4.422-5.457,6.841-8.445c-1.198,0-2.092,0-3.152,0
	c2.99-4.551,5.847-8.896,8.86-13.482c1.88,2.588,3.655,5.028,5.479,7.538c3.436-6.195,6.835-12.319,10.23-18.443
	c-0.048-0.088-0.093-0.176-0.141-0.264c-1.292,0.404-2.593,0.787-3.879,1.216c-14.246,4.773-27.967,10.861-41.396,17.675
	c-10.681,5.419-21.361,10.842-32.01,16.329c-8.195,4.223-16.287,8.669-24.523,12.805c-15.784,7.925-31.981,14.835-48.586,20.722
	c-7.356,2.61-14.839,4.709-22.501,6.078c-9.473,1.692-19.01,2.803-28.635,2.962c-0.519,0.01-1.04,0.001-1.559,0.001
	c-0.005-0.111-0.01-0.221-0.016-0.33c1.833-0.256,3.67-0.488,5.5-0.772c4.55-0.701,9.104-1.39,13.644-2.153
	c6.231-1.05,12.331-2.665,18.248-4.933c5.86-2.242,11.752-4.436,17.472-7.025c9.725-4.403,19.427-8.89,28.95-13.738
	c9.56-4.868,18.877-10.242,28.325-15.35c4.62-2.498,9.272-4.937,13.947-7.321c8.973-4.577,17.926-9.197,26.973-13.613
	c14.137-6.899,28.729-12.572,43.863-16.7c0.86-0.235,1.715-0.573,2.589-0.648c1.269-0.108,1.899-0.855,2.39-1.937
	c0.426-0.939,0.958-1.826,1.437-2.74c0.03-0.06,0.004-0.153,0.004-0.445c-1.299,0.286-2.573,0.491-3.804,0.85
	c-4.121,1.203-8.235,2.436-12.334,3.721c-0.844,0.265-1.259-0.058-1.733-0.67c-3.174-4.087-6.369-8.156-9.563-12.228
	c-0.241-0.306-0.514-0.583-0.861-0.977C172.723,46.8,169.521,51.088,166.203,55.531z"/>
<path fill-rule="evenodd" clip-rule="evenodd" fill="#FFFFFF" d="M24.69,139.111c4.305-0.759,8.631-1.404,12.908-2.301
	c5.674-1.191,11.35-2.422,16.951-3.929c5.597-1.505,11.159-3.202,16.634-5.126c7.163-2.517,14.203-5.405,21.337-8.015
	c10.631-3.89,21.358-7.508,32.374-10.039c4.325-0.993,8.783-1.44,13.206-1.871c4.314-0.418,8.662-0.695,12.991-0.671
	c4.33,0.025,8.67,0.375,12.986,0.804c15.852,1.585,30.458,7.397,44.786,14.172c6.46,3.055,12.959,6.041,19.542,8.799
	c5.014,2.102,10.32,3.231,15.652,4.228c10.208,1.905,20.485,2.094,30.803,1.518c0.169-0.01,0.343,0.047,0.514,0.072
	c0.015,0.116,0.029,0.23,0.045,0.348c-1.117,0.276-2.223,0.627-3.353,0.817c-8.12,1.368-16.284,1.448-24.458,0.677
	c-10.988-1.039-21.433-4.113-31.604-8.556c-9.098-3.973-18.38-7.514-27.674-10.971c-7.543-2.807-15.382-4.539-23.354-5.458
	c-6.86-0.79-13.764-1.163-20.66-0.75c-8.775,0.523-17.45,1.71-25.994,4.035c-14.575,3.965-28.841,8.927-43.166,13.721
	c-5.795,1.94-11.748,3.428-17.691,4.837c-4.819,1.144-9.705,2.091-14.609,2.712c-5.527,0.699-11.107,0.945-16.667,1.364
	c-0.509,0.038-1.03-0.101-1.546-0.158C24.659,139.285,24.675,139.196,24.69,139.111z"/>
<path fill-rule="evenodd" clip-rule="evenodd" fill="#FFFFFF" d="M206.526,11.608c-0.32,0.031-0.64,0.083-0.96,0.09
	c-10.928,0.25-21.858,0.338-32.776,0.802c-6.415,0.272-12.831,0.929-19.197,1.787c-12.363,1.667-24.334,5.004-35.69,10.35
	c-9.698,4.564-19.284,9.392-28.846,14.256c-5.824,2.962-11.466,6.303-17.271,9.308c-6.204,3.212-12.729,5.567-19.535,7.021
	c-2.033,0.435-4.103,0.674-6.156,1.001c-0.04-0.134-0.08-0.27-0.119-0.404c0.459-0.178,0.913-0.374,1.378-0.533
	c10.04-3.437,19.309-8.456,28.292-14.191c7.424-4.74,15.028-9.215,22.765-13.387c6.428-3.466,13.096-6.491,19.786-9.398
	c6.921-3.006,14.152-5.072,21.521-6.619c10.923-2.293,21.957-2.867,33.063-2.412c8.132,0.334,16.266,0.642,24.396,1.025
	c2.668,0.126,5.327,0.445,7.987,0.701c0.469,0.045,0.925,0.221,1.388,0.336C206.545,11.432,206.536,11.52,206.526,11.608z"/>
<path fill-rule="evenodd" clip-rule="evenodd" fill="#FFFFFF" d="M178.333,0.969c-2.829,0.385-5.649,0.869-8.489,1.134
	c-7.096,0.663-14.213,1.108-21.299,1.854c-12.204,1.286-24.097,4.024-35.453,8.916c-7.001,3.016-13.662,6.723-20.142,10.814
	c-5.997,3.785-12.163,7.282-18.264,10.888c-0.451,0.267-0.98,0.393-1.474,0.583c-0.051-0.088-0.104-0.177-0.155-0.266
	c0.554-0.414,1.099-0.838,1.663-1.237c7.238-5.133,14.386-10.409,21.744-15.353c8.36-5.618,17.351-9.957,26.948-12.858
	c9.977-3.016,20.188-4.459,30.571-4.597c7.635-0.102,15.271-0.123,22.905-0.178c0.488-0.003,0.976,0,1.464,0
	C178.346,0.771,178.341,0.871,178.333,0.969z"/>
<path fill-rule="evenodd" clip-rule="evenodd" fill="#FFFFFF" d="M86.872,136.106c16.322-13.885,35.086-20.696,56.206-20.062
	c19.204,0.577,36.226,7.429,51.046,20.077c-16.319-10.872-34.153-16.561-53.603-16.563
	C121.054,119.554,103.205,125.227,86.872,136.106z"/>
<path fill-rule="evenodd" clip-rule="evenodd" fill="#FFFFFF" d="M12.771,26.017c1.164,0.076,2.34,0.063,3.488,0.242
	c5.645,0.875,10.747,3.14,15.395,6.532c0.409,0.299,0.901,0.538,1.195,0.931c0.843,1.127,1.824,1.146,2.956,0.593
	c2.577-1.264,5.231-2.385,7.71-3.828c1.5-0.874,2.732-2.24,4.026-3.336c-0.171,0.345-0.377,0.901-0.696,1.376
	c-1.796,2.681-4.399,4.349-7.125,5.795c-1.747,0.927-3.624,1.589-5.421,2.42c-0.64,0.295-1.086,0.18-1.527-0.34
	c-4.129-4.873-9.357-7.826-15.405-9.298c-1.085-0.265-2.214-0.329-3.323-0.49c-0.435-0.063-0.869-0.142-1.303-0.212
	C12.752,26.272,12.762,26.145,12.771,26.017z"/>
<path fill-rule="evenodd" clip-rule="evenodd" fill="#FFFFFF" d="M29.939,29.801c0.677,0.362,1.385,0.673,2.027,1.093
	c1.473,0.966,2.883,2.098,4.803,1.287c0.106-0.046,0.267,0.045,0.456,0.299c-0.829,0.328-1.653,0.665-2.488,0.973
	c-0.118,0.045-0.315,0-0.422-0.081c-1.508-1.134-3.007-2.282-4.508-3.426C29.851,29.897,29.895,29.85,29.939,29.801z"/>
</svg>
