<?xml version="1.0" encoding="utf-8"?>
<!-- Generator: Adobe Illustrator 16.0.0, SVG Export Plug-In . SVG Version: 6.00 Build 0)  -->
<!DOCTYPE svg PUBLIC "-//W3C//DTD SVG 1.1//EN" "http://www.w3.org/Graphics/SVG/1.1/DTD/svg11.dtd">
<svg version="1.1" id="Layer_1" xmlns="http://www.w3.org/2000/svg" xmlns:xlink="http://www.w3.org/1999/xlink" x="0px" y="0px"
	 width="40px" height="40px" viewBox="0 0 40 40" enable-background="new 0 0 40 40" xml:space="preserve">
<g>
	<path fill-rule="evenodd" clip-rule="evenodd" d="M0,28.596c0.21-0.801,0.391-1.612,0.637-2.402
		c0.879-2.829,2.782-4.536,5.695-5.085c0.403-0.076,0.367-0.307,0.373-0.583c0.007-0.333-0.223-0.289-0.429-0.289
		c-0.521-0.002-1.042,0.005-1.562-0.004c-0.43-0.008-0.652-0.209-0.686-0.634c-0.02-0.245-0.017-0.496,0.014-0.74
		c0.037-0.304,0.235-0.5,0.534-0.544c0.3-0.044,0.563,0.085,0.656,0.374c0.09,0.279,0.262,0.3,0.498,0.303
		c0.245,0.003,0.314-0.104,0.307-0.332c-0.008-0.246-0.016-0.499,0.031-0.738c0.186-0.936,0.899-1.543,1.856-1.597
		c0.243-0.014,0.487-0.002,0.783-0.002c0-0.362-0.036-0.665,0.006-0.955c0.149-1.034,0.937-1.715,2.035-1.729
		c1.718-0.02,3.437-0.01,5.155-0.001c0.837,0.004,1.465,0.372,1.876,1.118c0.062,0.113,0.255,0.209,0.392,0.215
		c0.585,0.024,1.171,0.005,1.757,0.014c1.228,0.018,2.017,0.811,2.03,2.037c0.007,0.547-0.008,1.094,0.012,1.64
		c0.004,0.109,0.126,0.304,0.189,0.303c0.183-0.004,0.463-0.036,0.526-0.153c0.181-0.334,0.384-0.565,0.785-0.485
		c0.345,0.068,0.499,0.34,0.5,0.816c0.001,0.143,0.003,0.286-0.003,0.429c-0.018,0.422-0.233,0.651-0.653,0.661
		c-0.546,0.012-1.094,0.013-1.64,0.002c-0.256-0.005-0.379,0.061-0.372,0.349c0.006,0.267,0.031,0.425,0.362,0.453
		c1.453,0.12,2.747,0.662,3.871,1.585c1.479,1.214,2.966,2.42,4.406,3.679c1.148,1.005,2.454,1.577,3.956,1.767
		c0.851,0.106,1.695,0.258,2.538,0.411c1.862,0.339,3.167,1.688,3.484,3.577c0.012,0.074,0.053,0.143,0.081,0.215
		c0,0.26,0,0.521,0,0.781c-0.027,0.071-0.068,0.141-0.081,0.216c-0.335,1.932-1.692,3.298-3.598,3.579
		c-0.264,0.038-0.356,0.131-0.371,0.377c-0.051,0.83-0.357,1.561-0.872,2.209c-0.035,0.044-0.044,0.109-0.066,0.167
		c0.05,0.014,0.075,0.027,0.1,0.027c1.286,0.003,2.574,0.022,3.859-0.003c0.439-0.009,0.782,0.09,1.029,0.458
		c0,0.287,0,0.573,0,0.86c-13.333,0-26.667,0-40,0c0-0.287,0-0.573,0-0.86c0.242-0.379,0.592-0.466,1.028-0.457
		c1.181,0.024,2.363,0.01,3.545,0.008c0.135,0,0.27-0.014,0.424-0.021c-0.233-0.407-0.49-0.756-0.642-1.146
		c-0.158-0.404-0.243-0.844-0.306-1.276c-0.039-0.266-0.137-0.352-0.393-0.416c-1.83-0.462-3.01-1.601-3.496-3.437
		C0.101,33.11,0.053,32.884,0,32.658C0,31.305,0,29.95,0,28.596z M24.612,23.63c-0.04-0.092-0.044-0.118-0.06-0.134
		c-0.036-0.037-0.075-0.071-0.117-0.102c-1-0.715-2.112-1.134-3.343-1.138c-4.557-0.014-9.113-0.017-13.669,0.006
		c-0.575,0.003-1.173,0.106-1.72,0.286c-2.91,0.959-4.026,3.354-4.374,6.329c-0.13,1.117-0.026,2.263-0.019,3.396
		c0.01,1.564,1.024,2.845,2.542,3.248c0.284,0.076,0.424,0.037,0.571-0.254c0.752-1.487,1.958-2.309,3.65-2.278
		c1.639,0.03,2.802,0.852,3.511,2.31c0.129,0.266,0.268,0.349,0.555,0.348c5.234-0.009,10.467-0.009,15.701,0.001
		c0.303,0,0.446-0.086,0.582-0.366c0.709-1.463,1.886-2.27,3.521-2.293c1.637-0.024,2.847,0.747,3.577,2.196
		c0.215,0.427,0.434,0.478,0.842,0.387c1.232-0.275,2.266-1.445,2.256-2.641c-0.134-0.008-0.272-0.023-0.411-0.024
		c-0.494-0.004-0.989-0.004-1.483-0.002c-0.321,0.001-0.557-0.132-0.662-0.442c-0.141-0.409,0.16-0.802,0.627-0.81
		c0.579-0.01,1.158-0.002,1.748-0.002c0-0.103,0.011-0.144-0.002-0.176c-0.033-0.085-0.071-0.168-0.115-0.247
		c-0.447-0.796-1.12-1.299-2.012-1.47c-1.059-0.202-2.125-0.36-3.187-0.548c-0.51-0.09-1.015-0.292-1.522-0.293
		c-6.287-0.021-12.575-0.013-18.863-0.013c-2.656,0-5.312,0.004-7.967-0.001C3.556,28.9,2.89,27.991,3.232,26.827
		c0.044-0.149,0.095-0.297,0.14-0.446c0.549-1.86,1.755-2.754,3.705-2.753c5.559,0.002,11.118,0.002,16.677,0.002
		C24.025,23.63,24.297,23.63,24.612,23.63z M29.005,39.604c-0.023-0.065-0.028-0.104-0.049-0.132
		c-0.535-0.667-0.873-1.413-0.907-2.276c-0.011-0.261-0.165-0.276-0.367-0.276c-5.128,0.003-10.255,0.005-15.383-0.001
		c-0.249,0-0.311,0.086-0.362,0.326c-0.114,0.526-0.266,1.05-0.457,1.555c-0.105,0.279-0.32,0.518-0.504,0.805
		C17.008,39.604,22.996,39.604,29.005,39.604z M20.003,27.605c3.15,0,6.279,0,9.467,0c-0.078-0.092-0.105-0.137-0.143-0.168
		c-0.948-0.791-1.894-1.587-2.853-2.364c-0.125-0.102-0.326-0.154-0.493-0.155c-1.873-0.012-3.744-0.008-5.617-0.008
		c-0.113,0-0.227,0.016-0.362,0.026C20.003,25.836,20.003,26.712,20.003,27.605z M9.979,16.322c0.281,0,0.5-0.007,0.718,0.001
		c0.993,0.038,1.724,0.655,1.908,1.629c0.045,0.24,0.037,0.493,0.029,0.739c-0.007,0.223,0.086,0.297,0.299,0.296
		c1.159-0.006,2.317,0.002,3.476-0.017c0.097-0.001,0.274-0.167,0.275-0.258c0.019-1.028,0.025-2.057,0.001-3.085
		c-0.011-0.453-0.285-0.71-0.718-0.712c-1.758-0.009-3.516-0.01-5.273,0c-0.448,0.002-0.706,0.295-0.715,0.752
		C9.976,15.862,9.979,16.056,9.979,16.322z M18.688,24.96c-0.093-0.027-0.118-0.041-0.142-0.041
		c-2.092-0.004-4.184-0.004-6.276-0.013c-0.246-0.001-0.315,0.107-0.313,0.329c0.005,0.662,0.014,1.325-0.005,1.987
		c-0.009,0.315,0.087,0.433,0.417,0.43c1.468-0.014,2.937-0.004,4.405-0.004c0.533,0.001,1.066,0.013,1.598-0.012
		c0.108-0.005,0.3-0.144,0.302-0.225C18.698,26.598,18.688,25.781,18.688,24.96z M7.972,39.631c1.521-0.001,2.743-1.219,2.731-2.722
		c-0.011-1.456-1.255-2.677-2.716-2.664c-1.479,0.013-2.685,1.219-2.688,2.688S6.513,39.631,7.972,39.631z M31.983,39.631
		c1.468,0.011,2.705-1.199,2.717-2.655c0.011-1.494-1.178-2.702-2.687-2.729c-1.449-0.026-2.704,1.2-2.721,2.658
		C29.277,38.39,30.492,39.62,31.983,39.631z M7.577,27.649c0.924,0,1.848-0.006,2.772,0.003c0.268,0.003,0.369-0.092,0.363-0.364
		c-0.014-0.677-0.014-1.354,0-2.03c0.006-0.28-0.105-0.354-0.368-0.351c-1.21,0.01-2.421-0.007-3.631,0.006
		c-0.877,0.01-1.667,0.579-1.979,1.403c-0.096,0.254-0.168,0.519-0.245,0.779c-0.13,0.443-0.063,0.547,0.394,0.551
		C5.781,27.654,6.679,27.648,7.577,27.649z M20.001,20.272c-0.13-0.012-0.244-0.031-0.357-0.032
		c-3.774-0.002-7.548-0.001-11.322-0.007c-0.264,0-0.359,0.081-0.371,0.356c-0.015,0.335,0.138,0.378,0.418,0.378
		c3.774-0.006,7.548-0.003,11.323-0.005c0.1,0,0.199-0.019,0.31-0.029C20.001,20.707,20.001,20.503,20.001,20.272z M17.959,17.601
		c0.001,0,0.001,0,0.002,0c0,0.365-0.02,0.731,0.012,1.093c0.009,0.104,0.165,0.275,0.258,0.278c0.742,0.023,1.484,0.021,2.226,0
		c0.085-0.002,0.234-0.166,0.237-0.259c0.021-0.585,0.027-1.172,0.003-1.757c-0.018-0.442-0.315-0.704-0.771-0.713
		c-0.547-0.011-1.094,0.007-1.641-0.007c-0.263-0.007-0.341,0.104-0.332,0.349C17.97,16.924,17.959,17.263,17.959,17.601z
		 M11.325,18.988c0.013-0.157,0.024-0.247,0.026-0.336c0.018-0.88-0.181-1.081-1.058-1.08c-0.637,0.001-1.273,0.001-1.91,0.002
		c-0.904,0.002-1.101,0.215-1.074,1.104c0.007,0.243,0.096,0.315,0.323,0.312c0.61-0.008,1.221-0.002,1.831-0.002
		C10.072,18.988,10.679,18.988,11.325,18.988z"/>
	<path fill-rule="evenodd" clip-rule="evenodd" d="M23.438,0.94c0.503,0.309,0.719,1.021,0.479,1.579
		c-0.115,0.27-0.339,0.44-0.61,0.369c-0.208-0.055-0.461-0.215-0.548-0.397C22.487,1.919,22.7,1.277,23.203,0.94
		C23.281,0.94,23.359,0.94,23.438,0.94z"/>
	<path fill-rule="evenodd" clip-rule="evenodd" d="M33.294,18.259c-1.094,0-2.187,0.004-3.28-0.001
		c-1.424-0.006-2.625-0.871-3.016-2.163c-0.39-1.285,0.094-2.595,1.244-3.427c0.126-0.092,0.234-0.278,0.256-0.434
		c0.228-1.612,1.121-2.695,2.671-3.115c1.564-0.423,2.892,0.075,3.916,1.354c0.08,0.099,0.289,0.164,0.42,0.142
		c1.21-0.196,2.271,0.468,2.614,1.637c0.046,0.156,0.168,0.321,0.302,0.416c1.146,0.815,1.633,2.134,1.243,3.426
		c-0.383,1.27-1.553,2.137-2.935,2.163c-0.572,0.011-1.145,0.002-1.718,0.003C34.439,18.26,33.866,18.26,33.294,18.259z
		 M36.598,12.158c-0.48-0.457-1.079-0.39-1.476,0.15c-0.307,0.417-0.614,0.512-0.949,0.294c-0.311-0.203-0.38-0.572-0.126-0.96
		c0.134-0.206,0.064-0.326-0.053-0.478c-0.762-0.992-2.231-1.207-3.247-0.464c-0.486,0.355-0.813,0.818-0.928,1.433
		c0.081,0.028,0.128,0.046,0.177,0.059c0.405,0.109,0.578,0.318,0.54,0.683c-0.038,0.37-0.264,0.542-0.624,0.567
		c-0.13,0.008-0.258,0.035-0.385,0.062c-0.847,0.181-1.45,0.985-1.376,1.83c0.079,0.893,0.775,1.624,1.647,1.632
		c2.354,0.021,4.709,0.022,7.064-0.003c0.671-0.007,1.181-0.38,1.478-0.992c0.29-0.598,0.24-1.184-0.131-1.738
		c-0.354-0.53-0.881-0.719-1.487-0.812c-0.205-0.031-0.465-0.213-0.545-0.395c-0.072-0.165,0.038-0.433,0.119-0.635
		C36.338,12.29,36.492,12.235,36.598,12.158z"/>
	<path fill-rule="evenodd" clip-rule="evenodd" d="M6.634,11.563c-1.184,0-2.369,0.029-3.552-0.008
		c-1.311-0.041-2.396-0.923-2.752-2.159C-0.033,8.134,0.441,6.823,1.509,6.05c0.169-0.122,0.32-0.333,0.38-0.533
		C2.212,4.449,3.317,3.74,4.446,3.952c0.273,0.051,0.392-0.031,0.545-0.221c0.934-1.157,2.163-1.626,3.604-1.334
		c1.476,0.299,2.461,1.232,2.8,2.712c0.12,0.527,0.328,0.877,0.736,1.223c0.95,0.805,1.234,2.114,0.807,3.273
		c-0.42,1.14-1.468,1.906-2.711,1.956c-0.598,0.024-1.197,0.012-1.795,0.013c-0.599,0.002-1.197,0-1.796,0
		C6.634,11.571,6.634,11.567,6.634,11.563z M10.197,5.462C9.948,4.56,9.423,3.957,8.561,3.695C7.612,3.407,6.793,3.672,6.11,4.378
		C5.908,4.585,5.8,4.766,5.995,5.083C6.101,5.255,6.073,5.63,5.948,5.787c-0.125,0.154-0.454,0.21-0.682,0.19
		C5.117,5.963,4.97,5.75,4.853,5.603C4.449,5.099,3.821,5.046,3.421,5.497C3.833,5.8,3.965,6.024,3.868,6.314
		C3.767,6.613,3.554,6.766,3.225,6.787c-1.008,0.064-1.75,0.812-1.75,1.745c-0.001,0.976,0.76,1.769,1.797,1.78
		c2.265,0.023,4.53,0.02,6.795,0.004c0.888-0.006,1.618-0.638,1.75-1.442c0.178-1.091-0.558-2.007-1.68-2.089
		C9.662,6.749,9.42,6.492,9.462,6.067C9.502,5.662,9.81,5.557,10.197,5.462z"/>
	<path fill-rule="evenodd" clip-rule="evenodd" d="M23.326,10.239c-1.859-0.019-3.335-1.509-3.305-3.336
		c0.03-1.821,1.536-3.279,3.355-3.25c1.854,0.03,3.268,1.498,3.252,3.379C26.614,8.8,25.114,10.257,23.326,10.239z M25.349,6.948
		c-0.006-1.134-0.908-2.041-2.026-2.036c-1.106,0.005-2.02,0.936-2.014,2.055C21.314,8.079,22.253,9,23.361,8.983
		C24.466,8.965,25.354,8.056,25.349,6.948z"/>
	<path fill-rule="evenodd" clip-rule="evenodd" d="M19.566,2.536c0.384,0.002,1.116,0.744,1.11,1.125
		C20.67,4.12,20.14,4.458,19.76,4.202c-0.292-0.197-0.563-0.467-0.755-0.762C18.755,3.058,19.107,2.532,19.566,2.536z"/>
	<path fill-rule="evenodd" clip-rule="evenodd" d="M23.962,11.935c0,0.142,0.02,0.288-0.004,0.426
		c-0.053,0.314-0.237,0.513-0.568,0.536c-0.32,0.023-0.586-0.104-0.646-0.426c-0.059-0.312-0.063-0.643-0.028-0.959
		c0.036-0.335,0.354-0.562,0.656-0.538c0.329,0.025,0.577,0.294,0.595,0.651c0.006,0.103,0.001,0.207,0.001,0.311
		C23.965,11.935,23.964,11.935,23.962,11.935z"/>
	<path fill-rule="evenodd" clip-rule="evenodd" d="M26.501,4.297c-0.1-0.081-0.344-0.182-0.401-0.348
		c-0.07-0.202-0.051-0.494,0.05-0.683c0.121-0.229,0.354-0.408,0.563-0.58c0.264-0.218,0.61-0.185,0.843,0.047
		c0.222,0.222,0.26,0.606,0.031,0.844C27.308,3.866,27.091,4.259,26.501,4.297z"/>
	<path fill-rule="evenodd" clip-rule="evenodd" d="M20.675,10.247c-0.005,0.416-0.747,1.115-1.16,1.093
		c-0.454-0.024-0.756-0.513-0.506-0.893c0.187-0.285,0.443-0.547,0.723-0.74C20.124,9.436,20.68,9.777,20.675,10.247z"/>
	<path fill-rule="evenodd" clip-rule="evenodd" d="M27.724,10.88c-0.061,0.076-0.162,0.314-0.331,0.379
		c-0.188,0.072-0.475,0.054-0.65-0.046c-0.24-0.136-0.471-0.355-0.601-0.596c-0.101-0.186-0.115-0.492-0.03-0.683
		c0.068-0.152,0.338-0.278,0.53-0.298C27.053,9.596,27.74,10.33,27.724,10.88z"/>
	<path fill-rule="evenodd" clip-rule="evenodd" d="M18.346,7.563c-0.156,0-0.316,0.022-0.467-0.004
		c-0.323-0.057-0.503-0.275-0.511-0.595s0.156-0.571,0.481-0.614c0.319-0.042,0.653-0.042,0.971,0.003
		c0.323,0.046,0.479,0.288,0.467,0.619c-0.012,0.333-0.191,0.532-0.512,0.589c-0.139,0.024-0.285,0.004-0.428,0.004
		C18.346,7.564,18.346,7.564,18.346,7.563z"/>
	<path fill-rule="evenodd" clip-rule="evenodd" d="M28.334,7.572c-0.117,0-0.234,0.006-0.352-0.001
		c-0.364-0.021-0.617-0.275-0.619-0.619c-0.002-0.345,0.239-0.6,0.613-0.622c0.246-0.015,0.495-0.015,0.741,0.002
		c0.354,0.024,0.567,0.266,0.569,0.613c0.002,0.346-0.216,0.591-0.563,0.622c-0.129,0.011-0.26,0.001-0.39,0.001
		C28.334,7.57,28.334,7.571,28.334,7.572z"/>
	<path fill-rule="evenodd" clip-rule="evenodd" d="M21.326,31.563c-0.233,0-0.468,0.014-0.7-0.003
		c-0.356-0.024-0.613-0.306-0.604-0.634c0.009-0.316,0.262-0.592,0.597-0.603c0.479-0.015,0.959-0.015,1.438,0.002
		c0.334,0.012,0.577,0.287,0.579,0.612c0.002,0.328-0.23,0.594-0.571,0.618c-0.245,0.019-0.492,0.004-0.738,0.004
		C21.326,31.561,21.326,31.562,21.326,31.563z"/>
	<path fill-rule="evenodd" clip-rule="evenodd" d="M9.291,36.951c-0.003,0.71-0.58,1.295-1.284,1.302
		c-0.717,0.008-1.303-0.59-1.298-1.324c0.005-0.729,0.556-1.282,1.28-1.285C8.73,35.641,9.294,36.209,9.291,36.951z"/>
	<path fill-rule="evenodd" clip-rule="evenodd" d="M30.71,36.963c-0.006-0.747,0.551-1.317,1.287-1.319
		c0.722-0.002,1.282,0.553,1.292,1.275c0.009,0.735-0.566,1.33-1.289,1.332C31.296,38.252,30.716,37.673,30.71,36.963z"/>
</g>
</svg>
