<?xml version="1.0" encoding="utf-8"?>
<!-- Generator: Adobe Illustrator 16.0.0, SVG Export Plug-In . SVG Version: 6.00 Build 0)  -->
<!DOCTYPE svg PUBLIC "-//W3C//DTD SVG 1.1//EN" "http://www.w3.org/Graphics/SVG/1.1/DTD/svg11.dtd">
<svg version="1.1" id="Layer_1" xmlns="http://www.w3.org/2000/svg" xmlns:xlink="http://www.w3.org/1999/xlink" x="0px" y="0px"
	 width="40px" height="40px" viewBox="0 0 40 40" enable-background="new 0 0 40 40" xml:space="preserve">
<g>
	<path fill-rule="evenodd" clip-rule="evenodd" d="M15.451,34.623c-0.045-0.026-0.087-0.063-0.136-0.078
		c-0.847-0.279-1.2-0.937-0.916-1.771c0.604-1.772,1.221-3.539,1.838-5.306c0.167-0.481,0.491-0.673,0.86-0.532
		c0.392,0.148,0.51,0.465,0.341,0.957c-0.569,1.658-1.144,3.313-1.716,4.97c-0.042,0.121-0.075,0.245-0.127,0.416
		c1.047-0.129,1.842-0.587,2.465-1.375c1.369-1.733,2.748-3.46,4.122-5.188c0.364-0.459,0.725-0.92,1.096-1.373
		c0.289-0.354,0.678-0.426,0.973-0.194c0.294,0.229,0.312,0.635,0.028,0.991c-1.779,2.24-3.556,4.483-5.346,6.715
		c-0.671,0.837-1.55,1.361-2.599,1.6c-0.191,0.043-0.376,0.112-0.564,0.17C15.664,34.623,15.558,34.623,15.451,34.623z"/>
	<path fill-rule="evenodd" clip-rule="evenodd" d="M16.133,18.602c-0.502-0.867-0.992-1.717-1.485-2.565
		c-1.124-1.932-2.251-3.862-3.373-5.795c-0.54-0.931-0.204-1.742,0.819-2.097c1.583-0.549,3.004-0.328,4.355,0.693
		c3.08,2.327,6.195,4.609,9.288,6.919c0.238,0.178,0.443,0.218,0.728,0.144c2.39-0.623,4.776-1.262,7.18-1.833
		c1.378-0.328,2.787-0.442,4.186-0.05c2.186,0.613,2.78,2.675,1.26,4.366c-0.785,0.873-1.779,1.463-2.87,1.824
		c-1.839,0.607-3.7,1.159-5.57,1.663c-6.849,1.845-13.705,3.658-20.557,5.487c-2.57,0.685-5.069-0.206-6.618-2.36
		c-1.034-1.438-2.064-2.877-3.118-4.3c-0.369-0.498-0.563-1.006-0.299-1.592c0.281-0.627,0.868-0.834,1.479-0.83
		c0.417,0.002,0.879,0.122,1.24,0.33c1.071,0.617,2.108,1.296,3.147,1.967c0.654,0.423,1.325,0.544,2.087,0.328
		c2.606-0.739,5.221-1.453,7.831-2.179C15.928,18.698,16.01,18.653,16.133,18.602z M1.231,19.681
		c0.091,0.137,0.159,0.248,0.235,0.354c1.015,1.402,2.028,2.806,3.045,4.205c1.26,1.732,3.206,2.427,5.278,1.873
		c7.814-2.089,15.628-4.179,23.441-6.274c1.336-0.357,2.688-0.706,3.852-1.485c0.508-0.34,0.99-0.778,1.345-1.271
		c0.475-0.661,0.223-1.311-0.521-1.663c-0.132-0.063-0.27-0.116-0.41-0.153c-1.327-0.352-2.648-0.191-3.946,0.128
		c-2.438,0.6-4.864,1.242-7.291,1.884c-0.333,0.088-0.584,0.031-0.851-0.168c-1.471-1.102-2.948-2.193-4.423-3.289
		c-1.86-1.381-3.718-2.765-5.58-4.143c-0.925-0.685-2.242-0.762-3.071-0.185c0.056,0.103,0.111,0.208,0.171,0.312
		c1.691,2.91,3.383,5.82,5.078,8.729c0.155,0.267,0.296,0.559,0.075,0.811c-0.16,0.183-0.422,0.315-0.663,0.384
		c-2.876,0.813-5.758,1.604-8.635,2.411c-1.105,0.311-2.125,0.162-3.089-0.459c-1.029-0.663-2.072-1.305-3.105-1.963
		C1.877,19.532,1.594,19.448,1.231,19.681z"/>
	<path fill-rule="evenodd" clip-rule="evenodd" d="M23.935,19.121c0.002-0.474,0.243-0.746,0.575-0.78
		c0.396-0.04,0.682,0.288,0.803,0.923c0.065,0.345-0.142,0.71-0.497,0.729c-0.214,0.012-0.503-0.102-0.641-0.26
		C24.014,19.55,23.981,19.254,23.935,19.121z"/>
	<path fill-rule="evenodd" clip-rule="evenodd" d="M27.725,17.511c0.492-0.008,0.698,0.458,0.733,1.053
		c0.021,0.354-0.288,0.623-0.641,0.614c-0.42-0.01-0.771-0.505-0.751-1.06C27.079,17.769,27.364,17.505,27.725,17.511z"/>
	<path fill-rule="evenodd" clip-rule="evenodd" d="M19.026,20.977c0.002,0.439-0.283,0.74-0.622,0.756
		c-0.36,0.016-0.57-0.223-0.737-0.803c-0.104-0.358-0.012-0.633,0.31-0.813c0.279-0.158,0.648-0.073,0.803,0.209
		C18.905,20.554,18.968,20.815,19.026,20.977z"/>
	<path fill-rule="evenodd" clip-rule="evenodd" d="M11.949,21.754c0.479-0.02,0.704,0.379,0.762,1.027
		c0.032,0.357-0.259,0.628-0.617,0.636c-0.43,0.009-0.77-0.441-0.776-1.031C11.313,22.039,11.594,21.758,11.949,21.754z"/>
	<path fill-rule="evenodd" clip-rule="evenodd" d="M30.873,16.655c0.495-0.01,0.696,0.486,0.732,1.054
		c0.023,0.363-0.265,0.616-0.631,0.61c-0.442-0.008-0.754-0.453-0.735-1.048C30.251,16.902,30.511,16.65,30.873,16.655z"/>
	<path fill-rule="evenodd" clip-rule="evenodd" d="M22.158,20.231c-0.002,0.374-0.248,0.626-0.613,0.634
		c-0.552,0.012-0.688-0.458-0.763-1.026c-0.046-0.347,0.261-0.621,0.617-0.634C21.874,19.188,22.092,19.589,22.158,20.231z"/>
	<path fill-rule="evenodd" clip-rule="evenodd" d="M15.857,21.915c0.005,0.377-0.233,0.635-0.597,0.646
		c-0.456,0.014-0.764-0.392-0.769-1.012c-0.002-0.37,0.244-0.641,0.597-0.654C15.524,20.877,15.85,21.309,15.857,21.915z"/>
</g>
</svg>
