<?xml version="1.0" encoding="utf-8"?>
<!-- Generator: Adobe Illustrator 16.0.0, SVG Export Plug-In . SVG Version: 6.00 Build 0)  -->
<!DOCTYPE svg PUBLIC "-//W3C//DTD SVG 1.1//EN" "http://www.w3.org/Graphics/SVG/1.1/DTD/svg11.dtd">
<svg version="1.1" id="Layer_1" xmlns="http://www.w3.org/2000/svg" xmlns:xlink="http://www.w3.org/1999/xlink" x="0px" y="0px"
	 width="40px" height="40px" viewBox="0 0 40 40" enable-background="new 0 0 40 40" xml:space="preserve">
<g>
	<path fill-rule="evenodd" clip-rule="evenodd" d="M36.229,40c-10.547,0-21.094,0-31.642,0c-0.657-0.48-0.652-0.863,0.024-1.355
		c1.672-1.217,3.345-2.432,5.017-3.648c0.118-0.088,0.231-0.182,0.381-0.299c-0.428-0.111-0.8-0.168-1.143-0.301
		c-1.386-0.539-2.083-1.723-2.083-3.451c0.002-8.25,0.003-16.5,0-24.749c0-2.085,1.41-3.512,3.491-3.512
		c1.288,0,2.577-0.03,3.864,0.014c0.724,0.024,1.26-0.21,1.756-0.73c0.771-0.81,1.476-1.735,2.679-1.967c0.989,0,1.979,0,2.969,0
		c0.689,0.178,1.309,0.472,1.797,1.019c0.373,0.417,0.793,0.789,1.182,1.192c0.318,0.329,0.686,0.48,1.148,0.477
		c1.432-0.013,2.863-0.024,4.295,0.01c0.459,0.011,0.939,0.097,1.365,0.262c1.291,0.498,2.053,1.727,2.055,3.206
		c0,4.061,0,8.123,0,12.184c0,4.256,0.006,8.512-0.002,12.77c-0.002,1.734-0.834,2.855-2.484,3.408
		c-0.053,0.018-0.096,0.064-0.168,0.115c0.127,0.1,0.227,0.182,0.33,0.256c1.715,1.25,3.428,2.498,5.143,3.744
		C36.877,39.135,36.885,39.514,36.229,40z M8.078,24.02c0.162,0,0.301,0,0.44,0c7.694,0,15.388,0,23.082,0
		c0.502,0,0.502,0,0.502-0.512c0-4.114,0-8.227,0-12.341c0-0.535,0-0.54-0.523-0.54c-7.682,0-15.362,0.004-23.043-0.009
		c-0.414-0.001-0.496,0.138-0.494,0.513c0.011,4.166,0.007,8.332,0.008,12.499C8.049,23.742,8.065,23.857,8.078,24.02z
		 M8.095,25.299c-0.02,0.135-0.047,0.234-0.047,0.334c0,1.889-0.021,3.775,0.013,5.662c0.023,1.285,0.895,2.076,2.189,2.076
		c6.547,0.002,13.095,0.002,19.642,0c1.354,0,2.209-0.865,2.209-2.227c0-1.785-0.012-3.568,0.01-5.352
		c0.004-0.387-0.086-0.504-0.492-0.504c-7.668,0.014-15.335,0.01-23.002,0.01C8.45,25.299,8.283,25.299,8.095,25.299z M20.055,9.375
		c0-0.001,0-0.002,0-0.003c3.853,0,7.708-0.007,11.56,0.01c0.408,0.001,0.506-0.116,0.494-0.507
		c-0.027-0.924-0.002-1.849-0.008-2.773c-0.01-1.269-0.875-2.13-2.141-2.133c-1.445-0.003-2.889-0.005-4.334,0.001
		c-0.787,0.003-1.443-0.282-1.992-0.836c-0.449-0.453-0.904-0.9-1.35-1.355c-0.318-0.325-0.689-0.484-1.152-0.474
		c-0.703,0.016-1.406,0.018-2.109,0c-0.477-0.012-0.855,0.158-1.183,0.493c-0.454,0.467-0.917,0.924-1.38,1.381
		c-0.535,0.526-1.175,0.793-1.931,0.79c-1.419-0.005-2.838,0-4.257,0c-1.366,0-2.198,0.803-2.221,2.164
		C8.037,6.992,8.045,7.852,8.044,8.71c0,0.663,0,0.664,0.646,0.664C12.478,9.375,16.267,9.375,20.055,9.375z M33.924,38.666
		c0.012-0.025,0.023-0.051,0.035-0.076c-0.574-0.412-1.145-0.832-1.725-1.234c-0.074-0.053-0.201-0.039-0.303-0.039
		c-7.684-0.002-15.365-0.002-23.047,0c-0.103,0-0.229-0.014-0.304,0.037c-0.58,0.402-1.15,0.82-1.723,1.234
		c0.014,0.025,0.027,0.051,0.041,0.078C15.907,38.666,24.916,38.666,33.924,38.666z M10.514,35.928
		c0.01,0.023,0.02,0.047,0.029,0.072c6.572,0,13.145,0,19.844,0c-0.586-0.43-1.063-0.805-1.566-1.141
		c-0.182-0.121-0.424-0.209-0.639-0.213c-1.133-0.021-2.264-0.012-3.398-0.014c-3.982,0-7.966-0.002-11.95,0.004
		c-0.217,0-0.478-0.02-0.643,0.088C11.614,35.098,11.07,35.521,10.514,35.928z"/>
	<path fill-rule="evenodd" clip-rule="evenodd" d="M10.114,20.076c-0.582,0.01-0.89-0.494-0.651-0.926
		c0.049-0.088,0.123-0.167,0.196-0.24c1.091-1.094,2.183-2.188,3.278-3.277c0.314-0.314,0.701-0.344,0.967-0.09
		c0.252,0.239,0.295,0.609,0.039,0.871c-1.165,1.186-2.343,2.358-3.524,3.527C10.325,20.031,10.167,20.054,10.114,20.076z"/>
	<path fill-rule="evenodd" clip-rule="evenodd" d="M30.15,18.605c0.199,0.162,0.463,0.273,0.52,0.449
		c0.064,0.211,0.033,0.537-0.096,0.707c-0.289,0.381-0.662,0.695-1.004,1.037c-0.551,0.553-1.102,1.106-1.656,1.659
		c-0.354,0.352-0.75,0.389-1.023,0.104c-0.277-0.285-0.244-0.645,0.102-0.992c0.863-0.868,1.727-1.735,2.6-2.593
		C29.732,18.837,29.924,18.752,30.15,18.605z"/>
	<path fill-rule="evenodd" clip-rule="evenodd" d="M13.521,12.645c-0.146,0.234-0.221,0.419-0.349,0.549
		c-0.866,0.882-1.741,1.755-2.618,2.626c-0.332,0.329-0.727,0.352-0.996,0.072s-0.244-0.63,0.086-0.963
		c0.88-0.887,1.767-1.766,2.646-2.652c0.227-0.229,0.503-0.332,0.772-0.174C13.248,12.211,13.36,12.447,13.521,12.645z"/>
	<path fill-rule="evenodd" clip-rule="evenodd" d="M16.892,12.001c0.133,0.1,0.372,0.193,0.444,0.359
		c0.079,0.184,0.087,0.496-0.021,0.641c-0.269,0.359-0.602,0.677-0.947,0.967c-0.242,0.203-0.539,0.17-0.779-0.051
		c-0.226-0.207-0.313-0.504-0.128-0.734c0.313-0.389,0.691-0.727,1.054-1.072C16.579,12.048,16.706,12.052,16.892,12.001z"/>
	<path fill-rule="evenodd" clip-rule="evenodd" d="M14.669,15.43c-0.331-0.004-0.61-0.292-0.615-0.633
		c-0.004-0.376,0.368-0.761,0.741-0.767c0.353-0.004,0.645,0.292,0.637,0.646C15.424,15.046,15.031,15.434,14.669,15.43z"/>
	<path fill-rule="evenodd" clip-rule="evenodd" d="M12.072,31.959c-1.461,0-2.625-1.162-2.625-2.621
		c0-1.471,1.144-2.621,2.614-2.629c1.473-0.008,2.674,1.184,2.662,2.637C14.711,30.795,13.529,31.961,12.072,31.959z M10.728,29.324
		c-0.003,0.754,0.59,1.365,1.341,1.381c0.729,0.014,1.367-0.621,1.366-1.361c0-0.752-0.606-1.373-1.346-1.381
		C11.352,27.955,10.731,28.576,10.728,29.324z"/>
	<path fill-rule="evenodd" clip-rule="evenodd" d="M25.447,29.305c0.02-1.49,1.189-2.623,2.682-2.598
		c1.441,0.023,2.582,1.197,2.566,2.637c-0.016,1.514-1.18,2.637-2.703,2.611C26.557,31.932,25.43,30.756,25.447,29.305z
		 M28.074,30.705c0.73-0.004,1.367-0.645,1.365-1.375s-0.643-1.367-1.373-1.367c-0.729,0.002-1.369,0.645-1.367,1.373
		C26.703,30.064,27.35,30.709,28.074,30.705z"/>
	<path fill-rule="evenodd" clip-rule="evenodd" d="M20.073,7.958c-1.46-0.005-2.635-1.168-2.642-2.616
		c-0.007-1.444,1.226-2.672,2.662-2.653c1.467,0.019,2.612,1.203,2.606,2.693C22.693,6.806,21.514,7.963,20.073,7.958z M21.418,5.38
		c0.023-0.766-0.557-1.393-1.306-1.41c-0.746-0.018-1.38,0.586-1.399,1.333c-0.02,0.733,0.567,1.355,1.301,1.38
		C20.789,6.71,21.396,6.146,21.418,5.38z"/>
</g>
</svg>
