<?xml version="1.0" encoding="utf-8"?>
<!-- Generator: Adobe Illustrator 16.0.0, SVG Export Plug-In . SVG Version: 6.00 Build 0)  -->
<!DOCTYPE svg PUBLIC "-//W3C//DTD SVG 1.1//EN" "http://www.w3.org/Graphics/SVG/1.1/DTD/svg11.dtd">
<svg version="1.1" id="Layer_1" xmlns="http://www.w3.org/2000/svg" xmlns:xlink="http://www.w3.org/1999/xlink" x="0px" y="0px"
	 width="27px" height="27px" viewBox="0 0 27 27" enable-background="new 0 0 27 27" xml:space="preserve">
<g>
	<path fill-rule="evenodd" clip-rule="evenodd" d="M5.311,13.47c0-3.391,0.007-6.779-0.002-10.168c0-1.239,0.488-2.215,1.556-2.871
		C7.392,0.111,7.972,0,8.588,0.001c3.281,0.003,6.562-0.008,9.841,0.004c1.915,0,3.26,1.332,3.26,3.26c0,5.877,0,11.75,0,17.63
		c0,1.081,0.026,2.188-0.027,3.271c-0.078,1.477-1.344,2.697-2.806,2.813c-0.358,0.028-0.727,0.015-1.096,0.016
		c-3.071,0.004-6.137,0.012-9.208-0.002c-1.626-0.005-2.875-1.007-3.178-2.555c-0.053-0.257-0.057-0.535-0.058-0.799
		C5.309,20.251,5.311,16.861,5.311,13.47z M6.759,13.496c0,3.395-0.003,6.793,0,10.195c0,1.187,0.686,1.865,1.873,1.866
		c3.255,0.004,6.508,0.004,9.762,0c1.16-0.001,1.846-0.706,1.846-1.866c0-6.793,0-13.586,0-20.387c0-1.163-0.686-1.857-1.846-1.858
		c-3.27-0.004-6.545-0.004-9.815-0.002c-1.121,0-1.82,0.711-1.82,1.832C6.759,6.685,6.759,10.092,6.759,13.496z"/>
	<path fill-rule="evenodd" clip-rule="evenodd" d="M13.504,2.762c0.539,0,1.066-0.001,1.607,0.001
		c0.462,0.007,0.804,0.301,0.804,0.723c0,0.416-0.343,0.725-0.791,0.725c-1.081,0.001-2.153,0-3.223,0
		c-0.48,0-0.817-0.306-0.812-0.736c0.007-0.411,0.337-0.709,0.809-0.713C12.428,2.761,12.969,2.762,13.504,2.762z"/>
	<path fill-rule="evenodd" clip-rule="evenodd" d="M14.702,23.635c-0.001,0.663-0.538,1.19-1.219,1.19
		c-0.654,0-1.186-0.527-1.187-1.187c0-0.686,0.539-1.214,1.2-1.219C14.162,22.413,14.702,22.953,14.702,23.635z"/>
</g>
</svg>
