<?xml version="1.0" encoding="utf-8"?>
<!-- Generator: Adobe Illustrator 16.0.0, SVG Export Plug-In . SVG Version: 6.00 Build 0)  -->
<!DOCTYPE svg PUBLIC "-//W3C//DTD SVG 1.1//EN" "http://www.w3.org/Graphics/SVG/1.1/DTD/svg11.dtd">
<svg version="1.1" id="Layer_1" xmlns="http://www.w3.org/2000/svg" xmlns:xlink="http://www.w3.org/1999/xlink" x="0px" y="0px"
	 width="27px" height="27px" viewBox="0 0 27 27" enable-background="new 0 0 27 27" xml:space="preserve">
<g>
	<path d="M24.368,26.965c0,0,0,0-0.002,0H2.632c-0.221,0-0.433-0.093-0.58-0.258c-0.149-0.165-0.22-0.386-0.197-0.605L3.76,7.93
		C3.802,7.532,4.137,7.23,4.537,7.23h17.925c0.4,0,0.736,0.302,0.777,0.699l1.9,18.131c0.008,0.04,0.01,0.082,0.01,0.121
		C25.149,26.615,24.8,26.965,24.368,26.965z M3.5,25.402h19.999l-1.74-16.609H5.242L3.5,25.402z"/>
</g>
<g>
	<path d="M13.351,0.035c2.076,0,3.805,1.595,3.979,3.651c0.01,0.049,0.016,0.101,0.016,0.153v8.091c0,0.433-0.352,0.784-0.783,0.784
		c-0.434,0-0.785-0.351-0.785-0.784V3.935c-0.002-0.017-0.004-0.033-0.004-0.05c-0.076-1.279-1.139-2.281-2.422-2.281
		c-1.284,0-2.347,1.002-2.422,2.281c-0.001,0.017-0.003,0.033-0.005,0.049v7.997c0,0.433-0.351,0.784-0.783,0.784
		c-0.434,0-0.785-0.351-0.785-0.784V3.839c0-0.052,0.006-0.103,0.016-0.152C9.544,1.631,11.273,0.035,13.351,0.035z"/>
</g>
<path d="M6.996,21.692H6.259c-0.433,0-0.784,0.351-0.784,0.783c0,0.434,0.352,0.785,0.784,0.785h13.363
	c0.027,0,0.055-0.002,0.082-0.005h0.736c0.434,0,0.785-0.351,0.785-0.784c0-0.433-0.352-0.784-0.785-0.784H7.078
	C7.05,21.688,7.023,21.689,6.996,21.692z"/>
</svg>
