<?xml version="1.0" encoding="utf-8"?>
<!-- Generator: Adobe Illustrator 16.0.0, SVG Export Plug-In . SVG Version: 6.00 Build 0)  -->
<!DOCTYPE svg PUBLIC "-//W3C//DTD SVG 1.1//EN" "http://www.w3.org/Graphics/SVG/1.1/DTD/svg11.dtd">
<svg version="1.1" id="Layer_1" xmlns="http://www.w3.org/2000/svg" xmlns:xlink="http://www.w3.org/1999/xlink" x="0px" y="0px"
	 width="27px" height="27px" viewBox="0 0 27 27" enable-background="new 0 0 27 27" xml:space="preserve">
<path d="M13.898,1.546c0.209,0,0.423,0.006,0.637,0.018c3.955,0.231,7.39,3.372,7.987,7.308c0.049,0.318,0.078,0.654,0.109,1.01
	c0.013,0.143,0.025,0.289,0.04,0.438c-0.049,1.919-0.671,3.676-1.899,5.365c-1.818,2.502-3.687,5.032-5.495,7.48
	c-0.459,0.623-0.92,1.246-1.38,1.87c-0.319-0.434-0.638-0.866-0.958-1.299c-1.952-2.644-3.97-5.377-5.938-8.075
	c-1.006-1.38-1.606-2.844-1.782-4.351c-0.142-1.224-0.057-2.389,0.252-3.464c0.312-1.08,0.86-2.103,1.631-3.04
	c0.895-1.088,1.921-1.914,3.048-2.453C11.272,1.818,12.532,1.546,13.898,1.546 M13.898,0C10.689,0,8,1.283,5.909,3.825
	c-1.827,2.22-2.558,4.807-2.225,7.664c0.219,1.876,0.962,3.565,2.068,5.083c2.455,3.367,4.935,6.715,7.409,10.067
	c0.2,0.271,0.468,0.406,0.736,0.406c0.27,0,0.537-0.136,0.735-0.406c2.468-3.346,4.946-6.683,7.39-10.046
	c1.366-1.88,2.158-3.977,2.197-6.335c-0.056-0.539-0.088-1.083-0.17-1.62c-0.705-4.645-4.723-8.343-9.425-8.617
	C14.381,0.007,14.138,0,13.898,0L13.898,0z"/>
<path d="M13.896,7.133c0.853,0.001,1.652,0.33,2.252,0.927c0.601,0.596,0.93,1.389,0.93,2.231c0,1.733-1.414,3.148-3.153,3.156
	h-0.014c-1.742-0.001-3.159-1.417-3.16-3.156c0-1.732,1.402-3.148,3.126-3.158H13.896 M13.895,5.588h-0.023
	C11.298,5.6,9.205,7.71,9.206,10.291c0,2.592,2.112,4.701,4.707,4.701h0.018c2.588-0.01,4.695-2.118,4.695-4.701
	c0-1.257-0.491-2.438-1.386-3.327C16.346,6.076,15.158,5.588,13.895,5.588L13.895,5.588z"/>
</svg>
