<?xml version="1.0" encoding="utf-8"?>
<!-- Generator: Adobe Illustrator 16.0.0, SVG Export Plug-In . SVG Version: 6.00 Build 0)  -->
<!DOCTYPE svg PUBLIC "-//W3C//DTD SVG 1.1//EN" "http://www.w3.org/Graphics/SVG/1.1/DTD/svg11.dtd">
<svg version="1.1" id="Layer_1" xmlns="http://www.w3.org/2000/svg" xmlns:xlink="http://www.w3.org/1999/xlink" x="0px" y="0px"
	 width="27px" height="27px" viewBox="0 0 27 27" enable-background="new 0 0 27 27" xml:space="preserve">
<g>
	<path fill="#010101" d="M24.74,4.346H2.26C1.014,4.346,0,5.36,0,6.607v13.786c0,1.249,1.014,2.26,2.26,2.26h22.48
		c1.252,0,2.26-1.011,2.26-2.26V6.607C27,5.36,25.994,4.346,24.74,4.346z M24.141,5.991l-8.917,7.907
		c-0.776,0.691-1.351,1.038-1.724,1.038s-0.947-0.347-1.724-1.038L2.859,5.991H24.141z M1.708,19.84V7.483l6.945,6.093L1.708,19.84z
		 M2.926,21.014l6.985-6.204l1.143,1.002c0.664,0.582,1.481,0.879,2.446,0.879c0.97,0,1.782-0.297,2.449-0.879l1.145-1.002
		l6.982,6.204H2.926z M25.294,19.84l-6.947-6.264l6.945-6.093V19.84H25.294z"/>
</g>
</svg>
