<?xml version="1.0" encoding="utf-8"?>
<!-- Generator: Adobe Illustrator 16.0.0, SVG Export Plug-In . SVG Version: 6.00 Build 0)  -->
<!DOCTYPE svg PUBLIC "-//W3C//DTD SVG 1.1//EN" "http://www.w3.org/Graphics/SVG/1.1/DTD/svg11.dtd">
<svg version="1.1" id="Layer_1" xmlns="http://www.w3.org/2000/svg" xmlns:xlink="http://www.w3.org/1999/xlink" x="0px" y="0px"
	 width="441.428px" height="42px" viewBox="0 0 441.428 42" enable-background="new 0 0 441.428 42" xml:space="preserve">
<g>
	<path fill-rule="evenodd" clip-rule="evenodd" d="M63.082,38.147c3.456,0.004,6.911,0.008,10.366,0.012c1.119,0,2.237,0,3.406,0
		c0-1.97,0-3.914,0-5.88c0.453,0,0.854,0,1.291,0c0,1.955,0,3.889,0,5.852c0.45,0,0.866,0,1.313,0c0-2.379,0-4.762,0-7.208
		c-0.135,0-0.278,0-0.421,0c-4.289,0-8.578,0-12.868,0c-0.149,0-0.322,0.046-0.445-0.013c-0.218-0.102-0.495-0.227-0.583-0.417
		c-0.078-0.169,0.05-0.446,0.121-0.665c0.03-0.092,0.146-0.158,0.223-0.235c1.391-1.392,2.782-2.781,4.171-4.173
		c0.104-0.104,0.202-0.212,0.349-0.368c-0.177-0.014-0.292-0.031-0.405-0.031c-1.025-0.002-2.05-0.006-3.074,0.001
		c-0.343,0.002-0.625-0.086-0.761-0.43c-0.133-0.335,0.044-0.572,0.268-0.795c1.633-1.632,3.264-3.265,4.899-4.894
		c0.115-0.116,0.257-0.203,0.387-0.302c-0.02-0.033-0.04-0.068-0.06-0.103c-0.099-0.012-0.197-0.034-0.296-0.034
		c-0.819-0.003-1.639-0.006-2.458,0.001c-0.341,0.003-0.623-0.079-0.767-0.421c-0.143-0.337,0.03-0.573,0.254-0.796
		c1.42-1.419,2.838-2.841,4.263-4.255c0.113-0.113,0.271-0.18,0.409-0.268c-0.034-0.055-0.068-0.109-0.102-0.164
		c-0.66,0-1.32,0.001-1.981-0.002c-0.149,0-0.305,0.007-0.446-0.031c-0.443-0.12-0.616-0.599-0.355-0.977
		c0.083-0.122,0.2-0.223,0.306-0.329c2.675-2.676,5.35-5.352,8.026-8.027c0.604-0.605,0.839-0.586,1.445,0.022
		c2.593,2.604,5.193,5.199,7.792,7.797c0.135,0.135,0.272,0.269,0.404,0.407c0.202,0.212,0.309,0.451,0.175,0.743
		c-0.128,0.282-0.356,0.397-0.657,0.397c-0.724-0.002-1.447-0.001-2.284-0.001c0.162,0.174,0.262,0.288,0.369,0.395
		c1.409,1.41,2.82,2.82,4.231,4.229c0.028,0.029,0.057,0.058,0.086,0.088c0.211,0.216,0.362,0.45,0.231,0.767
		c-0.133,0.324-0.391,0.427-0.722,0.425c-0.792-0.006-1.584-0.001-2.376-0.001c-0.134,0.001-0.267,0-0.503,0
		c0.177,0.189,0.288,0.315,0.406,0.435c1.632,1.633,3.265,3.264,4.896,4.898c0.362,0.362,0.44,0.701,0.164,0.96
		c-0.159,0.15-0.428,0.247-0.649,0.252c-1.132,0.025-2.265,0.012-3.5,0.012c0.148,0.163,0.237,0.27,0.335,0.367
		c1.408,1.411,2.818,2.821,4.229,4.231c0.246,0.245,0.504,0.484,0.344,0.884c-0.166,0.411-0.518,0.435-0.888,0.421
		c-0.106-0.005-0.214,0.009-0.346,0.016c0,2.398,0,4.78,0,7.213c4.57,0,9.136,0,13.757,0c0,0.468,0,0.888,0,1.309
		c-13.989,0-27.979,0-41.967,0C63.082,39.022,63.082,38.585,63.082,38.147z M69.917,17.177c1.015,0,1.928,0.004,2.842-0.003
		c0.345-0.003,0.621,0.09,0.754,0.436c0.13,0.336-0.042,0.58-0.263,0.8c-1.663,1.659-3.328,3.315-4.991,4.975
		c-0.09,0.09-0.167,0.191-0.302,0.348c1.215,0,2.345,0.006,3.475-0.002c0.343-0.002,0.624,0.078,0.765,0.422
		c0.145,0.352-0.04,0.602-0.272,0.833c-1.451,1.445-2.903,2.892-4.353,4.339c-0.078,0.078-0.142,0.17-0.229,0.275
		c7.678,0,15.3,0,22.922,0c0.025-0.037,0.05-0.072,0.076-0.109c-0.131-0.098-0.276-0.181-0.391-0.294
		c-1.433-1.427-2.861-2.857-4.29-4.286c-0.217-0.217-0.35-0.456-0.213-0.77c0.132-0.303,0.376-0.409,0.691-0.408
		c0.874,0.003,1.749,0.001,2.623,0.001c0.281,0,0.561,0,0.944,0c-0.182-0.192-0.287-0.31-0.398-0.422
		c-1.641-1.641-3.283-3.284-4.925-4.925c-0.223-0.223-0.395-0.462-0.25-0.798c0.146-0.341,0.428-0.421,0.769-0.416
		c0.751,0.009,1.503,0.003,2.254,0.004c0.167,0,0.333,0,0.499,0c0.019-0.045,0.037-0.091,0.055-0.136
		c-0.138-0.111-0.288-0.21-0.413-0.334c-1.394-1.388-2.783-2.781-4.175-4.169c-0.241-0.241-0.456-0.484-0.294-0.858
		c0.158-0.365,0.468-0.411,0.817-0.407c0.675,0.009,1.35,0.002,1.964,0.002c-2.285-2.287-4.572-4.578-6.783-6.793
		c-2.241,2.24-4.522,4.52-6.796,6.792c0.639,0,1.332,0.006,2.023-0.003c0.342-0.004,0.624,0.076,0.767,0.419
		c0.146,0.352-0.037,0.602-0.269,0.833c-1.451,1.446-2.903,2.893-4.353,4.339C70.121,16.937,70.055,17.021,69.917,17.177z
		 M80.8,30.938c0,2.426,0,4.809,0,7.198c2.191,0,4.354,0,6.566,0c0-1.967,0-3.908,0-5.849c0.45,0,0.852,0,1.286,0
		c0,1.964,0,3.896,0,5.837c0.46,0,0.885,0,1.295,0c0-2.418,0-4.799,0-7.187C86.887,30.938,83.86,30.938,80.8,30.938z"/>
	<path fill-rule="evenodd" clip-rule="evenodd" d="M100.857,29.644c-0.172-0.185-0.26-0.283-0.353-0.377
		c-1.419-1.421-2.838-2.841-4.258-4.261c-0.239-0.238-0.466-0.479-0.313-0.855c0.157-0.391,0.487-0.422,0.848-0.419
		c1.103,0.007,2.205,0.002,3.404,0.002c-0.153-0.168-0.245-0.276-0.344-0.375c-1.631-1.633-3.267-3.263-4.892-4.902
		c-0.157-0.158-0.31-0.364-0.361-0.572c-0.092-0.376,0.249-0.701,0.702-0.705c0.941-0.007,1.883-0.002,2.931-0.002
		c-0.161-0.175-0.26-0.291-0.368-0.398c-1.409-1.412-2.819-2.822-4.229-4.231c-0.238-0.237-0.471-0.476-0.315-0.854
		c0.158-0.386,0.484-0.429,0.847-0.424c0.665,0.012,1.332,0.004,1.95,0.004c-2.275-2.271-4.557-4.548-6.857-6.845
		c-0.829,0.855-1.735,1.791-2.663,2.75c-0.367-0.396-0.642-0.691-0.958-1.033c0.328-0.32,0.69-0.668,1.045-1.022
		c0.697-0.693,1.388-1.394,2.088-2.085c0.394-0.39,0.743-0.38,1.133,0.011c2.71,2.717,5.421,5.435,8.131,8.151
		c0.078,0.077,0.191,0.142,0.224,0.235c0.08,0.228,0.195,0.481,0.16,0.704c-0.046,0.295-0.324,0.419-0.625,0.42
		c-0.6,0.004-1.202,0.002-1.803,0.003c-0.132,0-0.265,0-0.493,0c0.164,0.179,0.264,0.297,0.374,0.407
		c1.428,1.431,2.859,2.858,4.286,4.29c0.351,0.353,0.414,0.706,0.125,0.963c-0.155,0.138-0.408,0.224-0.62,0.231
		c-0.792,0.026-1.584,0.009-2.376,0.01c-0.131,0-0.262,0.012-0.467,0.021c0.156,0.168,0.26,0.285,0.371,0.396
		c1.622,1.623,3.245,3.246,4.868,4.867c0.239,0.239,0.468,0.477,0.311,0.855c-0.162,0.386-0.49,0.423-0.849,0.42
		c-0.97-0.007-1.94-0.003-2.91-0.003c-0.132,0.001-0.263,0.013-0.474,0.021c0.152,0.166,0.254,0.283,0.364,0.394
		c1.399,1.401,2.799,2.802,4.201,4.201c0.237,0.237,0.478,0.469,0.33,0.852c-0.159,0.411-0.504,0.438-0.878,0.438
		c-2.609-0.004-5.218-0.002-7.827-0.003c-0.12,0-0.24,0-0.38,0c0-0.44,0-0.842,0-1.278C96.216,29.644,98.478,29.644,100.857,29.644z
		"/>
	<path fill-rule="evenodd" clip-rule="evenodd" d="M79.428,12.541c-0.427,0-0.817,0-1.23,0c0-0.422,0-0.822,0-1.245
		c0.42,0,0.821,0,1.23,0C79.428,11.726,79.428,12.137,79.428,12.541z"/>
	<path fill-rule="evenodd" clip-rule="evenodd" d="M78.19,18.434c0-0.418,0-0.809,0-1.229c0.411,0,0.813,0,1.244,0
		c0,0.397,0,0.798,0,1.229C79.036,18.434,78.635,18.434,78.19,18.434z"/>
	<path fill-rule="evenodd" clip-rule="evenodd" d="M78.195,24.987c0-0.404,0-0.797,0-1.221c0.397,0,0.798,0,1.234,0
		c0,0.384,0,0.785,0,1.221C79.045,24.987,78.644,24.987,78.195,24.987z"/>
</g>
<g>
	<path fill-rule="evenodd" clip-rule="evenodd" d="M127.1,40.032c0-0.438,0-0.874,0-1.311c0.551,0,1.102,0,1.699,0
		c-0.282-0.592-0.517-1.158-0.308-1.742c0.196-0.551,0.5-1.063,0.774-1.631c-1.157-1.454-1.157-2.173,0.081-3.867
		c-0.536-0.524-0.912-1.146-0.917-1.928c-0.004-0.795,0.379-1.43,0.92-1.964c-1.244-1.593-1.243-2.26-0.014-3.966
		c-0.028-0.037-0.056-0.081-0.091-0.12c-1.479-1.674-0.81-3.813,1.37-4.398c0.178-0.048,0.351-0.148,0.502-0.258
		c1.668-1.211,3.331-2.43,4.995-3.646c3.671-2.682,7.34-5.366,11.016-8.042c0.235-0.171,0.33-0.35,0.321-0.642
		c-0.021-0.737-0.005-1.475-0.007-2.212c0-0.099-0.023-0.197-0.04-0.335c-0.154,0.109-0.266,0.184-0.375,0.264
		c-5.943,4.409-11.88,8.825-17.835,13.217c-0.53,0.391-0.945,0.754-0.801,1.471c0.004,0.021-0.02,0.047-0.054,0.125
		c-0.396,0-0.815,0-1.235,0c0-0.492,0-0.984,0-1.476c0.179-0.183,0.338-0.393,0.541-0.543c4.3-3.199,8.604-6.393,12.911-9.585
		c2.454-1.818,4.912-3.63,7.369-5.446c0.109,0,0.218,0,0.328,0c0.113,0.074,0.229,0.144,0.337,0.223
		c3.344,2.482,6.687,4.964,10.03,7.447c0.62,0.461,1.241,0.92,1.904,1.412c0-2.195,0-4.324,0-6.438c-0.889,0-1.742,0-2.61,0
		c0,0.348,0,0.661,0,0.975c0,0.309,0,0.619,0,0.933c-0.455,0-0.857,0-1.258,0c-0.012-0.066-0.026-0.105-0.026-0.144
		c-0.001-0.765-0.005-1.53-0.001-2.294c0.002-0.56,0.234-0.786,0.804-0.788c1.175-0.002,2.35-0.001,3.524,0
		c0.691,0,0.89,0.205,0.891,0.91c0,2.486,0.005,4.972-0.005,7.457c-0.001,0.276,0.085,0.444,0.307,0.607
		c2.134,1.569,4.26,3.148,6.383,4.733c0.202,0.151,0.362,0.359,0.542,0.542c0,0.492,0,0.984,0,1.476c-0.42,0-0.839,0-1.299,0
		c0-0.228-0.02-0.404,0.004-0.575c0.043-0.311-0.094-0.492-0.339-0.673c-6.111-4.525-12.217-9.057-18.324-13.587
		c-0.104-0.077-0.216-0.141-0.382-0.25c0,0.871,0.019,1.673-0.009,2.474c-0.012,0.354,0.099,0.565,0.387,0.773
		c5.308,3.865,10.607,7.743,15.914,11.611c0.201,0.147,0.451,0.249,0.693,0.314c1.4,0.376,2.348,1.892,1.915,3.187
		c-0.16,0.477-0.485,0.897-0.758,1.386c0.481,0.485,0.864,1.104,0.869,1.887c0.005,0.796-0.393,1.422-0.92,1.966
		c1.24,1.547,1.24,2.262,0.002,3.974c0.536,0.525,0.913,1.148,0.918,1.929c0.006,0.795-0.39,1.424-0.938,1.98
		c0.958,0.967,1.233,2.033,0.565,3.278c0.611,0,1.156,0,1.701,0c0,0.437,0,0.873,0,1.311c-0.136-0.004-0.273-0.012-0.409-0.012
		c-13.717-0.001-27.434-0.001-41.15,0C127.373,40.021,127.237,40.028,127.1,40.032z M159.264,26.919c1.208,0,2.397,0,3.653,0
		c-0.519-0.903-0.5-1.753-0.013-2.613c-9.902,0-19.743,0-29.546,0c0.097,0.448,0.266,0.882,0.265,1.315
		c-0.001,0.428-0.175,0.856-0.281,1.321c1.184,0,2.366,0,3.556,0c0,0.439,0,0.841,0,1.276c-1.208,0-2.391,0-3.646,0
		c0.503,0.895,0.518,1.754-0.021,2.665c1.291,0,2.484,0,3.672,0c0,0.44,0,0.834,0,1.277c-1.209,0-2.398,0-3.655,0
		c0.522,0.899,0.501,1.749-0.002,2.646c1.268,0,2.46,0,3.648,0c0,0.45,0,0.853,0,1.288c-1.21,0-2.392,0-3.652,0
		c0.544,0.892,0.494,1.751,0.035,2.608c1.693,0,3.325,0,4.984,0c0-0.275,0-0.52,0-0.763c0-3.812,0-7.622,0-11.434
		c0-0.677,0.206-0.888,0.87-0.888c2.445-0.002,4.89-0.002,7.335-0.001c0.763,0.001,0.948,0.185,0.948,0.936
		c0,3.892,0,7.786,0,11.679c0,0.158,0,0.315,0,0.471c5.184,0,10.309,0,15.489,0c-0.501-0.878-0.493-1.727,0.017-2.626
		c-4.766,0-9.454,0-14.139,0c0-0.451,0-0.853,0-1.289c4.707,0,9.385,0,14.132,0c-0.518-0.89-0.492-1.75-0.002-2.647
		c-1.267,0-2.45,0-3.644,0c0-0.438,0-0.84,0-1.275c1.208,0,2.391,0,3.648,0c-0.512-0.895-0.506-1.756,0.005-2.667
		c-1.275,0-2.469,0-3.658,0C159.264,27.756,159.264,27.365,159.264,26.919z M163.104,19.039c-0.141-0.114-0.21-0.175-0.283-0.229
		c-4.826-3.529-9.656-7.056-14.476-10.593c-0.234-0.171-0.369-0.108-0.563,0.034c-4.78,3.5-9.564,6.996-14.347,10.493
		c-0.104,0.076-0.199,0.163-0.358,0.294C143.108,19.039,153.057,19.039,163.104,19.039z M133.259,22.968c9.915,0,19.752,0,29.6,0
		c-0.448-1.242-0.458-1.281-0.011-2.598c-9.846,0-19.684,0-29.584,0C133.752,21.241,133.768,22.092,133.259,22.968z M146.113,26.934
		c-2.208,0-4.371,0-6.542,0c0,3.938,0,7.847,0,11.765c2.197,0,4.369,0,6.542,0C146.113,34.761,146.113,30.86,146.113,26.934z
		 M132.358,21.67c-0.004-0.829-0.5-1.323-1.326-1.322c-0.825,0-1.322,0.499-1.321,1.324c0,0.84,0.51,1.333,1.365,1.323
		C131.869,22.985,132.363,22.476,132.358,21.67z M166.456,21.671c0.001-0.824-0.498-1.323-1.323-1.323
		c-0.822,0-1.324,0.501-1.324,1.324c0,0.824,0.5,1.323,1.324,1.322C165.96,22.993,166.455,22.499,166.456,21.671z M131.024,26.931
		c0.823,0.004,1.332-0.499,1.335-1.315c0.003-0.827-0.494-1.33-1.315-1.331c-0.833-0.001-1.327,0.484-1.331,1.312
		C129.708,26.424,130.202,26.927,131.024,26.931z M163.81,25.54c-0.018,0.848,0.455,1.37,1.258,1.39
		c0.841,0.021,1.369-0.457,1.389-1.259c0.021-0.859-0.464-1.376-1.3-1.388C164.343,24.272,163.826,24.754,163.81,25.54z
		 M131.034,28.217c-0.822,0-1.323,0.502-1.323,1.324c0,0.825,0.5,1.323,1.324,1.322c0.827-0.002,1.321-0.496,1.322-1.323
		C132.358,28.716,131.859,28.217,131.034,28.217z M165.156,28.217c-0.835-0.004-1.337,0.48-1.347,1.301
		c-0.01,0.827,0.488,1.342,1.3,1.347c0.833,0.005,1.338-0.482,1.349-1.302C166.468,28.737,165.968,28.221,165.156,28.217z
		 M131.021,34.8c0.828,0.004,1.334-0.493,1.338-1.312c0.004-0.83-0.487-1.328-1.312-1.337c-0.826-0.009-1.335,0.492-1.335,1.31
		C129.711,34.294,130.2,34.795,131.021,34.8z M166.458,33.479c-0.003-0.83-0.496-1.327-1.32-1.328
		c-0.827-0.002-1.327,0.495-1.328,1.317c-0.001,0.843,0.505,1.339,1.359,1.331C165.963,34.791,166.459,34.283,166.458,33.479z
		 M132.359,37.408c0.002-0.818-0.505-1.325-1.324-1.322c-0.829,0.002-1.322,0.495-1.324,1.322c-0.003,0.821,0.503,1.327,1.322,1.325
		C131.859,38.731,132.356,38.234,132.359,37.408z M166.458,37.423c0.004-0.829-0.491-1.333-1.311-1.335
		c-0.835-0.003-1.331,0.481-1.336,1.307c-0.006,0.831,0.486,1.335,1.306,1.339C165.942,38.738,166.453,38.238,166.458,37.423z"/>
	<path fill-rule="evenodd" clip-rule="evenodd" fill="#FFFFFF" d="M127.1,40.032c0.137-0.004,0.272-0.012,0.409-0.012
		c13.717-0.001,27.434-0.001,41.15,0c0.136,0,0.273,0.008,0.409,0.012c-0.109,0.027-0.218,0.079-0.328,0.079
		c-1.665,0.006-3.33,0.004-4.995,0.004c-12.092,0-24.185,0-36.277-0.004C127.346,40.111,127.223,40.06,127.1,40.032z"/>
	<path fill-rule="evenodd" clip-rule="evenodd" d="M153.372,25.619c1.242,0,2.485-0.002,3.728,0.001
		c0.566,0.001,0.806,0.232,0.807,0.786c0.003,1.871,0.004,3.742,0,5.613c-0.001,0.541-0.237,0.785-0.769,0.786
		c-2.54,0.004-5.08,0.003-7.62-0.001c-0.53,0-0.763-0.244-0.764-0.788c-0.003-1.87-0.004-3.742-0.001-5.612
		c0-0.549,0.247-0.785,0.81-0.786C150.832,25.616,152.102,25.618,153.372,25.619L153.372,25.619z M150.067,26.923
		c0,1.553,0,3.058,0,4.573c0.88,0,1.732,0,2.585,0c0-1.543,0-3.059,0-4.573C151.774,26.923,150.933,26.923,150.067,26.923z
		 M156.597,26.927c-0.876,0-1.729,0-2.602,0c0,1.528,0,3.034,0,4.564c0.893,0,1.744,0,2.602,0"/>
	<path fill-rule="evenodd" clip-rule="evenodd" d="M151.349,14.441c0.009,1.7-1.538,3.266-3.239,3.283
		c-1.714,0.016-3.292-1.553-3.291-3.27c0.001-1.699,1.559-3.258,3.258-3.261C149.779,11.191,151.34,12.742,151.349,14.441z
		 M148.085,16.438c1.179,0,1.977-0.796,1.979-1.972c0.002-1.186-0.788-1.986-1.961-1.988c-1.211-0.001-1.998,0.783-1.998,1.993
		C146.104,15.646,146.901,16.439,148.085,16.438z"/>
	<path fill-rule="evenodd" clip-rule="evenodd" d="M143.523,32.775c0-0.41,0-0.802,0-1.223c0.404,0,0.804,0,1.238,0
		c0,0.389,0,0.789,0,1.223C144.372,32.775,143.971,32.775,143.523,32.775z"/>
</g>
<g>
	<path fill-rule="evenodd" clip-rule="evenodd" d="M191.127,35.852c0-0.407,0-0.815,0-1.275c0.72,0,1.422,0,2.174,0
		c-0.074-0.373-0.177-0.687-0.193-1.004c-0.088-1.635-0.13-3.271-0.237-4.903c-0.063-0.96,0.095-1.845,0.64-2.639
		c0.527-0.769,0.563-1.49,0.165-2.375c-0.593-1.315-0.753-2.756-0.787-4.2c-0.012-0.459,0.226-0.756,0.608-0.77
		c0.398-0.014,0.652,0.273,0.661,0.761c0.02,1.181,0.2,2.335,0.568,3.459c0.032,0.1,0.076,0.197,0.142,0.363
		c0.194-0.366,0.361-0.681,0.577-1.086c0,1.795,0,3.48,0,5.278c-0.223-0.428-0.399-0.77-0.65-1.252
		c-0.24,0.589-0.594,1.072-0.609,1.566c-0.05,1.608,0,3.221,0.066,4.829c0.023,0.566,0.188,1.13,0.323,1.684
		c0.025,0.107,0.205,0.239,0.323,0.251c0.352,0.033,0.708,0.012,1.097,0.012c-0.025-0.102-0.024-0.186-0.064-0.243
		c-0.42-0.618-0.49-1.303-0.455-2.028c0.034-0.709,0.024-1.421-0.001-2.13c-0.01-0.304,0.096-0.504,0.304-0.709
		c1.583-1.567,3.147-3.151,4.732-4.715c0.403-0.398,0.746-0.821,0.979-1.343c0.205-0.457,0.56-0.604,0.914-0.436
		c0.353,0.169,0.438,0.539,0.229,0.983c-0.057,0.122-0.108,0.246-0.193,0.438c0.87,0.086,1.689,0.197,2.513,0.24
		c1.76,0.091,3.487-0.082,5.153-0.711c0.337-0.127,0.467-0.279,0.482-0.664c0.021-0.509,0.148-1.021,0.292-1.515
		c0.104-0.356,0.43-0.454,0.768-0.353c0.33,0.098,0.538,0.391,0.414,0.695c-0.362,0.889-0.128,1.741,0.036,2.612
		c0.27,1.429,0.599,2.834,1.484,4.032c0.209,0.281,0.468,0.526,0.82,0.918c0.173,1.373,0.383,2.94,0.557,4.513
		c0.038,0.344,0.157,0.442,0.479,0.419c0.31-0.023,0.622-0.006,1.024-0.006c-0.061-0.28-0.047-0.555-0.171-0.731
		c-0.599-0.853-0.529-1.8-0.468-2.757c0.145-2.221,0.753-4.35,1.304-6.487c0.038-0.149,0.23-0.286,0.384-0.374
		c2.616-1.489,4.35-3.673,5.213-6.559c0.098-0.325,0.054-0.533-0.198-0.746c-0.239-0.202-0.452-0.436-0.668-0.665
		c-0.298-0.317-0.314-0.681-0.054-0.945c0.255-0.258,0.637-0.244,0.949,0.04c0.546,0.495,1.062,1.028,1.643,1.477
		c0.882,0.682,1.904,0.845,2.943,0.451c0.697-0.264,1.394-0.196,2.098-0.222c0.108-0.004,0.221-0.014,0.327,0.004
		c0.585,0.102,0.968-0.088,1.199-0.672c0.174-0.438,0.554-0.545,0.899-0.359c0.342,0.184,0.424,0.541,0.203,0.957
		c-0.23,0.433-0.375,1.017-0.739,1.245c-0.358,0.224-0.944,0.096-1.43,0.097c-0.885,0.002-1.75,0.024-2.623,0.284
		c-1.146,0.342-2.272,0.11-3.336-0.515c-0.059,0.16-0.111,0.297-0.159,0.435c-0.976,2.782-2.712,4.956-5.195,6.542
		c-0.167,0.106-0.351,0.296-0.39,0.476c-0.366,1.677-0.719,3.356-1.037,5.043c-0.098,0.52-0.092,1.06-0.109,1.593
		c-0.005,0.169,0.045,0.353,0.113,0.51c0.257,0.593,0.685,1.128,0.497,1.882c3.507,0,6.941,0,10.438,0c0,0.463,0,0.882,0,1.299
		c-8.661,0-17.322,0-25.984,0c0-0.417,0-0.835,0-1.308c3.92,0,7.76,0,11.623,0c-0.167-1.372-0.321-2.686-0.494-3.997
		c-0.022-0.164-0.114-0.337-0.22-0.469c-0.935-1.17-1.593-2.474-1.908-3.941c-0.081-0.38-0.169-0.758-0.262-1.168
		c-1.479,0.593-2.973,0.876-4.513,0.898c-0.331,0.005-0.455,0.127-0.56,0.436c-0.875,2.607-3.807,3.785-6.184,2.497
		c-0.283-0.153-0.545-0.348-0.843-0.54c-0.623,0.627-1.24,1.243-1.849,1.869c-0.069,0.072-0.134,0.189-0.131,0.283
		c0.042,1.33-0.288,2.719,0.598,3.915c0.08,0.107,0.232,0.22,0.354,0.224c0.655,0.022,1.311,0.011,1.967,0.011
		c0.362,0,0.726,0,1.108,0c0,0.474,0,0.883,0,1.29C197.575,35.852,194.352,35.852,191.127,35.852z M199.703,27.323
		c0.788,0.781,2.13,0.981,3.242,0.491c0.852-0.375,1.403-1.013,1.646-1.92c-0.979-0.128-1.896-0.252-2.815-0.363
		c-0.11-0.013-0.267,0.003-0.338,0.071C200.851,26.168,200.279,26.748,199.703,27.323z"/>
	<path fill-rule="evenodd" clip-rule="evenodd" d="M222.173,8.568c-0.061-0.172-0.112-0.309-0.157-0.45
		c-0.225-0.698,0.044-1.298,0.728-1.56c0.626-0.239,1.261-0.206,1.878,0.044c0.398,0.161,0.553,0.498,0.418,0.854
		c-0.129,0.339-0.484,0.466-0.896,0.319c-0.18-0.064-0.355-0.16-0.54-0.181c-0.128-0.014-0.268,0.074-0.402,0.116
		c0.046,0.132,0.054,0.334,0.144,0.38c0.354,0.186,0.732,0.33,1.107,0.472c0.111,0.043,0.244,0.019,0.362,0.045
		c0.354,0.082,0.543,0.31,0.529,0.674c-0.013,0.342-0.279,0.579-0.666,0.582c-1.051,0.009-2.104,0.039-3.153-0.002
		c-3.041-0.113-6.052,0.223-9.064,0.54c-2.524,0.267-5.048,0.563-7.578,0.736c-1.022,0.069-2.064-0.154-3.096-0.252
		c-1.753-0.167-3.503-0.366-5.258-0.501c-1.685-0.131-3.201,1.129-3.442,2.803c-0.476,3.316-0.685,6.651-0.718,10
		c-0.001,0.108,0.003,0.219-0.004,0.327c-0.025,0.391-0.254,0.623-0.612,0.628c-0.377,0.005-0.632-0.233-0.631-0.646
		c0.003-1.052-0.023-2.107,0.054-3.154c0.174-2.34,0.381-4.678,0.615-7.013c0.245-2.423,2.401-4.304,4.836-4.192
		c1.375,0.063,2.746,0.24,4.118,0.372c1.222,0.117,2.442,0.322,3.666,0.341c1.126,0.017,2.257-0.151,3.383-0.258
		c2.052-0.196,4.104-0.382,6.15-0.622c2.499-0.293,5.003-0.42,7.517-0.4C221.688,8.569,221.915,8.568,222.173,8.568z"/>
	<path fill-rule="evenodd" clip-rule="evenodd" d="M228.08,8.893c0.555,0.373,1.085,0.729,1.632,1.096
		c-0.093,0.169-0.181,0.329-0.287,0.521c0.225,0.017,0.408,0.031,0.615,0.047c-0.017,1.046,0.286,1.987,0.95,2.77
		c0.357,0.421,0.807,0.769,1.232,1.127c0.397,0.334,0.507,0.697,0.265,1.012c-0.24,0.312-0.615,0.302-1.047-0.001
		c-1.495-1.054-2.378-2.479-2.658-4.289c-0.026-0.172-0.16-0.368-0.304-0.474c-0.472-0.347-0.977-0.647-1.452-0.99
		c-0.11-0.08-0.154-0.254-0.222-0.387c-0.017-0.033,0.006-0.083-0.004-0.121c-0.223-0.929,0.475-1.377,1.016-1.882
		s1.218-0.713,1.959-0.66c0.339,0.024,0.596,0.314,0.572,0.634c-0.023,0.333-0.197,0.629-0.546,0.597
		C228.994,7.816,228.55,8.307,228.08,8.893z"/>
</g>
<g>
	<g>
		<path fill-rule="evenodd" clip-rule="evenodd" d="M271.797,28.636c0.663-0.16,1.326-0.411,2.004-0.467
			c1.978-0.161,3.519,0.687,4.683,2.249c0.181,0.243,0.345,0.353,0.66,0.349c2.787-0.031,5.199,1.858,6.064,4.734
			c0.365,1.213,0.404,2.44,0.182,3.688c-0.059,0.325-0.251,0.298-0.47,0.299c-2.158,0.001-4.316,0.003-6.475,0.002
			c-9.016-0.002-18.031-0.005-27.046-0.006c-0.38,0-0.761,0-1.14,0c-0.025-2.307,1.822-4.029,4.511-4.247
			c0.098-0.483,0.157-0.985,0.301-1.461c0.768-2.524,2.317-4.287,4.983-4.823c0.581-0.117,0.788-0.333,0.943-0.862
			c0.321-1.097,0.971-2.007,1.872-2.762c-0.055-0.047-0.085-0.094-0.126-0.107c-2.806-0.995-4.82-2.933-6.396-5.382
			c-1.712-2.663-2.747-5.597-3.412-8.672c-0.184-0.85-0.306-1.713-0.445-2.506c2.775,0.439,5.525,0.813,8.165,1.7
			c2.332,0.784,4.555,1.765,6.455,3.371c0.039,0.033,0.088,0.054,0.145,0.087c0.039-0.056,0.075-0.096,0.097-0.144
			c1.547-3.224,4.035-5.528,7.111-7.25c3.021-1.693,6.284-2.696,9.684-3.262c1.222-0.204,2.463-0.307,3.697-0.428
			c0.287-0.028,0.584,0.055,0.998,0.101c-0.236,0.369-0.396,0.66-0.594,0.921c-1.962,2.606-3.536,5.407-4.377,8.586
			c-0.363,1.377-0.361,2.782-0.445,4.184c-0.328,5.499-3.314,9.246-8.597,10.772c-0.784,0.227-1.593,0.37-2.396,0.523
			C271.806,27.941,271.728,28.025,271.797,28.636z M261.538,29.78c-1.812-0.132-3.247,0.564-4.377,1.913
			c-1.12,1.338-1.494,2.93-1.456,4.684c-0.943-0.26-1.817-0.309-2.652,0.135c-0.831,0.441-1.37,1.126-1.679,2.017
			c11.085,0,22.125,0,33.17,0c0.143-1.254-0.018-2.425-0.518-3.552c-0.922-2.079-3.109-3.641-5.514-3.255
			c-0.136,0.022-0.372-0.144-0.452-0.285c-1.393-2.449-4.436-3.243-6.689-1.262c-0.189,0.167-0.392,0.319-0.588,0.479
			c-0.036-0.049-0.049-0.059-0.051-0.069c-0.009-0.094-0.02-0.189-0.025-0.283c-0.082-1.322-0.39-2.567-1.278-3.598
			c-1.069-1.238-2.409-1.83-4.046-1.533c-1.856,0.337-3.306,1.877-3.691,3.834C261.642,29.257,261.592,29.507,261.538,29.78z
			 M285.151,3.958c-0.12,0.007-0.241,0-0.356,0.024c-1.254,0.265-2.521,0.481-3.757,0.812c-3.261,0.872-6.326,2.176-8.944,4.358
			c-2.764,2.305-4.597,5.165-5.028,8.806c-0.195,1.651,0.125,3.216,1.006,4.632c0.737,1.183,1.859,1.896,3.142,2.38
			c0.083,0.03,0.174,0.04,0.275,0.063c0.049-0.187,0.093-0.342,0.132-0.5c0.603-2.455,1.377-4.854,2.389-7.172
			c1.673-3.842,3.853-7.343,6.938-10.23C282.229,5.932,283.633,4.901,285.151,3.958z M272.008,26.864
			c0.041,0.038,0.083,0.076,0.125,0.114c0.794-0.183,1.597-0.332,2.381-0.553c2.411-0.686,4.508-1.873,6.008-3.946
			c1.42-1.963,1.922-4.209,2.026-6.589c0.049-1.141,0.133-2.296,0.365-3.409c0.586-2.819,1.906-5.329,3.477-7.715
			c0.075-0.116,0.146-0.236,0.219-0.355c-0.195,0.018-0.34,0.087-0.48,0.161c-2.932,1.536-5.331,3.692-7.321,6.314
			c-2.688,3.536-4.467,7.515-5.709,11.75C272.689,24.031,272.369,25.454,272.008,26.864z M271.278,26.035
			c-0.039-0.046-0.045-0.062-0.056-0.065c-0.127-0.051-0.255-0.097-0.381-0.146c-1.931-0.751-3.402-1.984-4.19-3.951
			c-0.152-0.378-0.332-0.747-0.532-1.103c-0.753-1.342-1.708-2.535-2.776-3.635c-2.748-2.827-5.962-5.021-9.41-6.895
			c-0.068-0.036-0.145-0.058-0.293-0.116c0.211,0.878,0.385,1.704,0.609,2.514c0.809,2.915,1.952,5.675,3.858,8.064
			c1.485,1.861,3.308,3.239,5.646,3.852c0.135,0.036,0.305,0.051,0.428,0c2.618-1.079,5.378,0.199,6.62,2.528
			c0.047,0.087,0.113,0.167,0.201,0.295C271.102,26.888,271.189,26.465,271.278,26.035z M266.084,18.958
			c0.012-0.181,0.021-0.257,0.021-0.333c0.001-1.157,0.196-2.286,0.617-3.358c0.164-0.418,0.058-0.623-0.255-0.88
			c-1.865-1.535-4.021-2.505-6.303-3.198c-1.437-0.436-2.908-0.758-4.364-1.131c-0.016,0.042-0.032,0.083-0.048,0.125
			C259.653,12.523,263.282,15.185,266.084,18.958z"/>
		<path d="M279.103,39.613h-0.656c-6.762-0.002-13.523-0.004-20.285-0.006l-8.022-0.002l-0.001-0.121
			c-0.025-2.324,1.833-4.107,4.53-4.362c0.024-0.122,0.045-0.247,0.066-0.367c0.059-0.336,0.12-0.682,0.221-1.016
			c0.836-2.746,2.544-4.398,5.076-4.908c0.52-0.104,0.702-0.271,0.849-0.775c0.301-1.03,0.908-1.947,1.802-2.729
			c-2.572-0.913-4.679-2.688-6.437-5.422c-1.566-2.436-2.688-5.286-3.429-8.713c-0.127-0.589-0.225-1.184-0.319-1.757
			c-0.042-0.257-0.084-0.508-0.126-0.752l-0.03-0.169l0.17,0.026c0.279,0.045,0.559,0.088,0.838,0.132
			c2.44,0.38,4.963,0.772,7.348,1.574c1.916,0.643,4.386,1.611,6.494,3.393c0.008,0.007,0.018,0.013,0.03,0.021
			c0.009-0.013,0.016-0.024,0.021-0.036c1.455-3.03,3.798-5.42,7.162-7.304c2.832-1.586,6.014-2.659,9.724-3.276
			c1.032-0.172,2.093-0.274,3.12-0.373c0.195-0.018,0.391-0.037,0.585-0.056c0.044-0.004,0.087-0.006,0.133-0.006
			c0.163,0,0.326,0.025,0.513,0.054c0.118,0.019,0.242,0.038,0.377,0.053l0.198,0.021L288.947,2.9
			c-0.08,0.124-0.148,0.238-0.217,0.346c-0.132,0.217-0.248,0.405-0.383,0.583c-2.174,2.889-3.6,5.684-4.355,8.545
			c-0.292,1.103-0.347,2.25-0.4,3.36c-0.014,0.266-0.025,0.532-0.042,0.799c-0.165,2.763-0.994,5.1-2.467,6.944
			c-1.473,1.847-3.565,3.173-6.218,3.938c-0.703,0.203-1.435,0.342-2.142,0.476l-0.265,0.05c-0.521,0.099-0.59,0.134-0.553,0.54
			c0.161-0.043,0.323-0.089,0.48-0.133c0.457-0.13,0.927-0.265,1.406-0.303c1.924-0.157,3.54,0.618,4.791,2.299
			c0.168,0.225,0.303,0.298,0.547,0.298l0.082-0.001c1.382,0,2.691,0.459,3.789,1.324c1.094,0.865,1.898,2.075,2.327,3.499
			c0.354,1.18,0.417,2.439,0.185,3.744c-0.072,0.401-0.352,0.401-0.502,0.401l-0.087-0.001l-2.069,0.001
			C281.604,39.612,280.353,39.613,279.103,39.613z M251.02,39.359l7.142,0.002c6.762,0.002,13.523,0.004,20.285,0.006h0.656
			c1.25,0,2.501-0.001,3.751-0.002l2.067-0.001h0.089c0.16,0,0.227-0.008,0.259-0.197c0.23-1.285,0.171-2.472-0.177-3.631
			c-0.85-2.822-3.158-4.647-5.88-4.647h-0.082c-0.372,0-0.56-0.152-0.744-0.396c-1.2-1.609-2.74-2.35-4.575-2.2
			c-0.453,0.037-0.913,0.168-1.357,0.293c-0.206,0.06-0.418,0.12-0.627,0.17l-0.135,0.033l-0.016-0.139
			c-0.076-0.665,0.042-0.815,0.737-0.948l0.266-0.052c0.702-0.131,1.427-0.269,2.119-0.469c5.24-1.513,8.182-5.2,8.508-10.661
			c0.017-0.266,0.029-0.531,0.041-0.796c0.055-1.123,0.109-2.285,0.409-3.412c0.763-2.892,2.203-5.715,4.397-8.628
			c0.127-0.17,0.239-0.354,0.37-0.565c0.036-0.061,0.074-0.121,0.114-0.186c-0.068-0.01-0.135-0.02-0.195-0.03
			c-0.226-0.034-0.418-0.062-0.583-0.046c-0.196,0.019-0.392,0.038-0.587,0.056c-1.021,0.098-2.078,0.199-3.104,0.37
			c-3.682,0.613-6.835,1.676-9.644,3.248c-3.318,1.859-5.628,4.213-7.06,7.196c-0.021,0.043-0.046,0.078-0.072,0.113
			c-0.011,0.015-0.023,0.03-0.035,0.048l-0.065,0.095l-0.099-0.059c-0.018-0.011-0.035-0.021-0.051-0.028
			c-0.037-0.02-0.075-0.042-0.111-0.072c-2.077-1.754-4.519-2.71-6.414-3.347c-2.365-0.794-4.766-1.168-7.308-1.564
			c-0.223-0.034-0.446-0.069-0.669-0.104c0.033,0.191,0.065,0.387,0.098,0.585c0.094,0.571,0.191,1.162,0.317,1.746
			c0.735,3.398,1.846,6.222,3.396,8.632c1.731,2.693,3.802,4.437,6.333,5.333c0.054,0.019,0.089,0.056,0.124,0.092
			c0.012,0.013,0.026,0.026,0.042,0.041l0.107,0.094l-0.109,0.092c-0.917,0.769-1.534,1.678-1.833,2.701
			c-0.174,0.594-0.425,0.825-1.036,0.948c-2.438,0.49-4.083,2.085-4.89,4.738c-0.097,0.319-0.156,0.658-0.213,0.986
			c-0.026,0.152-0.055,0.311-0.085,0.465l-0.019,0.09l-0.093,0.007c-2.564,0.208-4.354,1.846-4.396,4.001H251.02z M284.654,38.651
			H251.2l0.057-0.164c0.332-0.957,0.901-1.639,1.739-2.084c0.438-0.234,0.905-0.347,1.425-0.347c0.351,0,0.731,0.052,1.158,0.16
			c-0.012-1.886,0.475-3.394,1.488-4.603c1.097-1.309,2.457-1.973,4.042-1.973c0.108,0,0.219,0.003,0.33,0.009l0.133-0.67
			c0.402-2.044,1.89-3.586,3.79-3.931c1.604-0.291,3.013,0.242,4.161,1.573c0.793,0.921,1.209,2.086,1.308,3.669
			c0.003,0.052,0.008,0.104,0.013,0.155c0.017-0.014,0.035-0.028,0.053-0.041c0.131-0.104,0.268-0.212,0.395-0.324
			c0.855-0.752,1.863-1.148,2.913-1.148c1.589,0,3.109,0.936,3.965,2.441c0.062,0.109,0.24,0.227,0.319,0.227
			c0.256-0.041,0.508-0.061,0.76-0.061c2.027,0,3.994,1.359,4.892,3.385c0.502,1.131,0.674,2.313,0.527,3.616L284.654,38.651z
			 M251.549,38.405h32.883c0.12-1.216-0.05-2.322-0.519-3.379c-0.859-1.938-2.736-3.24-4.668-3.24c-0.238,0-0.479,0.019-0.715,0.057
			c-0.014,0.002-0.03,0.004-0.045,0.004c-0.19,0-0.439-0.186-0.533-0.35c-0.813-1.43-2.25-2.318-3.751-2.318
			c-0.989,0-1.941,0.377-2.75,1.088c-0.133,0.116-0.271,0.226-0.404,0.332c-0.064,0.05-0.125,0.1-0.188,0.148l-0.099,0.081
			l-0.077-0.102c-0.013-0.017-0.022-0.029-0.029-0.038c-0.019-0.021-0.041-0.047-0.045-0.092l-0.001-0.014
			c-0.009-0.089-0.019-0.183-0.024-0.275c-0.095-1.526-0.492-2.646-1.249-3.524c-1.09-1.263-2.416-1.767-3.93-1.491
			c-1.799,0.325-3.21,1.793-3.593,3.735l-0.175,0.884l-0.108-0.009c-1.694-0.122-3.13,0.505-4.273,1.87
			c-1.002,1.196-1.469,2.701-1.429,4.602l0.004,0.165l-0.159-0.045c-0.471-0.129-0.88-0.192-1.251-0.192
			c-0.479,0-0.908,0.104-1.311,0.318C252.378,37.01,251.866,37.596,251.549,38.405z M271.065,27.686l-0.164-0.238
			c-0.03-0.044-0.058-0.082-0.083-0.116c-0.048-0.067-0.092-0.126-0.126-0.191c-0.937-1.758-2.692-2.85-4.58-2.85
			c-0.64,0-1.275,0.127-1.884,0.378c-0.067,0.027-0.147,0.041-0.237,0.041c-0.107,0-0.205-0.02-0.268-0.036
			c-2.216-0.581-4.085-1.854-5.712-3.894c-1.705-2.135-2.937-4.712-3.88-8.109c-0.154-0.554-0.281-1.107-0.417-1.692
			c-0.063-0.271-0.126-0.545-0.193-0.825l-0.055-0.229l0.219,0.086c0.053,0.021,0.097,0.037,0.134,0.05
			c0.071,0.026,0.122,0.044,0.172,0.072c3.874,2.105,6.961,4.368,9.44,6.918c1.178,1.212,2.093,2.41,2.795,3.66
			c0.208,0.372,0.39,0.748,0.538,1.118c0.729,1.817,2.077,3.087,4.12,3.882c0.059,0.022,0.118,0.045,0.177,0.066
			c0.068,0.026,0.137,0.054,0.205,0.08c0.04,0.015,0.059,0.042,0.076,0.063c0.006,0.009,0.016,0.021,0.03,0.038l0.038,0.046
			L271.065,27.686z M269.617,25.387c0.514,0.451,0.954,1.002,1.293,1.637c0.009,0.017,0.018,0.034,0.029,0.051l0.206-1.003
			c-0.057-0.022-0.114-0.043-0.17-0.064c-0.06-0.022-0.119-0.045-0.179-0.069C270.374,25.773,269.981,25.59,269.617,25.387z
			 M266.112,24.043c0.836,0,1.647,0.204,2.379,0.579c-0.874-0.723-1.52-1.618-1.956-2.704c-0.145-0.361-0.321-0.727-0.524-1.089
			c-0.692-1.231-1.594-2.412-2.758-3.609c-2.461-2.532-5.528-4.779-9.38-6.873c-0.018-0.01-0.038-0.019-0.061-0.028
			c0.048,0.204,0.094,0.403,0.14,0.603c0.135,0.583,0.262,1.133,0.414,1.683c0.934,3.363,2.153,5.911,3.836,8.02
			c1.593,1.996,3.418,3.243,5.582,3.811c0.133,0.034,0.271,0.036,0.349,0.005C264.773,24.178,265.439,24.043,266.112,24.043z
			 M272.096,27.112l-0.225-0.207l0.018-0.072c0.113-0.441,0.223-0.893,0.331-1.327c0.236-0.956,0.479-1.944,0.759-2.904
			c1.366-4.656,3.239-8.513,5.729-11.791c2.117-2.785,4.525-4.861,7.363-6.349c0.154-0.081,0.311-0.154,0.525-0.174l0.245-0.021
			l-0.128,0.209c-0.024,0.037-0.046,0.075-0.069,0.112c-0.051,0.083-0.1,0.165-0.154,0.246c-1.882,2.864-2.948,5.23-3.456,7.671
			c-0.242,1.153-0.32,2.361-0.365,3.39c-0.119,2.776-0.771,4.891-2.047,6.656c-1.391,1.921-3.376,3.227-6.075,3.991
			c-0.541,0.153-1.099,0.274-1.638,0.391c-0.25,0.053-0.5,0.106-0.749,0.165L272.096,27.112z M272.145,26.823l0.022,0.021
			c0.229-0.052,0.458-0.101,0.688-0.151c0.536-0.115,1.09-0.234,1.624-0.386c2.642-0.749,4.585-2.023,5.942-3.898
			c1.248-1.726,1.884-3.798,2.002-6.523c0.045-1.039,0.125-2.259,0.367-3.429c0.516-2.473,1.593-4.865,3.493-7.756
			c0.022-0.033,0.042-0.064,0.062-0.098c-0.055,0.024-0.106,0.05-0.161,0.078c-2.806,1.47-5.188,3.525-7.281,6.28
			c-2.472,3.252-4.332,7.083-5.688,11.71c-0.279,0.956-0.522,1.942-0.756,2.895C272.356,25.978,272.251,26.403,272.145,26.823z
			 M271.578,25.178l-0.115-0.025c-0.032-0.007-0.063-0.012-0.092-0.018c-0.065-0.012-0.135-0.024-0.2-0.049
			c-1.486-0.56-2.534-1.354-3.204-2.431c-0.882-1.415-1.227-3-1.024-4.711c0.412-3.477,2.07-6.383,5.072-8.886
			c2.35-1.96,5.29-3.394,8.991-4.383c0.875-0.234,1.778-0.414,2.652-0.587c0.365-0.073,0.742-0.148,1.112-0.226
			c0.089-0.019,0.177-0.021,0.265-0.023c0.036,0,0.072-0.002,0.108-0.004l0.486-0.03l-0.413,0.256
			c-1.624,1.009-2.992,2.042-4.185,3.159c-2.807,2.627-5.069,5.96-6.911,10.189c-0.962,2.21-1.742,4.55-2.381,7.152
			c-0.026,0.108-0.054,0.215-0.086,0.331c-0.015,0.054-0.03,0.11-0.046,0.171L271.578,25.178z M284.629,4.143
			c-0.309,0.063-0.619,0.126-0.922,0.186c-0.87,0.173-1.77,0.352-2.639,0.583c-3.663,0.98-6.573,2.397-8.896,4.335
			c-2.95,2.46-4.581,5.315-4.984,8.725c-0.197,1.654,0.137,3.186,0.988,4.551c0.641,1.03,1.648,1.793,3.08,2.331
			c0.042,0.015,0.09,0.026,0.144,0.036c0.006-0.022,0.012-0.044,0.017-0.063c0.031-0.113,0.059-0.218,0.085-0.324
			c0.643-2.615,1.425-4.968,2.394-7.192c1.857-4.261,4.136-7.621,6.968-10.271C281.955,6.02,283.19,5.069,284.629,4.143z
			 M266.186,19.301l-0.201-0.269c-3.047-4.104-7.103-6.829-10.297-8.743l-0.088-0.054l0.124-0.325l0.106,0.027
			c0.45,0.116,0.91,0.229,1.354,0.337c0.993,0.243,2.02,0.494,3.016,0.796c2.594,0.788,4.67,1.841,6.346,3.22
			c0.331,0.272,0.485,0.527,0.291,1.021c-0.403,1.025-0.608,2.141-0.609,3.315c0,0.052-0.004,0.102-0.01,0.178
			c-0.003,0.043-0.007,0.095-0.011,0.161L266.186,19.301z M256.131,10.267c3.09,1.874,6.904,4.494,9.851,8.35
			c0.002-1.201,0.213-2.344,0.626-3.396c0.143-0.364,0.053-0.516-0.218-0.74c-1.673-1.376-3.663-2.385-6.261-3.174
			c-0.989-0.3-2.013-0.551-3.003-0.793C256.799,10.434,256.464,10.352,256.131,10.267z"/>
	</g>
</g>
<g>
	<path fill-rule="evenodd" clip-rule="evenodd" d="M326.834,22.624c-1.04-0.278-2.031-0.57-3.036-0.807
		c-1.27-0.298-2.372-0.823-3.045-1.994c-2.374,0.479-4.915,2.367-4.467,5.605c0.113,0.825,0.43,1.627,0.692,2.425
		c0.104,0.311,0.112,0.569-0.03,0.859c-0.59,1.185-1.16,2.379-1.758,3.559c-0.14,0.273-0.129,0.496-0.007,0.767
		c0.656,1.455,1.313,2.909,1.931,4.38c0.162,0.388,0.187,0.832,0.283,1.292c0.279,0,0.622,0,0.974,0
		c-0.444-1.492-0.881-2.965-1.319-4.438c-0.109-0.365-0.224-0.73-0.323-1.098c-0.116-0.427,0.013-0.726,0.426-0.829
		c1.584-0.398,2.459-1.545,3.108-2.919c0.186-0.394,0.412-0.625,0.85-0.724c0.995-0.225,1.98-0.502,2.972-0.756
		c0.091-0.023,0.185-0.042,0.281-0.051c0.368-0.035,0.639,0.145,0.711,0.467c0.067,0.306-0.114,0.605-0.478,0.704
		c-0.828,0.224-1.658,0.447-2.499,0.628c-0.487,0.104-0.788,0.334-1.021,0.796c-0.656,1.291-1.637,2.272-3.031,2.854
		c0.263,0.888,0.497,1.768,0.781,2.629c0.337,1.021,0.712,2.03,1.083,3.039c0.203,0.553-0.025,0.929-0.611,0.935
		c-0.847,0.01-1.694,0.01-2.54,0.004c-0.543-0.005-0.814-0.264-0.717-0.797c0.138-0.745-0.067-1.386-0.372-2.043
		c-0.609-1.311-1.172-2.645-1.771-3.96c-0.165-0.364-0.168-0.681,0.017-1.046c0.595-1.165,1.17-2.343,1.726-3.529
		c0.085-0.182,0.096-0.458,0.023-0.646c-0.438-1.12-0.693-2.268-0.628-3.475c0.015-0.258-0.067-0.433-0.297-0.515
		c-0.382-0.132-0.764-0.313-1.156-0.344c-0.46-0.035-0.764,0.305-0.777,0.773c-0.01,0.283,0.048,0.569,0.095,0.851
		c0.466,2.807-1.237,4.914-4.077,5.037c-1.079,0.047-2.116-0.158-3.122-0.548c-0.335-0.131-0.585-0.323-0.541-0.717
		c0.043-0.379,0.335-0.467,0.663-0.554c0.575-0.151,1.17-0.288,1.695-0.556c0.878-0.444,1.16-1.223,0.884-2.178
		c-0.154-0.535-0.41-1.05-0.498-1.594c-0.463-2.843,1.871-5.36,4.745-5.165c1.358,0.092,2.515,0.673,3.599,1.439
		c0.123,0.086,0.244,0.171,0.409,0.287c1.004-1,2.231-1.625,3.589-2.044c-0.075-0.405-0.154-0.776-0.212-1.15
		c-0.185-1.222-0.08-2.426,0.287-3.602c0.358-1.159,0.723-2.317,1.118-3.463c0.495-1.435,1.366-2.608,2.615-3.474
		c0.194-0.134,0.527-0.203,0.75-0.137c0.434,0.129,0.473,0.739,0.056,1.024c-1.357,0.929-2.119,2.238-2.544,3.79
		c-0.358,1.299-0.813,2.576-1.09,3.892c-0.26,1.229,0.005,2.448,0.515,3.594c0.294,0.658,0.809,1.091,1.509,1.283
		c1.393,0.382,2.789,0.756,4.184,1.134c0.722,0.197,0.84,0.405,0.655,1.117c-0.409,1.57-0.813,3.141-1.22,4.711
		c-0.014,0.054-0.035,0.104-0.046,0.157c-0.068,0.366,0.071,0.644,0.387,0.701c0.339,0.063,0.532-0.121,0.624-0.44
		c0.307-1.047,0.622-2.091,0.933-3.137c0.376-1.268,0.749-2.536,1.121-3.805c0.167-0.571,0.098-0.714-0.45-0.946
		c-1.494-0.634-2.989-1.266-4.482-1.899c-0.101-0.043-0.206-0.079-0.302-0.129c-0.337-0.174-0.47-0.509-0.329-0.82
		c0.128-0.285,0.466-0.422,0.798-0.291c0.622,0.247,1.234,0.514,1.85,0.773c0.968,0.408,1.935,0.818,2.9,1.226
		c1.169,0.492,1.531,1.275,1.167,2.498c-0.674,2.273-1.341,4.55-2.021,6.822c-0.204,0.685-0.622,1.169-1.362,1.322
		c-0.687,0.144-1.24-0.08-1.681-0.596c-0.408-0.475-0.461-1.037-0.314-1.622C326.043,25.675,326.431,24.186,326.834,22.624z
		 M308.105,29.062c0.305,0,0.55,0.013,0.792-0.003c1.475-0.092,2.59-0.954,2.806-2.29c0.093-0.576,0.013-1.197-0.079-1.783
		c-0.257-1.604,0.783-2.758,2.393-2.565c0.436,0.051,0.856,0.234,1.303,0.363c0.173-0.361,0.355-0.75,0.548-1.154
		c-0.855-0.703-1.78-1.24-2.869-1.426c-0.874-0.15-1.699-0.023-2.466,0.479c-1.165,0.761-1.875,2.556-1.233,3.956
		c0.785,1.717,0.53,3.244-1.098,4.297C308.181,28.947,308.17,28.975,308.105,29.062z"/>
	<path fill-rule="evenodd" clip-rule="evenodd" d="M336.139,38.722c0.19,0,0.459,0,0.709,0c-0.515-1.566-0.608-3.21-1.001-4.787
		c-0.215-0.868-0.548-1.71-0.859-2.553c-0.506-1.366-1.028-2.729-1.567-4.085c-0.161-0.409-0.088-0.712,0.251-0.972
		c0.063-0.049,0.138-0.098,0.181-0.164c0.472-0.704,1.126-0.766,1.9-0.626c0.898,0.161,1.813,0.232,2.721,0.333
		c0.361,0.041,0.592,0.21,0.733,0.556c0.422,1.036,0.87,2.061,1.304,3.091c0.25,0.591,0.191,0.761-0.354,1.115
		c-0.182,0.117-0.363,0.236-0.594,0.387c0.221,0.275,0.42,0.521,0.651,0.81c0.419-0.356,0.807-0.675,1.176-1.015
		c0.068-0.065,0.099-0.222,0.079-0.323c-0.307-1.663-0.617-3.325-0.952-4.981c-0.03-0.152-0.225-0.333-0.382-0.39
		c-1.194-0.424-2.398-0.821-3.601-1.225c-0.732-0.245-0.868-0.453-0.819-1.235c0.054-0.859,0.284-1.67,0.729-2.405
		c0.343-0.57,0.738-1.111,1.126-1.685c-0.226-0.256-0.507-0.517-0.718-0.826c-0.205-0.299-0.374-0.637-0.492-0.979
		c-0.127-0.37,0.063-0.68,0.395-0.784c0.299-0.094,0.603,0.063,0.738,0.412c0.259,0.664,0.673,1.179,1.329,1.486
		c0.096,0.045,0.193,0.114,0.256,0.199c0.586,0.821,1.206,1.626,1.441,2.637c0.061,0.262,0.206,0.372,0.448,0.385
		c0.189,0.011,0.384,0.018,0.573-0.007c0.513-0.069,0.638-0.197,0.626-0.722c-0.013-0.558-0.031-1.122-0.12-1.67
		c-0.092-0.558-0.049-1.086,0.269-1.533c0.719-1.005,0.706-2.06,0.292-3.151c-0.161-0.423-0.102-0.756,0.19-1.089
		c0.224-0.255,0.411-0.541,0.646-0.853c-0.592-0.428-1.237-0.661-1.908-0.82c-1.769-0.418-3.407,0.01-4.986,0.787
		c-1.09,0.534-2.051,1.25-2.94,2.065c-0.11,0.102-0.215,0.21-0.327,0.311c-0.321,0.287-0.705,0.297-0.944,0.03
		c-0.245-0.274-0.232-0.616,0.102-0.899c0.728-0.618,1.445-1.255,2.229-1.796c1.636-1.131,3.433-1.857,5.458-1.851
		c1.643,0.005,3.141,0.507,4.488,1.445c0.39,0.272,0.445,0.594,0.168,0.981c-0.31,0.433-0.788,0.814-0.912,1.291
		c-0.118,0.454,0.144,1,0.216,1.508c0.107,0.756-0.009,1.49-0.441,2.118c-0.405,0.588-0.418,1.182-0.329,1.858
		c0.078,0.612,0.043,1.253-0.038,1.869c-0.088,0.646-0.484,1.121-1.163,1.204c-0.558,0.07-1.141,0.105-1.691,0.026
		c-0.569-0.08-0.919-0.506-1.045-1.079c-0.136-0.626-0.437-1.164-0.859-1.718c-0.776,0.93-1.438,1.857-1.563,3.071
		c-0.023,0.227,0.069,0.306,0.271,0.371c1.229,0.404,2.452,0.834,3.686,1.228c0.457,0.146,0.681,0.398,0.767,0.883
		c0.323,1.839,0.68,3.673,1.044,5.505c0.084,0.416,0.023,0.767-0.292,1.04c-0.565,0.491-1.133,0.987-1.731,1.436
		c-0.444,0.332-0.787,0.308-1.168-0.103c-0.48-0.518-0.912-1.085-1.331-1.655c-0.218-0.296-0.127-0.598,0.159-0.829
		c0.031-0.025,0.066-0.047,0.101-0.071c0.813-0.566,0.813-0.567,0.425-1.493c-0.202-0.478-0.389-0.962-0.621-1.426
		c-0.069-0.142-0.252-0.294-0.402-0.317c-0.836-0.122-1.678-0.222-2.519-0.3c-0.53-0.051-0.731,0.236-0.545,0.724
		c0.638,1.669,1.344,3.315,1.896,5.011c0.371,1.133,0.532,2.332,0.776,3.503c0.107,0.508,0.122,1.043,0.296,1.523
		c0.176,0.491,0.52,0.919,0.742,1.396c0.1,0.213,0.157,0.502,0.096,0.716c-0.044,0.147-0.322,0.315-0.5,0.321
		c-0.914,0.031-1.83,0.02-2.746,0.009c-0.335-0.003-0.584-0.213-0.556-0.532c0.124-1.364-0.511-2.546-0.841-3.803
		c-0.328-1.246-0.941-2.341-1.644-3.406c-0.908-1.379-1.78-2.781-2.654-4.183c-0.109-0.174-0.216-0.427-0.167-0.599
		c0.052-0.186,0.277-0.436,0.444-0.45c0.21-0.018,0.525,0.114,0.646,0.286c0.548,0.781,1.043,1.601,1.554,2.406
		c0.47,0.737,0.888,1.514,1.413,2.208c1.026,1.352,1.42,2.961,1.932,4.523C335.727,37.138,335.91,37.901,336.139,38.722z"/>
	<path fill-rule="evenodd" clip-rule="evenodd" d="M325.104,38.715c0.402,0,0.794,0,1.313,0c-0.178-0.292-0.29-0.545-0.462-0.745
		c-1.179-1.365-2.368-2.719-3.555-4.075c-0.517-0.592-0.48-0.864,0.17-1.314c0.961-0.661,1.601-1.588,2.135-2.601
		c0.064-0.12,0.114-0.248,0.184-0.366c0.196-0.341,0.514-0.453,0.827-0.299c0.3,0.147,0.418,0.493,0.255,0.841
		c-0.523,1.107-1.192,2.114-2.1,2.951c-0.087,0.081-0.174,0.165-0.286,0.272c0.109,0.132,0.199,0.247,0.296,0.358
		c1.068,1.223,2.14,2.443,3.205,3.671c0.505,0.581,0.545,1.32,0.618,2.028c0.034,0.301-0.219,0.502-0.532,0.506
		c-0.97,0.011-1.941,0.015-2.909-0.003c-0.352-0.008-0.545-0.24-0.538-0.594c0.004-0.202,0.023-0.416,0.094-0.603
		c0.148-0.399-0.013-0.65-0.296-0.923c-1.128-1.092-2.241-2.2-3.344-3.318c-0.148-0.15-0.286-0.396-0.281-0.592
		c0.004-0.173,0.19-0.446,0.343-0.481c0.213-0.051,0.535,0.004,0.691,0.146c0.658,0.594,1.272,1.237,1.904,1.862
		c0.638,0.635,1.266,1.282,1.924,1.898c0.345,0.322,0.519,0.655,0.349,1.121C325.081,38.526,325.104,38.613,325.104,38.715z"/>
	<path fill-rule="evenodd" clip-rule="evenodd" d="M332.439,18.719c-0.354-0.095-0.599-0.133-0.821-0.223
		c-1.631-0.66-3.254-1.341-4.887-1.992c-0.644-0.257-1.105-0.669-1.399-1.298c-0.296-0.629-0.628-1.242-0.936-1.866
		c-0.212-0.43-0.126-0.775,0.227-0.946c0.328-0.161,0.641-0.023,0.854,0.393c0.343,0.667,0.658,1.35,1.025,2.004
		c0.115,0.208,0.328,0.413,0.544,0.504c1.668,0.708,3.352,1.385,5.027,2.076c0.282,0.116,0.551,0.153,0.701-0.162
		c0.163-0.338-0.052-0.527-0.332-0.676c-1.071-0.57-2.129-1.171-3.215-1.713c-0.823-0.41-1.322-0.999-1.447-1.93
		c-0.127-0.946-0.319-1.881-0.477-2.822c-0.068-0.389,0.114-0.69,0.437-0.761c0.361-0.079,0.658,0.109,0.736,0.52
		c0.196,1.017,0.379,2.037,0.542,3.06c0.055,0.348,0.222,0.557,0.526,0.717c1.172,0.614,2.337,1.24,3.5,1.872
		c1.16,0.632,1.36,2.03,0.375,2.806C333.128,18.509,332.724,18.595,332.439,18.719z"/>
	<path fill-rule="evenodd" clip-rule="evenodd" d="M331.921,5.463c-0.026,1.908-1.542,3.381-3.45,3.348
		c-1.845-0.034-3.318-1.572-3.286-3.429c0.031-1.853,1.551-3.328,3.408-3.308C330.446,2.094,331.944,3.62,331.921,5.463z
		 M330.706,5.47c0.009-1.227-0.903-2.166-2.117-2.181c-1.223-0.015-2.182,0.907-2.19,2.106c-0.009,1.254,0.905,2.196,2.137,2.202
		C329.759,7.601,330.696,6.682,330.706,5.47z"/>
	<path fill-rule="evenodd" clip-rule="evenodd" d="M341.46,15.896c-0.067,0.09-0.162,0.331-0.327,0.399
		c-0.181,0.074-0.471,0.058-0.634-0.045c-0.232-0.146-0.445-0.382-0.566-0.628c-0.085-0.174-0.083-0.481,0.018-0.632
		c0.104-0.152,0.382-0.255,0.583-0.256C340.855,14.729,341.454,15.458,341.46,15.896z"/>
</g>
<g>
	<path fill-rule="evenodd" clip-rule="evenodd" d="M375.661,31.403c-3.837,0-7.675,0.001-11.513,0c-1.236,0-1.966-0.726-1.972-1.951
		c-0.002-0.328-0.002-0.655,0-0.983c0.006-1.122,0.649-1.839,1.764-1.899c2.1-0.114,4.202-0.2,6.302-0.296
		c4.079-0.187,8.157-0.371,12.235-0.557c1.379-0.061,2.755-0.134,4.134-0.18c1.937-0.066,3.32,0.795,4.162,2.536
		c0.298,0.614,0.59,1.23,0.905,1.835c0.33,0.636,0.813,1.131,1.463,1.441c0.886,0.423,1.776,0.839,2.675,1.227
		c1.021,0.438,1.468,1.398,1.081,2.401c-0.466,1.212-1.362,1.689-2.465,1.283c-0.997-0.366-1.985-0.759-2.974-1.152
		c-1.037-0.415-1.894-1.072-2.561-1.975c-0.194-0.265-0.452-0.494-0.59-0.783c-0.399-0.829-1.035-0.983-1.911-0.971
		C382.818,31.435,379.24,31.403,375.661,31.403z M363.346,28.965c0,0.11,0,0.219,0,0.328c0.002,0.749,0.166,0.916,0.91,0.916
		c1.311,0,2.622-0.001,3.934-0.001c6.582,0,13.164,0.001,19.747-0.004c0.229,0,0.367,0.064,0.498,0.262
		c0.387,0.578,0.797,1.142,1.21,1.702c0.566,0.769,1.223,1.433,2.137,1.79c0.989,0.387,1.976,0.785,2.969,1.162
		c0.55,0.208,0.799,0.068,1.026-0.522c0.182-0.471,0.044-0.725-0.464-0.951c-0.897-0.396-1.791-0.801-2.677-1.225
		c-0.917-0.44-1.588-1.147-2.055-2.044c-0.347-0.664-0.646-1.354-0.994-2.018c-0.59-1.123-1.54-1.675-2.802-1.639
		c-1.282,0.037-2.564,0.115-3.847,0.173c-6.137,0.276-12.275,0.554-18.415,0.829C363.382,27.774,363.349,27.806,363.346,28.965z"/>
	<path fill-rule="evenodd" clip-rule="evenodd" d="M368.801,24.614c0.442-1.331,0.867-2.611,1.29-3.89
		c0.57-1.708,1.14-3.416,1.709-5.123c0.462-1.386,1.523-2.167,2.98-2.179c0.614-0.006,1.231-0.017,1.842,0.031
		c0.91,0.07,1.61,0.532,2.154,1.261c0.597,0.798,1.229,1.568,1.823,2.37c1.014,1.372,2.355,2.337,3.834,3.14
		c0.346,0.189,0.695,0.375,1.035,0.579c0.782,0.476,1.073,1.406,0.718,2.25c-0.448,1.061-1.094,1.508-2.045,1.409
		c-0.135-0.014-0.274-0.038-0.398-0.092c-1.228-0.523-2.477-1.009-3.671-1.602c-0.624-0.31-1.165-0.794-1.72-1.23
		c-0.342-0.268-0.635-0.592-0.977-0.916c-0.242,0.719-0.485,1.436-0.727,2.155c-0.241,0.722-0.482,1.444-0.736,2.205
		c-0.378-0.125-0.722-0.238-1.118-0.369c0.703-2.113,1.399-4.201,2.115-6.355c0.253,0.28,0.468,0.52,0.683,0.76
		c0.118,0.132,0.246,0.258,0.352,0.399c1.348,1.792,3.257,2.729,5.29,3.482c0.294,0.107,0.58,0.236,0.876,0.341
		c0.432,0.153,0.656,0.025,0.911-0.498c0.219-0.45,0.17-0.721-0.21-0.948c-0.527-0.314-1.064-0.614-1.601-0.91
		c-1.511-0.832-2.735-1.981-3.769-3.35c-0.535-0.708-1.084-1.405-1.618-2.115c-0.395-0.527-0.901-0.817-1.57-0.808
		c-0.491,0.007-0.982-0.001-1.474,0.002c-0.927,0.005-1.546,0.44-1.845,1.331c-0.747,2.222-1.484,4.449-2.226,6.674
		c-0.257,0.773-0.519,1.547-0.795,2.361C369.544,24.858,369.2,24.746,368.801,24.614z"/>
	<path fill-rule="evenodd" clip-rule="evenodd" d="M386.706,32.635c0,0.386,0,0.748,0,1.138c-8.171,0-16.326,0-24.508,0
		c0-0.382,0-0.743,0-1.138C370.371,32.635,378.524,32.635,386.706,32.635z"/>
	<path fill-rule="evenodd" clip-rule="evenodd" d="M372.366,9.225c-0.002-1.981,1.613-3.602,3.59-3.597
		c1.958,0.005,3.569,1.607,3.589,3.569c0.019,1.984-1.624,3.625-3.621,3.617C373.967,12.805,372.366,11.191,372.366,9.225z
		 M378.351,9.197c-0.009-1.326-1.081-2.379-2.414-2.374c-1.328,0.004-2.394,1.078-2.39,2.402c0.002,1.342,1.092,2.411,2.438,2.395
		C377.312,11.603,378.361,10.529,378.351,9.197z"/>
	<path fill-rule="evenodd" clip-rule="evenodd" d="M395.143,30.194c-1.972,0.001-3.589-1.596-3.597-3.55
		c-0.005-2.01,1.614-3.642,3.604-3.632c1.957,0.01,3.569,1.622,3.58,3.579C398.74,28.564,397.119,30.192,395.143,30.194z
		 M397.535,26.615c0.002-1.33-1.058-2.401-2.382-2.408c-1.347-0.007-2.426,1.071-2.418,2.413c0.009,1.328,1.077,2.391,2.403,2.39
		C396.465,29.008,397.534,27.939,397.535,26.615z"/>
</g>
<g>
	<g>
		<path d="M427.304,4.107c0.457,0.495,1.139,1.082,2.144,1.653c2.524,1.438,6.056,2.212,10.504,2.304v18.041
			c0,3.405-3.331,6.553-6.128,8.592c-2.728,1.991-5.525,3.365-6.512,3.825c-1.019-0.475-3.793-1.84-6.513-3.825
			c-2.797-2.039-6.129-5.187-6.129-8.592V8.064c4.435-0.093,7.959-0.868,10.488-2.307C426.123,5.208,426.82,4.625,427.304,4.107
			 M427.314,1.979c0,0-0.005,0-0.009,0c-0.222,0-0.427,0.138-0.515,0.34c-0.014,0.044-1.939,4.279-13.04,4.279
			c-0.311,0-0.557,0.251-0.557,0.554v18.953c0,7.759,13.328,13.686,13.89,13.935c0.075,0.033,0.146,0.045,0.228,0.045
			c0.073,0,0.152-0.012,0.223-0.045c0.569-0.249,13.894-6.176,13.894-13.935V7.152c-0.004-0.303-0.249-0.554-0.558-0.554
			c-11.141,0-13.026-4.229-13.044-4.269C427.745,2.122,427.543,1.983,427.314,1.979L427.314,1.979z"/>
	</g>
	<g>
		<polygon points="425.778,26.075 421.142,21.438 422.185,20.395 425.778,23.989 433.258,16.509 434.301,17.552 		"/>
	</g>
</g>
<g>
	<path fill-rule="evenodd" clip-rule="evenodd" d="M41.616,10.044c-1.229-5.118-5.652-9.115-10.879-9.856
		c-0.265-0.037-0.528-0.081-0.792-0.122c0,0,0,0.001-0.001,0.001c-0.212-0.031-0.599-0.052-1.041-0.052
		c-0.405,0-0.763,0.018-0.983,0.044H27.92c-0.533,0.079-1.068,0.145-1.595,0.255c-7.878,1.655-12.441,9.852-9.676,17.399
		c0.292,0.797,0.704,1.551,1.071,2.348c0.436-0.276,0.776-0.491,1.116-0.706c-3.347-5.512-1.664-12.553,3.333-15.974
		c4.849-3.319,11.592-2.558,15.553,1.82c1.904,2.105,2.901,4.61,2.996,7.439c0.143,4.273-1.599,7.659-5.016,10.21
		c0.178,0.255,0.333,0.479,0.49,0.702c0.07,0.1,0.144,0.196,0.218,0.298c0.046-0.021,0.086-0.032,0.119-0.054
		c0.079-0.053,0.156-0.109,0.232-0.168c2.46-1.886,4.085-4.332,4.846-7.335c0.193-0.763,0.285-1.552,0.422-2.327v-1.639
		C41.895,11.566,41.797,10.795,41.616,10.044z"/>
	<path fill-rule="evenodd" clip-rule="evenodd" d="M9.889,40.701c-3.275,0-6.551-0.009-9.826-0.012c0,0.437,0,0.873,0,1.311
		c13.989,0,27.979,0,41.968,0c0-0.438,0-0.874,0-1.311c-0.136,0.003-0.272,0.012-0.409,0.012
		C31.044,40.701,20.466,40.703,9.889,40.701z"/>
	<path fill-rule="evenodd" clip-rule="evenodd" d="M3.269,13.779c2.675,0.026,5.351,0.033,8.025-0.001
		c1.621-0.022,3.024-1.412,3.173-3.04c0.135-1.479-1.065-3.042-2.584-3.405c-0.215-0.052-0.445-0.193-0.588-0.361
		c-0.696-0.82-1.798-1.237-2.66-0.905C8.296,6.198,8.152,6.129,7.937,5.866c-0.738-0.9-1.667-1.432-2.868-1.149
		C3.865,5.002,3.101,5.792,2.784,6.984C2.715,7.246,2.595,7.355,2.351,7.443c-0.93,0.335-1.6,0.97-2.007,1.872
		c-0.116,0.256-0.189,0.532-0.281,0.799c0,0.273,0,0.547,0,0.82c0.035,0.1,0.078,0.198,0.104,0.3
		C0.536,12.656,1.84,13.766,3.269,13.779z M1.89,9.113c0.357-0.396,0.835-0.546,1.36-0.569c0.558-0.024,0.757-0.24,0.744-0.791
		C3.967,6.717,4.436,6.072,5.314,5.937C6.271,5.79,7.009,6.299,7.288,7.3C7.459,7.918,7.986,8.107,8.423,7.64
		c0.649-0.692,1.749-0.453,2.051,0.436c0.117,0.342,0.368,0.472,0.727,0.476c1.527,0.021,2.42,1.382,1.833,2.801
		c-0.324,0.782-0.952,1.139-1.775,1.147c-1.338,0.013-2.677,0.003-4.015,0.003C5.918,12.502,4.593,12.51,3.268,12.5
		c-0.834-0.006-1.493-0.436-1.758-1.169C1.222,10.531,1.298,9.766,1.89,9.113z"/>
	<path fill-rule="evenodd" clip-rule="evenodd" d="M29.633,24.484c0.586-0.587,1.168-1.177,1.784-1.797
		c3.15,5.479,6.269,10.9,9.396,16.338c0.391-0.229,0.729-0.427,1.096-0.642c-0.096-0.173-0.173-0.313-0.253-0.452
		c-4.488-7.809-8.978-15.616-13.466-23.424c-0.422-0.733-0.835-1.472-1.254-2.206c-0.337-0.589-0.892-0.606-1.253-0.042
		c-0.051,0.08-0.098,0.163-0.148,0.245c-2.357,3.87-4.714,7.74-7.07,11.611c-0.624,1.023-1.243,2.049-1.887,3.112
		c0.372,0.226,0.716,0.436,1.085,0.662c0.849-1.389,1.685-2.758,2.521-4.124c0.052-0.031,0.104-0.062,0.157-0.091
		c0.085,0.141,0.147,0.305,0.259,0.418c0.824,0.838,1.655,1.668,2.489,2.495c0.454,0.45,0.78,0.43,1.195-0.065
		c0.806-0.964,1.607-1.932,2.413-2.897c0.091-0.109,0.189-0.214,0.318-0.36c0.413,0.428,0.788,0.823,1.172,1.211
		C28.81,25.1,29.021,25.1,29.633,24.484z M27.601,22.054c-0.479-0.497-0.84-0.496-1.287,0.039c-0.885,1.057-1.767,2.116-2.667,3.194
		c-0.076-0.059-0.142-0.1-0.196-0.153c-0.774-0.771-1.546-1.545-2.319-2.316c-0.13-0.129-0.242-0.23-0.108-0.448
		c1.732-2.828,3.455-5.662,5.181-8.494c0.012-0.019,0.042-0.028,0.092-0.06c0.071,0.114,0.146,0.222,0.213,0.338
		c1.348,2.341,2.688,4.688,4.051,7.02c0.177,0.304,0.13,0.462-0.105,0.685c-0.512,0.486-0.999,1-1.51,1.521
		C28.47,22.912,28.025,22.492,27.601,22.054z"/>
	<path fill-rule="evenodd" clip-rule="evenodd" d="M13.911,18.964c-0.544-0.762-0.961-0.756-1.466,0.043
		C8.452,25.315,4.458,31.622,0.465,37.929c-0.085,0.136-0.169,0.271-0.271,0.435c0.362,0.23,0.693,0.442,1.071,0.686
		C5.25,32.758,9.215,26.498,13.211,20.19c0.949,1.308,1.844,2.543,2.76,3.806c0.354-0.256,0.679-0.49,1.031-0.744
		c-0.154-0.218-0.278-0.396-0.406-0.57C15.701,21.443,14.799,20.208,13.911,18.964z"/>
	<path fill-rule="evenodd" clip-rule="evenodd" d="M24.854,34.406c-0.155-0.153-0.434-0.243-0.658-0.251
		c-0.86-0.029-1.721-0.004-2.581-0.021c-0.159-0.003-0.358-0.062-0.467-0.169c-1.342-1.322-2.676-2.654-4-3.995
		c-0.538-0.545-0.81-0.562-1.359-0.014c-2.656,2.655-5.311,5.313-7.971,7.964c-0.104,0.104-0.258,0.157-0.357,0.215
		c0.376,0.403,0.653,0.698,0.999,1.066c2.689-2.689,5.358-5.359,8.104-8.105c0.084,0.12,0.154,0.261,0.259,0.367
		c1.009,1.019,2.018,2.039,3.041,3.044c1.136,1.116,0.626,0.896,2.229,0.923c0.655,0.01,1.383-0.162,1.943,0.069
		c0.561,0.234,0.959,0.865,1.422,1.329c0.769,0.772,1.533,1.55,2.294,2.321c0.333-0.322,0.622-0.604,0.919-0.895
		c-0.045-0.058-0.074-0.104-0.111-0.141C27.328,36.876,26.103,35.628,24.854,34.406z"/>
</g>
</svg>
