<?xml version="1.0" encoding="utf-8"?>
<!-- Generator: Adobe Illustrator 16.0.0, SVG Export Plug-In . SVG Version: 6.00 Build 0)  -->
<!DOCTYPE svg PUBLIC "-//W3C//DTD SVG 1.1//EN" "http://www.w3.org/Graphics/SVG/1.1/DTD/svg11.dtd">
<svg version="1.1" id="Layer_1" xmlns="http://www.w3.org/2000/svg" xmlns:xlink="http://www.w3.org/1999/xlink" x="0px" y="0px"
	 width="87px" height="67px" viewBox="0 0 87 67" enable-background="new 0 0 87 67" xml:space="preserve">
<g>
	<path fill="#010101" d="M2.009,67c0-0.819,0-1.644,0-2.571c1.453,0,2.87,0,4.387,0c-0.149-0.753-0.356-1.386-0.39-2.026
		c-0.177-3.302-0.262-6.603-0.477-9.896c-0.128-1.938,0.191-3.723,1.291-5.325c1.064-1.553,1.137-3.008,0.333-4.793
		c-1.196-2.655-1.52-5.563-1.588-8.477c-0.023-0.926,0.455-1.526,1.228-1.554c0.802-0.029,1.314,0.551,1.334,1.535
		c0.04,2.384,0.402,4.714,1.146,6.982c0.065,0.201,0.153,0.397,0.288,0.733c0.607,1.143,0.586,4.452-0.148,5.932
		c-0.485,1.188-1.198,2.164-1.23,3.162c-0.101,3.244,0,6.5,0.134,9.744c0.045,1.143,0.378,2.282,0.652,3.399
		c0.049,0.215,0.412,0.483,0.65,0.507c0.711,0.066,1.429,0.023,2.215,0.023c-0.051-0.205-0.049-0.374-0.13-0.488
		c-0.847-1.25-0.989-2.632-0.918-4.096c0.069-1.432,0.049-2.866-0.002-4.297c-0.02-0.615,0.193-1.017,0.613-1.431
		c3.195-3.164,6.352-6.36,9.551-9.516c0.814-0.805,1.506-1.66,1.975-2.712c0.414-0.923,1.131-1.219,1.845-0.88
		c0.713,0.342,0.885,1.089,0.463,1.983c-0.114,0.246-0.219,0.496-0.391,0.885c1.756,0.174,3.41,0.396,5.073,0.482
		c3.552,0.186,7.036-0.165,10.399-1.435c0.68-0.256,0.942-0.562,0.974-1.34c0.041-1.025,0.297-2.06,0.589-3.057
		c0.209-0.72,0.867-0.917,1.549-0.712c0.666,0.197,1.086,0.788,0.836,1.403c-0.729,1.794-0.259,3.512,0.072,5.271
		c0.546,2.885,1.209,5.72,2.996,8.138c0.422,0.565,0.944,1.063,1.653,1.853c0.352,2.771,0.775,5.935,1.126,9.107
		c0.077,0.694,0.317,0.894,0.966,0.848c0.627-0.047,1.255-0.014,2.067-0.014c-0.124-0.565-0.095-1.119-0.345-1.477
		c-1.21-1.721-1.068-3.63-0.946-5.562c0.294-4.484,1.521-8.78,2.633-13.093c0.077-0.302,0.464-0.578,0.774-0.755
		c5.28-3.006,8.779-7.415,10.521-13.238c0.197-0.656,0.108-1.076-0.4-1.506c-0.48-0.408-0.91-0.88-1.348-1.342
		c-0.602-0.64-0.633-1.375-0.108-1.907c0.514-0.521,1.284-0.493,1.915,0.081c1.102,0.999,2.143,2.075,3.315,2.98
		c1.779,1.376,3.843,1.706,5.94,0.91c1.407-0.533,2.813-0.395,4.233-0.448c0.219-0.008,0.447-0.027,0.66,0.009
		c1.181,0.205,1.953-0.178,2.42-1.357c0.352-0.884,1.118-1.1,1.813-0.724c0.692,0.372,0.857,1.092,0.41,1.932
		c-0.463,0.874-0.757,2.052-1.49,2.513c-0.723,0.452-1.905,0.193-2.887,0.195c-1.786,0.005-3.532,0.049-5.294,0.573
		c-2.313,0.69-4.585,0.222-6.733-1.04c-0.118,0.323-0.223,0.6-0.321,0.878c-1.969,5.616-5.473,10.002-10.483,13.204
		c-0.337,0.215-0.709,0.597-0.788,0.96c-0.737,3.386-1.45,6.773-2.091,10.178c-0.199,1.05-0.188,2.14-0.221,3.216
		c-0.01,0.342,0.091,0.714,0.229,1.029c0.519,1.198,1.382,2.276,1.003,3.798c7.078,0,14.008,0,21.065,0c0,0.937,0,1.779,0,2.623
		c-17.48,0-34.96,0-52.442,0c0-0.844,0-1.687,0-2.641c7.913,0,15.663,0,23.458,0c-0.337-2.77-0.646-5.42-0.995-8.067
		c-0.046-0.331-0.23-0.68-0.445-0.945c-1.887-2.361-3.215-4.993-3.852-7.955c-0.162-0.767-0.341-1.529-0.528-2.357
		c-2.984,1.196-6,1.769-9.107,1.813c-0.668,0.01-0.918,0.256-1.131,0.879c-1.766,5.263-7.683,7.64-12.48,5.04
		c-0.571-0.308-1.1-0.702-1.701-1.09c-1.258,1.265-2.503,2.509-3.733,3.771c-0.138,0.146-0.27,0.381-0.264,0.572
		c0.084,2.685-0.582,5.487,1.208,7.901c0.162,0.217,0.467,0.443,0.713,0.451c1.323,0.045,2.647,0.021,3.97,0.021
		c0.731,0,1.466,0,2.237,0c0,0.958,0,1.782,0,2.605C15.023,67,8.517,67,2.009,67z M19.317,49.788
		c1.591,1.575,4.299,1.98,6.542,0.991c1.721-0.757,2.833-2.046,3.323-3.875c-1.977-0.26-3.828-0.508-5.682-0.732
		c-0.221-0.028-0.538,0.006-0.682,0.142C21.633,47.457,20.479,48.627,19.317,49.788z"/>
	<path fill="#010101" d="M64.666,11.936c-0.124-0.347-0.227-0.624-0.316-0.907c-0.454-1.41,0.088-2.621,1.47-3.149
		c1.264-0.483,2.545-0.416,3.79,0.089c0.803,0.325,1.115,1.005,0.844,1.724c-0.26,0.684-0.978,0.94-1.81,0.644
		c-0.362-0.129-0.715-0.322-1.09-0.366c-0.258-0.028-0.54,0.15-0.81,0.234c0.093,0.266,0.108,0.674,0.289,0.767
		c0.716,0.375,1.479,0.667,2.235,0.953c0.223,0.087,0.491,0.039,0.729,0.091c0.715,0.166,1.096,0.625,1.068,1.361
		c-0.026,0.69-0.564,1.168-1.345,1.174c-2.12,0.019-4.245,0.079-6.364-0.004c-6.137-0.228-12.214,0.45-18.292,1.09
		c-5.095,0.539-10.188,1.136-15.294,1.486c-2.064,0.139-4.167-0.312-6.248-0.509c-3.538-0.337-7.07-0.738-10.613-1.011
		c-3.4-0.264-6.459,2.279-6.946,5.658C5.003,27.95,4.581,34.682,4.516,41.441c-0.002,0.217,0.006,0.441-0.008,0.658
		c-0.051,0.788-0.514,1.258-1.235,1.27c-0.761,0.008-1.275-0.472-1.273-1.305c0.006-2.125-0.047-4.254,0.108-6.366
		c0.351-4.723,0.769-9.441,1.242-14.153c0.495-4.89,4.845-8.687,9.76-8.46c2.775,0.127,5.542,0.483,8.312,0.75
		c2.466,0.237,4.927,0.65,7.399,0.689c2.272,0.035,4.555-0.304,6.827-0.521c4.141-0.396,8.282-0.771,12.411-1.255
		c5.044-0.592,10.099-0.848,15.172-0.808C63.687,11.938,64.146,11.936,64.666,11.936z"/>
	<path fill="#010101" d="M76.589,12.592c1.119,0.753,2.189,1.472,3.293,2.212c-0.188,0.341-0.366,0.664-0.579,1.051
		c0.453,0.034,0.823,0.063,1.241,0.096c-0.035,2.111,0.578,4.01,1.918,5.59c0.72,0.85,1.628,1.552,2.485,2.274
		c0.802,0.674,1.022,1.406,0.534,2.042c-0.483,0.629-1.24,0.61-2.113-0.002c-3.018-2.127-4.799-5.003-5.362-8.656
		c-0.054-0.347-0.323-0.742-0.615-0.956c-0.952-0.701-1.971-1.306-2.931-1.999c-0.221-0.162-0.31-0.512-0.447-0.78
		c-0.033-0.067,0.012-0.168-0.008-0.245c-0.449-1.875,0.958-2.779,2.05-3.799c1.092-1.019,2.459-1.439,3.953-1.332
		c0.685,0.048,1.204,0.634,1.155,1.279c-0.045,0.672-0.398,1.269-1.102,1.205C78.434,10.418,77.536,11.41,76.589,12.592z"/>
</g>
</svg>
