<?xml version="1.0" encoding="utf-8"?>
<!-- Generator: Adobe Illustrator 16.0.0, SVG Export Plug-In . SVG Version: 6.00 Build 0)  -->
<!DOCTYPE svg PUBLIC "-//W3C//DTD SVG 1.1//EN" "http://www.w3.org/Graphics/SVG/1.1/DTD/svg11.dtd">
<svg version="1.1" id="Layer_1" xmlns="http://www.w3.org/2000/svg" xmlns:xlink="http://www.w3.org/1999/xlink" x="0px" y="0px"
	 width="87px" height="67px" viewBox="0 0 87 67" enable-background="new 0 0 87 67" xml:space="preserve">
<g>
	<path fill="#010101" d="M6.962,66.854c0-0.765,0-1.524,0-2.289c0.961,0,1.925,0,2.966,0c-0.493-1.031-0.902-2.021-0.538-3.04
		c0.341-0.961,0.873-1.854,1.35-2.846c-2.02-2.536-2.02-3.792,0.142-6.749c-0.936-0.914-1.591-2-1.6-3.364
		c-0.007-1.388,0.66-2.495,1.605-3.428c-2.17-2.779-2.169-3.943-0.023-6.922c-0.05-0.064-0.099-0.141-0.158-0.209
		c-2.583-2.921-1.415-6.655,2.389-7.675c0.313-0.084,0.614-0.258,0.876-0.45c2.913-2.114,5.813-4.241,8.717-6.363
		c6.406-4.681,12.812-9.365,19.227-14.035c0.409-0.299,0.575-0.611,0.56-1.121c-0.037-1.287-0.009-2.574-0.013-3.86
		c0-0.173-0.038-0.344-0.07-0.584c-0.267,0.19-0.463,0.321-0.654,0.46c-10.37,7.695-20.732,15.402-31.125,23.067
		c-0.924,0.682-1.648,1.315-1.397,2.566c0.006,0.037-0.034,0.082-0.093,0.218c-0.692,0-1.423,0-2.157,0c0-0.858,0-1.717,0-2.576
		c0.313-0.319,0.591-0.686,0.945-0.948c7.503-5.583,15.017-11.158,22.533-16.728c4.282-3.173,8.572-6.335,12.86-9.504
		c0.189,0,0.381,0,0.573,0c0.196,0.128,0.399,0.251,0.588,0.389c5.836,4.332,11.669,8.663,17.506,12.996
		c1.079,0.805,2.164,1.606,3.321,2.465c0-3.832,0-7.547,0-11.236c-1.551,0-3.04,0-4.555,0c0,0.607,0,1.153,0,1.702
		c0,0.539,0,1.08,0,1.627c-0.794,0-1.496,0-2.196,0c-0.021-0.115-0.045-0.183-0.045-0.251c-0.001-1.335-0.008-2.67-0.001-4.003
		c0.003-0.978,0.407-1.372,1.402-1.375c2.051-0.004,4.101-0.003,6.151,0c1.204,0,1.552,0.357,1.554,1.587
		c0,4.338,0.009,8.677-0.009,13.014c-0.001,0.481,0.148,0.775,0.536,1.059c3.724,2.739,7.436,5.494,11.139,8.26
		c0.353,0.264,0.633,0.627,0.946,0.946c0,0.859,0,1.718,0,2.576c-0.732,0-1.465,0-2.267,0c0-0.397-0.035-0.705,0.007-1.002
		c0.075-0.543-0.163-0.859-0.592-1.175C66.696,20.158,56.04,12.249,45.38,4.343c-0.181-0.135-0.376-0.247-0.665-0.437
		c0,1.52,0.033,2.919-0.017,4.318c-0.021,0.618,0.173,0.986,0.676,1.349c9.265,6.746,18.513,13.514,27.773,20.264
		c0.351,0.256,0.787,0.435,1.209,0.548c2.445,0.656,4.098,3.303,3.343,5.563c-0.279,0.832-0.847,1.564-1.322,2.418
		c0.838,0.848,1.507,1.928,1.518,3.295c0.008,1.387-0.688,2.481-1.607,3.43c2.164,2.699,2.164,3.948,0.005,6.937
		c0.934,0.916,1.592,2.004,1.603,3.365c0.01,1.388-0.683,2.487-1.638,3.455c1.671,1.688,2.151,3.549,0.986,5.723
		c1.065,0,2.016,0,2.967,0c0,0.763,0,1.523,0,2.287c-0.236-0.007-0.476-0.02-0.713-0.02c-23.94-0.004-47.879-0.004-71.816,0
		C7.44,66.837,7.2,66.847,6.962,66.854z M63.095,43.97c2.108,0,4.185,0,6.376,0c-0.906-1.577-0.872-3.06-0.023-4.56
		c-17.279,0-34.455,0-51.564,0c0.17,0.78,0.464,1.537,0.463,2.295c-0.001,0.746-0.307,1.492-0.491,2.304c2.066,0,4.13,0,6.206,0
		c0,0.768,0,1.47,0,2.228c-2.108,0-4.172,0-6.363,0c0.879,1.563,0.904,3.063-0.036,4.651c2.252,0,4.334,0,6.408,0
		c0,0.769,0,1.455,0,2.229c-2.11,0-4.184,0-6.377,0c0.91,1.567,0.875,3.052-0.004,4.617c2.213,0,4.294,0,6.366,0
		c0,0.785,0,1.489,0,2.247c-2.112,0-4.175,0-6.373,0c0.95,1.558,0.86,3.059,0.059,4.553c2.956,0,5.804,0,8.7,0
		c0-0.48,0-0.909,0-1.331c0-6.654,0-13.304,0-19.956c0-1.182,0.359-1.55,1.518-1.55c4.268-0.003,8.534-0.003,12.801-0.002
		c1.332,0.002,1.655,0.323,1.655,1.634c0,6.791,0,13.588,0,20.381c0,0.276,0,0.552,0,0.824c9.046,0,17.991,0,27.03,0
		c-0.874-1.532-0.859-3.016,0.031-4.583c-8.318,0-16.5,0-24.677,0c0-0.788,0-1.49,0-2.25c8.214,0,16.38,0,24.664,0
		c-0.905-1.555-0.858-3.054-0.003-4.619c-2.212,0-4.275,0-6.361,0c0-0.765,0-1.467,0-2.226c2.108,0,4.175,0,6.368,0
		c-0.895-1.561-0.883-3.064,0.009-4.654c-2.227,0-4.309,0-6.385,0C63.095,45.431,63.095,44.749,63.095,43.97z M69.797,30.217
		c-0.245-0.199-0.366-0.305-0.494-0.4c-8.421-6.158-16.851-12.314-25.264-18.487c-0.409-0.298-0.645-0.188-0.981,0.06
		c-8.343,6.108-16.692,12.21-25.04,18.313c-0.182,0.132-0.348,0.285-0.624,0.513C34.899,30.217,52.263,30.217,69.797,30.217z
		 M17.71,37.073c17.305,0,34.472,0,51.659,0c-0.78-2.166-0.8-2.234-0.019-4.533c-17.183,0-34.353,0-51.631,0
		C18.571,34.061,18.6,35.546,17.71,37.073z M40.144,43.995c-3.854,0-7.626,0-11.417,0c0,6.873,0,13.696,0,20.533
		c3.834,0,7.625,0,11.417,0C40.144,57.655,40.144,50.846,40.144,43.995z M16.138,34.809c-0.006-1.447-0.873-2.307-2.313-2.307
		s-2.308,0.873-2.306,2.31c0,1.467,0.89,2.327,2.382,2.31C15.286,37.103,16.146,36.216,16.138,34.809z M75.647,34.811
		c0.002-1.437-0.869-2.309-2.31-2.309c-1.435,0-2.312,0.875-2.312,2.31c0,1.439,0.873,2.31,2.312,2.309
		C74.782,37.118,75.646,36.256,75.647,34.811z M13.81,43.992c1.437,0.007,2.325-0.873,2.33-2.297c0.005-1.442-0.86-2.32-2.294-2.322
		c-1.454-0.002-2.316,0.845-2.323,2.291C11.515,43.105,12.376,43.983,13.81,43.992z M71.028,41.563
		c-0.03,1.481,0.795,2.392,2.195,2.426c1.469,0.038,2.39-0.798,2.426-2.196c0.036-1.499-0.81-2.401-2.269-2.422
		C71.959,39.35,71.059,40.19,71.028,41.563z M13.828,46.234c-1.435,0-2.309,0.877-2.309,2.312c0,1.439,0.873,2.31,2.312,2.308
		c1.442-0.004,2.304-0.866,2.305-2.31C16.138,47.105,15.267,46.234,13.828,46.234z M73.378,46.234
		c-1.457-0.006-2.334,0.839-2.352,2.271c-0.016,1.445,0.853,2.341,2.27,2.352c1.454,0.009,2.334-0.842,2.354-2.273
		C75.668,47.142,74.795,46.241,73.378,46.234z M13.804,57.724c1.446,0.008,2.329-0.86,2.335-2.289
		c0.006-1.449-0.848-2.317-2.289-2.335c-1.442-0.014-2.33,0.858-2.33,2.287C11.519,56.841,12.373,57.715,13.804,57.724z
		 M75.65,55.417c-0.005-1.449-0.865-2.314-2.304-2.317c-1.443-0.003-2.316,0.865-2.318,2.3c-0.002,1.47,0.881,2.335,2.373,2.322
		C74.787,57.708,75.652,56.821,75.65,55.417z M16.14,62.275c0.003-1.429-0.88-2.313-2.309-2.308
		c-1.447,0.003-2.308,0.864-2.312,2.308c-0.004,1.432,0.878,2.314,2.307,2.312C15.267,64.583,16.135,63.718,16.14,62.275z
		 M75.65,62.301c0.008-1.447-0.857-2.325-2.288-2.33c-1.458-0.005-2.323,0.84-2.332,2.281c-0.01,1.452,0.849,2.331,2.28,2.338
		C74.75,64.598,75.643,63.725,75.65,62.301z"/>
	<path fill="#FFFFFF" d="M6.962,66.854c0.238-0.008,0.476-0.021,0.714-0.021c23.938,0,47.877,0,71.816,0
		c0.237,0,0.476,0.014,0.713,0.021c-0.189,0.047-0.38,0.139-0.573,0.139C76.729,67.003,73.822,67,70.916,67
		c-21.104,0-42.208,0-63.312-0.007C7.391,66.993,7.176,66.904,6.962,66.854z"/>
	<path fill="#010101" d="M52.813,41.7c2.167,0,4.336-0.003,6.506,0.002c0.989,0.003,1.406,0.404,1.409,1.372
		c0.005,3.266,0.007,6.532,0,9.797c-0.003,0.944-0.414,1.37-1.343,1.37c-4.433,0.007-8.866,0.007-13.298,0
		c-0.926,0-1.332-0.426-1.334-1.377c-0.005-3.263-0.007-6.53-0.001-9.793c0-0.958,0.431-1.371,1.413-1.372
		C48.38,41.695,50.596,41.699,52.813,41.7L52.813,41.7z M47.044,43.977c0,2.711,0,5.336,0,7.981c1.536,0,3.023,0,4.512,0
		c0-2.692,0-5.338,0-7.981C50.023,43.977,48.556,43.977,47.044,43.977z M58.44,43.983c-1.528,0-3.017,0-4.54,0
		c0,2.667,0,5.295,0,7.966c1.558,0,3.042,0,4.54,0"/>
	<path fill="#010101" d="M49.282,22.192c0.015,2.968-2.685,5.7-5.653,5.73c-2.991,0.028-5.746-2.71-5.744-5.707
		c0.002-2.965,2.721-5.686,5.688-5.691C46.541,16.521,49.267,19.228,49.282,22.192z M43.586,25.678c2.058,0,3.449-1.389,3.453-3.442
		c0.003-2.07-1.376-3.466-3.422-3.469c-2.114-0.001-3.488,1.366-3.488,3.478C40.127,24.295,41.52,25.68,43.586,25.678z"/>
	<path fill="#010101" d="M35.624,54.19c0-0.717,0-1.401,0-2.136c0.705,0,1.404,0,2.16,0c0,0.68,0,1.377,0,2.136
		C37.105,54.19,36.405,54.19,35.624,54.19z"/>
</g>
</svg>
