<?xml version="1.0" encoding="utf-8"?>
<!-- Generator: Adobe Illustrator 16.0.0, SVG Export Plug-In . SVG Version: 6.00 Build 0)  -->
<!DOCTYPE svg PUBLIC "-//W3C//DTD SVG 1.1//EN" "http://www.w3.org/Graphics/SVG/1.1/DTD/svg11.dtd">
<svg version="1.1" id="Layer_1" xmlns="http://www.w3.org/2000/svg" xmlns:xlink="http://www.w3.org/1999/xlink" x="0px" y="0px"
	 width="87px" height="67px" viewBox="0 0 87 67" enable-background="new 0 0 87 67" xml:space="preserve">
<g>
	<g>
		<path fill="#010101" d="M43.763,3.737c0.803,0.869,1.999,1.9,3.765,2.902c4.434,2.527,10.639,3.886,18.447,4.047v31.687
			c0,5.978-5.85,11.508-10.762,15.089c-4.79,3.495-9.702,5.911-11.437,6.717c-1.789-0.834-6.662-3.232-11.438-6.717
			c-4.912-3.581-10.764-9.111-10.764-15.089V10.687c7.788-0.163,13.978-1.524,18.419-4.052C41.687,5.671,42.912,4.647,43.763,3.737
			 M43.779,0c0,0-0.008,0-0.015,0c-0.392,0-0.75,0.243-0.906,0.597c-0.024,0.077-3.405,7.516-22.902,7.516
			c-0.545,0-0.978,0.441-0.978,0.973v33.289c0,13.626,23.408,24.034,24.394,24.472c0.132,0.06,0.258,0.08,0.401,0.08
			c0.129,0,0.269-0.021,0.391-0.08C45.166,66.408,68.568,56,68.568,42.374V9.085c-0.006-0.532-0.437-0.973-0.981-0.973
			c-19.565,0-22.876-7.428-22.909-7.498C44.537,0.251,44.184,0.007,43.779,0L43.779,0z"/>
	</g>
	<g>
		<polygon fill="#010101" points="41.082,42.32 32.94,34.176 34.772,32.344 41.082,38.656 54.22,25.519 56.051,27.35 		"/>
	</g>
</g>
</svg>
