<?xml version="1.0" encoding="utf-8"?>
<!-- Generator: Adobe Illustrator 16.0.0, SVG Export Plug-In . SVG Version: 6.00 Build 0)  -->
<!DOCTYPE svg PUBLIC "-//W3C//DTD SVG 1.1//EN" "http://www.w3.org/Graphics/SVG/1.1/DTD/svg11.dtd">
<svg version="1.1" id="Layer_1" xmlns="http://www.w3.org/2000/svg" xmlns:xlink="http://www.w3.org/1999/xlink" x="0px" y="0px"
	 width="87px" height="67px" viewBox="0 0 87 67" enable-background="new 0 0 87 67" xml:space="preserve">
<g>
	<g>
		<path fill="#010101" d="M49.033,47.336c1.236-0.285,2.474-0.737,3.737-0.837c3.689-0.288,6.563,1.23,8.734,4.029
			c0.338,0.436,0.645,0.633,1.231,0.626c5.198-0.056,9.697,3.328,11.311,8.48c0.68,2.171,0.753,4.37,0.34,6.606
			c-0.11,0.581-0.469,0.531-0.877,0.535c-4.025,0.002-8.051,0.006-12.078,0.004c-16.814-0.004-33.629-0.011-50.444-0.011
			c-0.708,0-1.419,0-2.126,0c-0.047-4.134,3.399-7.219,8.413-7.61c0.184-0.863,0.293-1.763,0.562-2.616
			c1.433-4.521,4.322-7.68,9.294-8.639c1.083-0.21,1.47-0.596,1.759-1.545c0.598-1.965,1.811-3.595,3.492-4.947
			c-0.104-0.083-0.159-0.17-0.235-0.191c-5.235-1.783-8.991-5.255-11.93-9.642c-3.193-4.771-5.124-10.026-6.364-15.535
			c-0.342-1.522-0.57-3.068-0.831-4.489c5.177,0.786,10.306,1.456,15.229,3.045c4.35,1.404,8.497,3.162,12.04,6.039
			c0.073,0.06,0.164,0.097,0.271,0.156c0.073-0.1,0.14-0.171,0.18-0.258c2.886-5.774,7.526-9.902,13.264-12.987
			C59.64,4.517,65.728,2.72,72.067,1.707c2.279-0.366,4.594-0.55,6.896-0.767c0.535-0.05,1.089,0.099,1.861,0.181
			c-0.44,0.661-0.739,1.183-1.107,1.649c-3.661,4.669-6.596,9.687-8.163,15.381c-0.678,2.468-0.674,4.984-0.831,7.495
			c-0.611,9.851-6.182,16.563-16.035,19.296c-1.461,0.408-2.971,0.663-4.469,0.938C49.05,46.093,48.903,46.242,49.033,47.336z
			 M29.899,49.385c-3.38-0.234-6.056,1.011-8.164,3.428c-2.089,2.397-2.787,5.249-2.716,8.391c-1.76-0.466-3.39-0.553-4.947,0.241
			c-1.55,0.791-2.556,2.019-3.131,3.614c20.675,0,41.266,0,61.866,0c0.266-2.246-0.034-4.346-0.968-6.364
			c-1.719-3.723-5.797-6.522-10.283-5.829c-0.253,0.039-0.694-0.259-0.843-0.511c-2.599-4.388-8.273-5.812-12.476-2.262
			c-0.354,0.3-0.732,0.572-1.096,0.858c-0.067-0.087-0.093-0.104-0.098-0.124c-0.016-0.168-0.036-0.338-0.045-0.507
			c-0.153-2.367-0.729-4.6-2.384-6.445c-1.995-2.218-4.494-3.278-7.547-2.746c-3.462,0.604-6.165,3.362-6.885,6.868
			C30.093,48.448,30,48.896,29.899,49.385z M73.939,3.129c-0.224,0.012-0.448,0-0.662,0.042c-2.34,0.475-4.703,0.862-7.008,1.455
			c-6.083,1.563-11.8,3.898-16.683,7.807c-5.155,4.129-8.573,9.253-9.378,15.775c-0.362,2.957,0.233,5.761,1.877,8.297
			c1.374,2.12,3.467,3.398,5.86,4.266c0.154,0.052,0.324,0.07,0.514,0.111c0.091-0.336,0.173-0.611,0.246-0.896
			c1.123-4.397,2.567-8.695,4.455-12.848c3.12-6.882,7.185-13.154,12.941-18.326C68.49,6.665,71.108,4.818,73.939,3.129z
			 M49.427,44.162c0.077,0.068,0.155,0.135,0.233,0.205c1.48-0.329,2.978-0.595,4.44-0.992c4.498-1.229,8.408-3.355,11.205-7.068
			c2.649-3.517,3.585-7.54,3.779-11.803c0.091-2.044,0.249-4.114,0.682-6.107c1.093-5.05,3.554-9.546,6.484-13.82
			c0.14-0.208,0.272-0.423,0.408-0.636c-0.362,0.032-0.634,0.155-0.895,0.288c-5.47,2.751-9.943,6.614-13.655,11.31
			c-5.013,6.334-8.331,13.463-10.647,21.048C50.696,39.087,50.101,41.636,49.427,44.162z M48.064,42.678
			c-0.072-0.082-0.084-0.113-0.104-0.116c-0.237-0.093-0.476-0.176-0.711-0.263c-3.601-1.345-6.346-3.554-7.815-7.077
			c-0.283-0.677-0.619-1.339-0.991-1.978c-1.404-2.403-3.186-4.541-5.178-6.511c-5.125-5.063-11.12-8.994-17.552-12.351
			c-0.127-0.064-0.27-0.104-0.546-0.208c0.394,1.573,0.718,3.053,1.137,4.504c1.508,5.222,3.641,10.166,7.195,14.446
			c2.77,3.332,6.171,5.803,10.532,6.9c0.251,0.063,0.568,0.092,0.797,0c4.883-1.934,10.031,0.355,12.348,4.528
			c0.087,0.155,0.212,0.299,0.375,0.527C47.736,44.206,47.898,43.446,48.064,42.678z M38.378,29.999
			c0.022-0.324,0.039-0.459,0.039-0.596c0.002-2.073,0.366-4.095,1.151-6.016c0.306-0.748,0.108-1.116-0.475-1.576
			c-3.479-2.75-7.501-4.488-11.755-5.729c-2.681-0.781-5.424-1.358-8.14-2.026c-0.029,0.076-0.061,0.149-0.089,0.224
			C26.382,18.472,33.152,23.24,38.378,29.999z"/>
		<path fill="#010101" d="M62.66,67h-1.225c-12.611-0.003-25.221-0.006-37.833-0.01L8.64,66.986L8.638,66.77
			c-0.047-4.164,3.419-7.357,8.45-7.814c0.044-0.219,0.083-0.442,0.122-0.657c0.111-0.602,0.224-1.222,0.413-1.819
			c1.56-4.92,4.746-7.88,9.466-8.793c0.971-0.188,1.31-0.485,1.584-1.387c0.561-1.848,1.694-3.488,3.361-4.89
			c-4.798-1.636-8.726-4.816-12.005-9.714c-2.922-4.364-5.015-9.468-6.397-15.608c-0.237-1.055-0.419-2.121-0.594-3.147
			c-0.078-0.46-0.157-0.911-0.235-1.347l-0.057-0.302l0.317,0.046c0.521,0.081,1.042,0.157,1.563,0.236
			c4.552,0.68,9.257,1.383,13.705,2.82c3.574,1.152,8.182,2.886,12.113,6.078c0.014,0.012,0.034,0.023,0.057,0.038
			c0.016-0.024,0.029-0.042,0.038-0.065c2.713-5.428,7.085-9.709,13.358-13.084c5.282-2.841,11.218-4.762,18.138-5.868
			C73.96,1.183,75.938,1,77.854,0.823c0.362-0.033,0.728-0.067,1.09-0.1c0.083-0.008,0.163-0.011,0.249-0.011
			c0.304,0,0.607,0.044,0.956,0.097c0.22,0.035,0.451,0.069,0.702,0.095l0.37,0.038L81.02,1.233
			c-0.147,0.222-0.275,0.427-0.404,0.621c-0.246,0.388-0.463,0.725-0.714,1.044c-4.055,5.175-6.714,10.182-8.122,15.307
			c-0.545,1.976-0.648,4.03-0.747,6.019c-0.025,0.477-0.047,0.954-0.078,1.432c-0.308,4.949-1.854,9.135-4.601,12.438
			c-2.749,3.31-6.65,5.686-11.6,7.055c-1.309,0.364-2.675,0.613-3.994,0.853l-0.493,0.092c-0.973,0.176-1.1,0.239-1.033,0.965
			c0.301-0.077,0.604-0.157,0.897-0.237c0.852-0.233,1.728-0.476,2.622-0.543c3.588-0.28,6.603,1.106,8.936,4.118
			c0.313,0.402,0.564,0.535,1.021,0.535l0.152-0.004c2.577,0,5.019,0.822,7.067,2.373c2.04,1.55,3.539,3.717,4.341,6.268
			c0.659,2.115,0.777,4.368,0.344,6.707c-0.135,0.72-0.656,0.72-0.936,0.72l-0.162-0.004l-3.859,0.004
			C67.324,66.997,64.991,67,62.66,67z M10.281,66.545l13.322,0.005c12.612,0.003,25.222,0.007,37.833,0.01h1.225
			c2.331,0,4.664-0.002,6.996-0.003l3.855-0.002h0.166c0.299,0,0.422-0.017,0.482-0.354c0.43-2.303,0.318-4.428-0.329-6.504
			c-1.585-5.056-5.892-8.326-10.967-8.326h-0.153c-0.694,0-1.046-0.272-1.389-0.708c-2.238-2.883-5.111-4.211-8.533-3.941
			c-0.846,0.066-1.702,0.301-2.529,0.524c-0.385,0.108-0.78,0.215-1.17,0.305l-0.253,0.06l-0.029-0.248
			c-0.142-1.193,0.078-1.461,1.376-1.699l0.494-0.093c1.311-0.234,2.662-0.482,3.953-0.84c9.773-2.712,15.26-9.317,15.868-19.099
			c0.03-0.477,0.055-0.951,0.076-1.425c0.103-2.012,0.204-4.094,0.764-6.112c1.423-5.182,4.109-10.238,8.199-15.456
			c0.237-0.305,0.447-0.634,0.691-1.012c0.066-0.109,0.139-0.217,0.212-0.333c-0.126-0.019-0.251-0.036-0.364-0.054
			c-0.42-0.061-0.778-0.111-1.087-0.083c-0.363,0.034-0.73,0.068-1.095,0.101c-1.903,0.176-3.876,0.356-5.788,0.663
			c-6.868,1.098-12.748,3.002-17.988,5.818c-6.188,3.33-10.497,7.547-13.167,12.89c-0.04,0.077-0.086,0.14-0.135,0.202
			c-0.02,0.027-0.042,0.054-0.065,0.087l-0.12,0.169l-0.186-0.105c-0.033-0.02-0.065-0.038-0.095-0.05
			c-0.069-0.036-0.14-0.076-0.208-0.129c-3.873-3.143-8.428-4.854-11.963-5.996c-4.41-1.422-8.889-2.093-13.63-2.802
			c-0.416-0.061-0.833-0.124-1.248-0.186c0.062,0.342,0.122,0.692,0.182,1.048c0.177,1.022,0.357,2.082,0.592,3.127
			c1.372,6.087,3.442,11.146,6.335,15.463c3.228,4.824,7.091,7.948,11.812,9.554c0.1,0.033,0.166,0.1,0.229,0.165
			c0.024,0.022,0.049,0.044,0.078,0.073l0.2,0.167l-0.204,0.165c-1.71,1.379-2.859,3.005-3.418,4.839
			c-0.324,1.063-0.792,1.478-1.931,1.698c-4.548,0.877-7.616,3.735-9.122,8.487c-0.18,0.571-0.292,1.178-0.397,1.767
			c-0.049,0.272-0.102,0.556-0.159,0.832l-0.034,0.161l-0.175,0.015c-4.781,0.37-8.12,3.306-8.198,7.164H10.281L10.281,66.545z
			 M73.013,65.275H10.618l0.106-0.294c0.619-1.714,1.681-2.935,3.244-3.732c0.816-0.418,1.687-0.62,2.658-0.62
			c0.654,0,1.362,0.091,2.16,0.285c-0.024-3.377,0.885-6.079,2.774-8.244c2.047-2.345,4.583-3.534,7.539-3.534
			c0.203,0,0.41,0.003,0.616,0.015l0.248-1.201c0.75-3.659,3.526-6.424,7.069-7.041c2.993-0.521,5.621,0.434,7.761,2.818
			c1.479,1.649,2.255,3.737,2.441,6.572c0.005,0.094,0.015,0.188,0.022,0.278c0.032-0.024,0.066-0.051,0.099-0.073
			c0.244-0.187,0.502-0.382,0.738-0.58c1.594-1.349,3.474-2.059,5.434-2.059c2.963,0,5.798,1.679,7.395,4.374
			c0.115,0.196,0.447,0.406,0.594,0.406c0.479-0.074,0.948-0.109,1.419-0.109c3.779,0,7.45,2.436,9.124,6.064
			c0.936,2.025,1.256,4.143,0.983,6.478L73.013,65.275z M11.268,64.834h61.331c0.225-2.176-0.092-4.157-0.967-6.052
			c-1.603-3.471-5.104-5.803-8.707-5.803c-0.443,0-0.894,0.033-1.334,0.101c-0.025,0.006-0.055,0.01-0.085,0.01
			c-0.353,0-0.817-0.335-0.992-0.628c-1.517-2.563-4.196-4.152-6.996-4.152c-1.845,0-3.621,0.676-5.129,1.949
			c-0.25,0.206-0.507,0.404-0.754,0.595c-0.12,0.088-0.233,0.179-0.352,0.265l-0.185,0.145l-0.144-0.182
			c-0.023-0.031-0.04-0.053-0.055-0.069c-0.034-0.037-0.076-0.085-0.084-0.165l-0.002-0.024c-0.016-0.159-0.034-0.328-0.043-0.493
			c-0.179-2.732-0.918-4.739-2.33-6.313c-2.033-2.264-4.506-3.166-7.331-2.671c-3.355,0.583-5.988,3.212-6.701,6.691l-0.326,1.583
			l-0.202-0.016c-3.158-0.22-5.838,0.904-7.969,3.348c-1.869,2.144-2.74,4.839-2.665,8.246l0.007,0.295l-0.297-0.08
			c-0.878-0.231-1.642-0.345-2.333-0.345c-0.895,0-1.694,0.187-2.446,0.57C12.814,62.337,11.86,63.386,11.268,64.834z
			 M47.667,45.634l-0.306-0.426c-0.055-0.079-0.107-0.146-0.154-0.208c-0.09-0.118-0.172-0.226-0.236-0.343
			c-1.746-3.148-5.019-5.104-8.542-5.104c-1.193,0-2.377,0.228-3.514,0.677c-0.124,0.048-0.273,0.073-0.44,0.073
			c-0.2,0-0.383-0.036-0.501-0.063c-4.133-1.042-7.62-3.321-10.653-6.978c-3.181-3.823-5.477-8.44-7.237-14.525
			c-0.288-0.992-0.525-1.983-0.778-3.031c-0.118-0.485-0.235-0.976-0.361-1.479l-0.102-0.41l0.408,0.155
			c0.099,0.038,0.18,0.065,0.25,0.089c0.133,0.046,0.228,0.079,0.322,0.128c7.224,3.771,12.983,7.825,17.606,12.393
			c2.197,2.172,3.903,4.318,5.213,6.556c0.388,0.667,0.729,1.341,1.004,2.004c1.36,3.255,3.875,5.529,7.684,6.953
			c0.11,0.039,0.221,0.081,0.33,0.12c0.128,0.045,0.255,0.096,0.383,0.143c0.074,0.026,0.109,0.073,0.143,0.112
			c0.01,0.017,0.028,0.038,0.056,0.067l0.07,0.082L47.667,45.634z M44.968,41.516c0.958,0.808,1.778,1.795,2.412,2.932
			c0.016,0.031,0.033,0.063,0.053,0.093l0.384-1.797c-0.105-0.04-0.212-0.077-0.317-0.115c-0.11-0.039-0.222-0.08-0.332-0.122
			C46.38,42.209,45.646,41.88,44.968,41.516z M38.429,39.108c1.559,0,3.073,0.365,4.439,1.037c-1.63-1.296-2.836-2.898-3.648-4.844
			c-0.271-0.647-0.599-1.301-0.978-1.951c-1.292-2.205-2.973-4.321-5.144-6.464c-4.59-4.536-10.311-8.562-17.495-12.312
			c-0.034-0.019-0.071-0.034-0.115-0.051c0.089,0.366,0.175,0.723,0.262,1.08c0.251,1.044,0.488,2.03,0.772,3.015
			c1.741,6.024,4.015,10.589,7.154,14.367c2.971,3.575,6.375,5.81,10.412,6.826c0.248,0.063,0.504,0.067,0.65,0.01
			C35.932,39.35,37.174,39.108,38.429,39.108z M49.591,44.604l-0.419-0.37l0.033-0.128c0.211-0.789,0.415-1.601,0.617-2.378
			c0.44-1.712,0.895-3.48,1.415-5.202c2.548-8.34,6.042-15.25,10.687-21.121c3.948-4.989,8.438-8.708,13.731-11.374
			c0.287-0.145,0.581-0.275,0.979-0.312l0.458-0.038l-0.239,0.375c-0.045,0.066-0.086,0.134-0.129,0.201
			c-0.095,0.148-0.186,0.295-0.286,0.44c-3.512,5.131-5.499,9.369-6.445,13.741c-0.452,2.066-0.599,4.23-0.682,6.073
			c-0.222,4.973-1.439,8.762-3.817,11.923c-2.597,3.443-6.297,5.78-11.332,7.149c-1.009,0.274-2.049,0.492-3.055,0.702
			c-0.466,0.094-0.932,0.188-1.396,0.293L49.591,44.604z M49.683,44.089l0.041,0.037c0.427-0.093,0.854-0.181,1.283-0.271
			c0.999-0.206,2.031-0.419,3.027-0.692c4.93-1.34,8.553-3.622,11.085-6.981c2.327-3.092,3.513-6.804,3.733-11.686
			c0.084-1.86,0.232-4.046,0.685-6.142c0.962-4.431,2.971-8.716,6.516-13.894c0.04-0.06,0.078-0.115,0.114-0.176
			c-0.102,0.043-0.198,0.089-0.301,0.14c-5.232,2.633-9.675,6.314-13.58,11.25c-4.61,5.825-8.08,12.688-10.607,20.977
			c-0.521,1.713-0.975,3.479-1.41,5.187C50.075,42.576,49.88,43.335,49.683,44.089z M48.626,41.141l-0.216-0.045
			c-0.061-0.011-0.118-0.021-0.171-0.032c-0.122-0.02-0.253-0.041-0.373-0.087c-2.772-1.004-4.727-2.425-5.977-4.355
			c-1.645-2.533-2.29-5.374-1.91-8.438c0.768-6.229,3.86-11.434,9.46-15.918c4.383-3.511,9.867-6.08,16.77-7.852
			c1.633-0.419,3.316-0.741,4.947-1.051c0.68-0.13,1.383-0.265,2.073-0.405c0.166-0.034,0.329-0.038,0.495-0.041
			c0.065,0,0.134-0.003,0.2-0.006l0.907-0.054l-0.771,0.458c-3.029,1.807-5.581,3.658-7.807,5.659
			c-5.234,4.706-9.453,10.677-12.888,18.252c-1.795,3.959-3.249,8.15-4.443,12.812c-0.047,0.193-0.1,0.385-0.159,0.595
			c-0.028,0.094-0.056,0.195-0.086,0.304L48.626,41.141z M72.968,3.46c-0.578,0.113-1.155,0.226-1.721,0.333
			c-1.623,0.31-3.302,0.631-4.923,1.044c-6.832,1.755-12.258,4.293-16.591,7.765c-5.503,4.407-8.545,9.521-9.297,15.63
			c-0.366,2.963,0.257,5.707,1.843,8.153c1.195,1.844,3.075,3.212,5.745,4.174c0.078,0.027,0.167,0.047,0.268,0.065
			c0.012-0.039,0.024-0.08,0.032-0.113c0.058-0.203,0.11-0.39,0.159-0.58c1.199-4.684,2.657-8.899,4.464-12.884
			c3.465-7.633,7.715-13.652,12.997-18.399C67.98,6.823,70.282,5.119,72.968,3.46z M38.568,30.613l-0.376-0.481
			C32.51,22.781,24.945,17.898,18.987,14.47l-0.164-0.097l0.231-0.582l0.198,0.048c0.838,0.208,1.698,0.41,2.525,0.604
			c1.853,0.436,3.769,0.885,5.626,1.426c4.838,1.412,8.71,3.298,11.836,5.769c0.618,0.487,0.903,0.944,0.542,1.829
			c-0.752,1.836-1.135,3.836-1.136,5.938c0,0.094-0.007,0.183-0.019,0.319c-0.005,0.077-0.013,0.17-0.02,0.288L38.568,30.613z
			 M19.814,14.431c5.763,3.357,12.878,8.049,18.373,14.958c0.003-2.151,0.397-4.199,1.167-6.083c0.268-0.652,0.1-0.924-0.406-1.326
			c-3.12-2.465-6.832-4.272-11.677-5.686c-1.846-0.538-3.754-0.988-5.601-1.42C21.06,14.73,20.436,14.583,19.814,14.431z"/>
	</g>
</g>
</svg>
