<?xml version="1.0" encoding="utf-8"?>
<!-- Generator: Adobe Illustrator 16.0.0, SVG Export Plug-In . SVG Version: 6.00 Build 0)  -->
<!DOCTYPE svg PUBLIC "-//W3C//DTD SVG 1.1//EN" "http://www.w3.org/Graphics/SVG/1.1/DTD/svg11.dtd">
<svg version="1.1" id="Layer_1" xmlns="http://www.w3.org/2000/svg" xmlns:xlink="http://www.w3.org/1999/xlink" x="0px" y="0px"
	 width="87px" height="67px" viewBox="0 0 87 67" enable-background="new 0 0 87 67" xml:space="preserve">
<g>
	<path fill="#010101" d="M45.968,36.706c-1.889-0.487-3.688-0.997-5.514-1.414c-2.306-0.52-4.307-1.439-5.528-3.488
		c-4.311,0.838-8.925,4.142-8.113,9.809c0.206,1.444,0.782,2.848,1.258,4.246c0.188,0.543,0.204,0.994-0.056,1.501
		c-1.071,2.073-2.106,4.163-3.192,6.23c-0.253,0.477-0.233,0.868-0.012,1.341c1.191,2.547,2.383,5.092,3.505,7.665
		c0.294,0.681,0.341,1.457,0.514,2.262c0.507,0,1.13,0,1.768,0c-0.805-2.611-1.599-5.188-2.394-7.768
		c-0.199-0.638-0.408-1.276-0.587-1.921c-0.211-0.747,0.023-1.271,0.773-1.449c2.876-0.697,4.465-2.706,5.644-5.11
		c0.337-0.688,0.748-1.095,1.542-1.267c1.807-0.395,3.596-0.879,5.396-1.324c0.167-0.039,0.336-0.072,0.511-0.089
		c0.668-0.062,1.161,0.255,1.291,0.816c0.122,0.537-0.206,1.06-0.867,1.234c-1.504,0.392-3.012,0.782-4.538,1.098
		c-0.885,0.183-1.431,0.584-1.855,1.394c-1.189,2.26-2.972,3.976-5.502,4.994c0.477,1.556,0.902,3.094,1.417,4.601
		c0.612,1.789,1.292,3.555,1.967,5.319c0.369,0.968-0.044,1.627-1.109,1.638c-1.539,0.017-3.077,0.017-4.612,0.006
		c-0.986-0.01-1.479-0.461-1.302-1.394c0.25-1.305-0.122-2.428-0.676-3.576c-1.106-2.296-2.129-4.63-3.216-6.932
		c-0.299-0.637-0.305-1.189,0.032-1.829c1.08-2.04,2.125-4.102,3.134-6.176c0.154-0.318,0.173-0.802,0.041-1.133
		c-0.794-1.958-1.257-3.968-1.14-6.08c0.028-0.452-0.121-0.759-0.54-0.902c-0.693-0.229-1.386-0.547-2.097-0.603
		c-0.835-0.062-1.389,0.533-1.412,1.354c-0.018,0.496,0.087,0.995,0.172,1.49c0.846,4.911-2.247,8.598-7.403,8.814
		c-1.959,0.083-3.841-0.275-5.669-0.959c-0.608-0.229-1.062-0.564-0.982-1.255c0.078-0.663,0.608-0.816,1.204-0.971
		c1.044-0.264,2.125-0.502,3.078-0.973c1.595-0.777,2.107-2.14,1.605-3.811c-0.278-0.938-0.745-1.838-0.904-2.792
		c-0.84-4.973,3.397-9.379,8.616-9.038c2.467,0.161,4.568,1.178,6.537,2.518c0.224,0.152,0.442,0.299,0.741,0.503
		c1.823-1.75,4.052-2.844,6.519-3.578c-0.137-0.708-0.28-1.357-0.387-2.012c-0.335-2.139-0.146-4.246,0.521-6.304
		c0.651-2.028,1.314-4.055,2.031-6.06c0.899-2.512,2.481-4.564,4.748-6.08c0.354-0.234,0.958-0.356,1.363-0.241
		c0.786,0.227,0.857,1.294,0.1,1.793c-2.462,1.625-3.847,3.917-4.619,6.633c-0.649,2.273-1.476,4.508-1.979,6.811
		c-0.472,2.151,0.009,4.285,0.935,6.292c0.534,1.15,1.47,1.908,2.742,2.244c2.528,0.669,5.064,1.325,7.596,1.985
		c1.311,0.345,1.524,0.709,1.189,1.955c-0.743,2.747-1.477,5.496-2.216,8.244c-0.025,0.097-0.062,0.183-0.084,0.275
		c-0.122,0.641,0.13,1.126,0.704,1.228c0.615,0.11,0.965-0.212,1.134-0.771c0.556-1.832,1.129-3.659,1.693-5.489
		c0.683-2.219,1.359-4.439,2.036-6.658c0.302-1,0.176-1.251-0.818-1.656c-2.713-1.109-5.428-2.216-8.137-3.324
		c-0.185-0.075-0.375-0.138-0.55-0.226c-0.612-0.305-0.854-0.891-0.599-1.436c0.233-0.499,0.848-0.738,1.451-0.509
		c1.128,0.433,2.24,0.9,3.358,1.353c1.757,0.714,3.513,1.432,5.267,2.146c2.122,0.862,2.778,2.232,2.119,4.373
		c-1.226,3.977-2.437,7.963-3.671,11.939c-0.37,1.199-1.129,2.044-2.474,2.313c-1.246,0.251-2.25-0.141-3.052-1.043
		c-0.741-0.831-0.837-1.814-0.57-2.838C44.531,42.045,45.235,39.438,45.968,36.706z M11.958,47.973c0.554,0,0.999,0.023,1.438-0.006
		c2.678-0.161,4.703-1.669,5.094-4.006c0.17-1.009,0.025-2.095-0.144-3.121c-0.466-2.808,1.422-4.827,4.347-4.49
		c0.79,0.091,1.553,0.408,2.365,0.636c0.313-0.632,0.646-1.313,0.995-2.02c-1.552-1.23-3.23-2.169-5.209-2.495
		c-1.585-0.262-3.084-0.04-4.478,0.839c-2.116,1.329-3.405,4.473-2.238,6.922c1.426,3.004,0.962,5.678-1.995,7.521
		C12.097,47.771,12.078,47.819,11.958,47.973z"/>
	<path fill="#010101" d="M62.862,64.88c0.345,0,0.834,0,1.288,0c-0.937-2.742-1.104-5.62-1.818-8.378
		c-0.389-1.521-0.994-2.994-1.56-4.47c-0.918-2.391-1.866-4.776-2.845-7.148c-0.292-0.715-0.161-1.246,0.456-1.701
		c0.114-0.087,0.249-0.172,0.328-0.287c0.856-1.232,2.045-1.342,3.45-1.096c1.63,0.281,3.291,0.407,4.94,0.583
		c0.655,0.072,1.075,0.368,1.332,0.973c0.766,1.813,1.577,3.606,2.367,5.41c0.454,1.033,0.346,1.331-0.644,1.95
		c-0.33,0.206-0.658,0.415-1.078,0.68c0.401,0.48,0.762,0.911,1.183,1.416c0.761-0.623,1.465-1.18,2.135-1.775
		c0.122-0.114,0.18-0.39,0.144-0.566c-0.559-2.91-1.12-5.819-1.729-8.718c-0.056-0.266-0.408-0.582-0.694-0.682
		c-2.168-0.744-4.354-1.438-6.539-2.146c-1.328-0.427-1.574-0.793-1.485-2.159c0.097-1.504,0.514-2.923,1.322-4.209
		c0.622-0.997,1.34-1.943,2.045-2.949c-0.409-0.448-0.921-0.905-1.304-1.445c-0.372-0.524-0.68-1.115-0.894-1.713
		c-0.23-0.648,0.115-1.19,0.719-1.373c0.542-0.165,1.093,0.11,1.338,0.721c0.472,1.163,1.224,2.063,2.414,2.601
		c0.175,0.078,0.351,0.2,0.464,0.349c1.065,1.436,2.19,2.845,2.617,4.614c0.111,0.458,0.375,0.651,0.814,0.674
		c0.342,0.021,0.696,0.033,1.041-0.012c0.931-0.122,1.158-0.344,1.137-1.263c-0.025-0.978-0.057-1.964-0.219-2.923
		c-0.168-0.977-0.091-1.901,0.487-2.683c1.306-1.759,1.282-3.606,0.531-5.515c-0.293-0.741-0.185-1.324,0.346-1.907
		c0.405-0.446,0.746-0.947,1.172-1.492c-1.075-0.749-2.245-1.156-3.465-1.435c-3.212-0.731-6.186,0.018-9.053,1.377
		c-1.979,0.935-3.723,2.188-5.34,3.614c-0.198,0.179-0.389,0.367-0.593,0.544c-0.582,0.502-1.281,0.52-1.714,0.052
		c-0.444-0.479-0.422-1.078,0.185-1.573c1.323-1.081,2.624-2.196,4.049-3.144c2.97-1.979,6.232-3.25,9.91-3.239
		c2.982,0.008,5.703,0.888,8.147,2.529c0.71,0.477,0.809,1.04,0.306,1.717c-0.563,0.757-1.432,1.424-1.654,2.259
		c-0.214,0.794,0.261,1.75,0.392,2.639c0.193,1.323-0.016,2.608-0.801,3.707c-0.736,1.029-0.76,2.068-0.598,3.252
		c0.142,1.07,0.078,2.191-0.069,3.271c-0.159,1.129-0.877,1.959-2.112,2.105c-1.013,0.123-2.07,0.185-3.069,0.046
		c-1.034-0.14-1.669-0.887-1.897-1.889c-0.248-1.096-0.795-2.037-1.561-3.008c-1.41,1.629-2.609,3.251-2.837,5.377
		c-0.042,0.396,0.124,0.533,0.491,0.649c2.233,0.706,4.452,1.459,6.693,2.147c0.831,0.255,1.237,0.696,1.393,1.546
		c0.587,3.218,1.234,6.428,1.896,9.634c0.152,0.729,0.043,1.343-0.53,1.82c-1.026,0.859-2.058,1.728-3.143,2.515
		c-0.807,0.581-1.429,0.538-2.122-0.182c-0.87-0.906-1.654-1.899-2.415-2.896c-0.397-0.519-0.232-1.048,0.287-1.453
		c0.057-0.043,0.121-0.081,0.185-0.123c1.476-0.991,1.476-0.992,0.771-2.612c-0.367-0.836-0.705-1.684-1.128-2.497
		c-0.126-0.249-0.457-0.513-0.73-0.555c-1.519-0.213-3.047-0.389-4.573-0.524c-0.962-0.09-1.329,0.412-0.989,1.267
		c1.158,2.921,2.439,5.803,3.442,8.771c0.673,1.982,0.966,4.081,1.409,6.128c0.194,0.889,0.222,1.826,0.536,2.667
		c0.319,0.859,0.946,1.608,1.349,2.444c0.181,0.372,0.286,0.878,0.174,1.252c-0.08,0.259-0.585,0.552-0.908,0.563
		c-1.659,0.053-3.322,0.034-4.986,0.014c-0.607-0.004-1.06-0.373-1.009-0.93c0.226-2.388-0.928-4.456-1.526-6.655
		c-0.596-2.181-1.71-4.098-2.986-5.962c-1.649-2.412-3.23-4.867-4.817-7.321c-0.199-0.304-0.395-0.745-0.304-1.048
		c0.094-0.325,0.502-0.764,0.806-0.788c0.381-0.03,0.953,0.2,1.174,0.501c0.994,1.368,1.894,2.802,2.82,4.212
		c0.854,1.29,1.612,2.65,2.565,3.863c1.864,2.366,2.579,5.183,3.509,7.917C62.114,62.107,62.446,63.441,62.862,64.88z"/>
	<path fill="#010101" d="M42.825,64.866c0.731,0,1.441,0,2.383,0c-0.322-0.511-0.524-0.953-0.838-1.303
		c-2.141-2.389-4.299-4.76-6.455-7.133c-0.938-1.036-0.871-1.512,0.309-2.299c1.745-1.157,2.909-2.779,3.875-4.552
		c0.118-0.212,0.208-0.435,0.336-0.641c0.356-0.597,0.932-0.793,1.502-0.525c0.545,0.258,0.759,0.865,0.462,1.474
		c-0.949,1.938-2.164,3.698-3.813,5.165c-0.158,0.14-0.315,0.287-0.518,0.475c0.197,0.23,0.36,0.433,0.537,0.625
		c1.938,2.143,3.885,4.277,5.819,6.427c0.917,1.018,0.989,2.311,1.121,3.548c0.063,0.527-0.396,0.879-0.965,0.886
		c-1.762,0.021-3.525,0.027-5.282-0.003c-0.64-0.015-0.99-0.421-0.977-1.039c0.007-0.356,0.041-0.729,0.17-1.058
		c0.27-0.697-0.023-1.137-0.537-1.616c-2.048-1.91-4.07-3.849-6.071-5.806c-0.27-0.262-0.52-0.691-0.511-1.036
		c0.007-0.303,0.346-0.78,0.622-0.842c0.387-0.089,0.972,0.006,1.255,0.257c1.195,1.038,2.309,2.163,3.458,3.257
		c1.158,1.11,2.298,2.244,3.494,3.323c0.626,0.563,0.942,1.146,0.633,1.961C42.783,64.535,42.825,64.688,42.825,64.866z"/>
	<path fill="#010101" d="M56.145,29.871c-0.643-0.165-1.087-0.232-1.492-0.39c-2.961-1.155-5.908-2.347-8.872-3.486
		c-1.169-0.45-2.008-1.17-2.542-2.271c-0.537-1.1-1.14-2.174-1.699-3.266c-0.384-0.751-0.229-1.356,0.412-1.655
		c0.597-0.282,1.165-0.04,1.552,0.688c0.622,1.167,1.195,2.363,1.862,3.507c0.207,0.364,0.593,0.723,0.987,0.882
		c3.028,1.239,6.086,2.424,9.126,3.634c0.513,0.202,1.001,0.267,1.273-0.284c0.296-0.591-0.094-0.922-0.603-1.183
		c-1.945-0.998-3.865-2.05-5.838-2.999c-1.494-0.717-2.4-1.748-2.627-3.377c-0.23-1.656-0.578-3.292-0.866-4.939
		c-0.124-0.681,0.208-1.208,0.793-1.332c0.656-0.139,1.194,0.19,1.337,0.91c0.356,1.779,0.688,3.564,0.984,5.355
		c0.1,0.608,0.402,0.974,0.956,1.254c2.128,1.074,4.243,2.17,6.354,3.276c2.104,1.105,2.469,3.553,0.682,4.911
		C57.396,29.503,56.662,29.655,56.145,29.871z"/>
	<path fill="#010101" d="M55.204,6.672c-0.048,3.339-2.799,5.917-6.265,5.86c-3.352-0.06-6.025-2.751-5.968-6.002
		c0.058-3.243,2.816-5.824,6.189-5.789C52.525,0.776,55.245,3.447,55.204,6.672z M52.996,6.685c0.019-2.147-1.638-3.791-3.842-3.817
		c-2.223-0.026-3.964,1.587-3.978,3.686c-0.016,2.194,1.644,3.843,3.88,3.854C51.278,10.414,52.979,8.806,52.996,6.685z"/>
	<path fill="#010101" d="M72.524,24.931c-0.122,0.157-0.294,0.579-0.594,0.698c-0.329,0.13-0.856,0.102-1.151-0.079
		c-0.421-0.255-0.808-0.668-1.027-1.099c-0.154-0.304-0.151-0.842,0.031-1.106c0.19-0.267,0.694-0.447,1.06-0.449
		C71.426,22.889,72.514,24.164,72.524,24.931z"/>
</g>
</svg>
