<?xml version="1.0" encoding="utf-8"?>
<!-- Generator: Adobe Illustrator 16.0.0, SVG Export Plug-In . SVG Version: 6.00 Build 0)  -->
<!DOCTYPE svg PUBLIC "-//W3C//DTD SVG 1.1//EN" "http://www.w3.org/Graphics/SVG/1.1/DTD/svg11.dtd">
<svg version="1.1" id="Layer_1" xmlns="http://www.w3.org/2000/svg" xmlns:xlink="http://www.w3.org/1999/xlink" x="0px" y="0px"
	 width="87px" height="67px" viewBox="0 0 87 67" enable-background="new 0 0 87 67" xml:space="preserve">
<g>
	<path fill="#010101" d="M34.33,56.056c-8.314,0-16.628,0.004-24.944,0c-2.678,0-4.259-1.572-4.271-4.226
		c-0.004-0.711-0.004-1.419,0-2.13c0.012-2.43,1.404-3.984,3.821-4.114c4.549-0.247,9.104-0.434,13.654-0.644
		c8.838-0.403,17.674-0.803,26.509-1.205c2.988-0.131,5.969-0.29,8.957-0.391c4.198-0.143,7.193,1.724,9.018,5.496
		c0.645,1.331,1.278,2.663,1.962,3.975c0.715,1.378,1.76,2.451,3.169,3.124c1.919,0.913,3.85,1.815,5.795,2.657
		c2.214,0.948,3.182,3.03,2.342,5.201c-1.008,2.628-2.951,3.66-5.34,2.78c-2.16-0.792-4.302-1.645-6.443-2.497
		c-2.246-0.897-4.104-2.32-5.549-4.278c-0.422-0.573-0.979-1.07-1.278-1.696c-0.865-1.795-2.242-2.129-4.141-2.104
		C49.836,56.127,42.084,56.056,34.33,56.056z M7.648,50.774c0,0.238,0,0.475,0,0.711c0.005,1.623,0.36,1.984,1.972,1.984
		c2.84,0,5.682-0.002,8.523-0.002c14.26,0,28.522,0.002,42.785-0.008c0.497,0,0.796,0.137,1.08,0.566
		c0.838,1.252,1.727,2.473,2.62,3.688c1.228,1.667,2.649,3.105,4.63,3.878c2.144,0.841,4.283,1.702,6.433,2.518
		c1.193,0.45,1.733,0.146,2.224-1.132c0.396-1.02,0.095-1.57-1.005-2.061c-1.945-0.857-3.881-1.734-5.8-2.653
		c-1.987-0.952-3.44-2.484-4.454-4.429c-0.751-1.438-1.398-2.935-2.151-4.373c-1.279-2.434-3.337-3.628-6.073-3.551
		c-2.776,0.08-5.554,0.25-8.334,0.376c-13.295,0.597-26.597,1.2-39.899,1.794C7.727,48.192,7.655,48.265,7.648,50.774z"/>
	<path fill="#010101" d="M19.467,41.348c0.957-2.884,1.879-5.657,2.795-8.426c1.233-3.702,2.469-7.403,3.702-11.102
		c1.001-3.003,3.298-4.695,6.456-4.721c1.331-0.012,2.667-0.037,3.99,0.067c1.972,0.152,3.489,1.153,4.668,2.731
		c1.292,1.73,2.663,3.399,3.95,5.135c2.196,2.973,5.102,5.063,8.307,6.805c0.749,0.409,1.507,0.813,2.243,1.252
		c1.694,1.034,2.325,3.047,1.556,4.876c-0.972,2.299-2.37,3.267-4.432,3.053c-0.292-0.03-0.594-0.083-0.863-0.2
		c-2.659-1.131-5.365-2.185-7.953-3.472c-1.353-0.671-2.524-1.718-3.727-2.663c-0.74-0.583-1.375-1.284-2.115-1.985
		c-0.525,1.559-1.053,3.112-1.576,4.671c-0.524,1.563-1.044,3.126-1.596,4.776c-0.82-0.27-1.564-0.517-2.421-0.799
		c1.521-4.58,3.03-9.103,4.582-13.771c0.547,0.607,1.015,1.127,1.481,1.647c0.255,0.286,0.533,0.558,0.76,0.864
		c2.923,3.882,7.058,5.914,11.462,7.543c0.638,0.232,1.258,0.513,1.898,0.739c0.938,0.331,1.422,0.056,1.975-1.078
		c0.474-0.976,0.368-1.562-0.455-2.055c-1.144-0.679-2.306-1.331-3.468-1.972c-3.276-1.803-5.927-4.292-8.167-7.258
		c-1.16-1.534-2.349-3.045-3.507-4.583c-0.854-1.142-1.951-1.77-3.4-1.751c-1.063,0.016-2.128-0.002-3.195,0.005
		c-2.007,0.011-3.35,0.954-3.997,2.883c-1.619,4.815-3.216,9.639-4.824,14.461c-0.557,1.674-1.124,3.352-1.722,5.114
		C21.078,41.876,20.331,41.635,19.467,41.348z"/>
	<path fill="#010101" d="M58.26,58.726c0,0.838,0,1.62,0,2.468c-17.703,0-35.371,0-53.1,0c0-0.829,0-1.613,0-2.468
		C22.868,58.726,40.534,58.726,58.26,58.726z"/>
	<path fill="#010101" d="M27.19,8.005c-0.004-4.292,3.495-7.804,7.779-7.794c4.242,0.01,7.733,3.481,7.777,7.732
		c0.04,4.3-3.519,7.855-7.845,7.838C30.66,15.762,27.19,12.264,27.19,8.005z M40.159,7.943c-0.019-2.872-2.342-5.153-5.23-5.143
		c-2.878,0.009-5.186,2.335-5.178,5.205c0.004,2.907,2.366,5.223,5.281,5.189C37.907,13.157,40.179,10.83,40.159,7.943z"/>
	<path fill="#010101" d="M76.54,53.437c-4.271,0.004-7.774-3.458-7.792-7.689c-0.01-4.356,3.495-7.892,7.808-7.871
		c4.24,0.021,7.733,3.515,7.757,7.754C84.333,49.906,80.821,53.433,76.54,53.437z M81.723,45.684
		c0.004-2.882-2.292-5.202-5.16-5.218c-2.918-0.015-5.256,2.319-5.239,5.229c0.019,2.877,2.333,5.18,5.208,5.177
		C79.406,50.867,81.721,48.552,81.723,45.684z"/>
</g>
</svg>
