<?xml version="1.0" encoding="utf-8"?>
<!-- Generator: Adobe Illustrator 16.0.0, SVG Export Plug-In . SVG Version: 6.00 Build 0)  -->
<!DOCTYPE svg PUBLIC "-//W3C//DTD SVG 1.1//EN" "http://www.w3.org/Graphics/SVG/1.1/DTD/svg11.dtd">
<svg version="1.1" id="Layer_1" xmlns="http://www.w3.org/2000/svg" xmlns:xlink="http://www.w3.org/1999/xlink" x="0px" y="0px"
	 width="87px" height="67px" viewBox="0 0 87 67" enable-background="new 0 0 87 67" xml:space="preserve">
<g>
	<path fill="#010101" d="M6.8,64.449c6.255,0.007,12.509,0.015,18.761,0.022c2.025,0,4.049,0,6.165,0c0-3.564,0-7.083,0-10.642
		c0.82,0,1.546,0,2.337,0c0,3.539,0,7.037,0,10.591c0.814,0,1.568,0,2.377,0c0-4.306,0-8.619,0-13.046c-0.246,0-0.504,0-0.762,0
		c-7.763,0-15.526,0-23.291,0c-0.271,0-0.583,0.082-0.806-0.023c-0.394-0.184-0.896-0.409-1.055-0.754
		c-0.142-0.307,0.09-0.809,0.219-1.204c0.055-0.167,0.265-0.286,0.403-0.427c2.519-2.519,5.036-5.031,7.549-7.553
		c0.189-0.188,0.366-0.384,0.633-0.666c-0.32-0.025-0.528-0.055-0.733-0.055c-1.854-0.003-3.71-0.011-5.564,0
		c-0.621,0.004-1.131-0.156-1.377-0.777c-0.24-0.606,0.08-1.036,0.486-1.439c2.955-2.953,5.907-5.909,8.866-8.858
		c0.208-0.209,0.465-0.367,0.699-0.546c-0.035-0.06-0.072-0.123-0.107-0.187c-0.179-0.022-0.358-0.062-0.536-0.062
		c-1.483-0.005-2.966-0.01-4.449,0.002c-0.617,0.005-1.128-0.143-1.39-0.762c-0.258-0.61,0.055-1.037,0.461-1.441
		c2.57-2.568,5.137-5.142,7.715-7.701c0.205-0.205,0.49-0.326,0.741-0.485c-0.062-0.1-0.124-0.197-0.186-0.297
		c-1.195,0-2.388,0.002-3.585-0.003c-0.271,0-0.553,0.012-0.808-0.057c-0.802-0.216-1.115-1.083-0.643-1.768
		c0.15-0.221,0.362-0.403,0.555-0.595c4.842-4.844,9.683-9.688,14.526-14.53c1.095-1.095,1.521-1.061,2.616,0.04
		c4.693,4.713,9.4,9.41,14.104,14.113c0.243,0.244,0.493,0.487,0.731,0.736c0.365,0.384,0.558,0.817,0.316,1.345
		c-0.232,0.511-0.646,0.719-1.19,0.719c-1.309-0.003-2.617-0.001-4.134-0.001c0.294,0.314,0.476,0.521,0.668,0.715
		c2.551,2.552,5.105,5.104,7.659,7.655c0.051,0.052,0.103,0.104,0.155,0.159c0.382,0.391,0.656,0.815,0.417,1.389
		c-0.24,0.586-0.706,0.772-1.306,0.769c-1.434-0.01-2.867-0.001-4.301-0.001c-0.242,0.001-0.482,0-0.91,0
		c0.32,0.342,0.521,0.57,0.735,0.787c2.954,2.956,5.908,5.908,8.86,8.865c0.656,0.655,0.798,1.27,0.298,1.737
		c-0.289,0.272-0.774,0.447-1.175,0.457c-2.051,0.046-4.1,0.021-6.335,0.021c0.268,0.296,0.428,0.488,0.606,0.663
		c2.547,2.555,5.1,5.106,7.653,7.659c0.446,0.444,0.912,0.876,0.623,1.6c-0.301,0.745-0.937,0.789-1.606,0.763
		c-0.191-0.01-0.388,0.016-0.626,0.029c0,4.34,0,8.65,0,13.055c8.27,0,16.535,0,24.899,0c0,0.848,0,1.607,0,2.369
		c-25.32,0-50.643,0-75.959,0C6.8,66.032,6.8,65.243,6.8,64.449z M19.171,26.494c1.837,0,3.489,0.008,5.144-0.005
		c0.624-0.005,1.124,0.164,1.364,0.79c0.235,0.608-0.076,1.05-0.476,1.448c-3.01,3.001-6.023,5.999-9.034,9.004
		c-0.163,0.162-0.302,0.347-0.546,0.63c2.199,0,4.244,0.012,6.289-0.004c0.621-0.004,1.13,0.142,1.384,0.764
		c0.264,0.638-0.07,1.09-0.491,1.51c-2.627,2.616-5.255,5.233-7.88,7.854c-0.14,0.139-0.256,0.307-0.414,0.496
		c13.896,0,27.692,0,41.488,0c0.046-0.067,0.09-0.131,0.138-0.196c-0.236-0.179-0.5-0.326-0.707-0.532
		c-2.595-2.584-5.179-5.172-7.765-7.758c-0.395-0.395-0.635-0.825-0.387-1.395c0.24-0.548,0.68-0.738,1.251-0.738
		c1.581,0.007,3.166,0.003,4.748,0.003c0.509,0,1.015,0,1.709,0c-0.33-0.348-0.52-0.562-0.721-0.763
		c-2.971-2.973-5.943-5.947-8.915-8.916c-0.402-0.404-0.715-0.837-0.451-1.445c0.263-0.617,0.773-0.761,1.391-0.752
		c1.359,0.017,2.721,0.005,4.079,0.007c0.302,0,0.603,0,0.903,0c0.035-0.081,0.067-0.165,0.101-0.246
		c-0.251-0.201-0.521-0.38-0.748-0.604c-2.523-2.513-5.037-5.034-7.556-7.546c-0.437-0.437-0.825-0.875-0.532-1.553
		c0.284-0.661,0.846-0.744,1.477-0.737c1.222,0.017,2.445,0.004,3.555,0.004c-4.136-4.14-8.274-8.287-12.275-12.295
		c-4.057,4.055-8.186,8.181-12.303,12.293c1.158,0,2.411,0.01,3.663-0.005c0.619-0.007,1.129,0.138,1.388,0.758
		c0.265,0.637-0.067,1.09-0.486,1.508c-2.626,2.616-5.255,5.236-7.879,7.853C19.541,26.06,19.42,26.212,19.171,26.494z
		 M38.869,51.401c0,4.393,0,8.705,0,13.028c3.966,0,7.88,0,11.885,0c0-3.56,0-7.072,0-10.586c0.813,0,1.541,0,2.326,0
		c0,3.555,0,7.053,0,10.564c0.832,0,1.604,0,2.344,0c0-4.376,0-8.685,0-13.007C49.886,51.401,44.406,51.401,38.869,51.401z"/>
	<path fill="#010101" d="M75.171,49.062c-0.311-0.337-0.471-0.514-0.638-0.683c-2.568-2.574-5.137-5.145-7.707-7.715
		c-0.433-0.431-0.845-0.865-0.567-1.548c0.284-0.707,0.883-0.764,1.534-0.756c1.997,0.012,3.992,0.003,6.162,0.003
		c-0.276-0.304-0.444-0.5-0.622-0.678c-2.952-2.956-5.912-5.908-8.854-8.874c-0.284-0.287-0.563-0.659-0.655-1.036
		c-0.165-0.681,0.451-1.268,1.271-1.275c1.702-0.013,3.408-0.003,5.306-0.003c-0.293-0.317-0.471-0.527-0.667-0.721
		c-2.551-2.555-5.102-5.107-7.653-7.658c-0.432-0.429-0.854-0.861-0.572-1.545c0.287-0.699,0.878-0.776,1.533-0.768
		c1.204,0.022,2.411,0.007,3.53,0.007c-4.117-4.11-8.248-8.232-12.41-12.389c-1.501,1.548-3.141,3.242-4.82,4.978
		c-0.665-0.717-1.163-1.251-1.733-1.87c0.593-0.579,1.247-1.208,1.891-1.85c1.263-1.254,2.512-2.523,3.779-3.774
		c0.712-0.706,1.345-0.688,2.051,0.02c4.904,4.918,9.811,9.837,14.716,14.754c0.142,0.139,0.347,0.256,0.407,0.425
		c0.145,0.413,0.352,0.87,0.289,1.274c-0.085,0.534-0.587,0.758-1.131,0.76c-1.087,0.007-2.177,0.003-3.265,0.005
		c-0.238,0-0.479,0-0.893,0c0.296,0.324,0.479,0.538,0.677,0.737c2.586,2.589,5.175,5.173,7.758,7.764
		c0.637,0.64,0.749,1.278,0.227,1.744c-0.279,0.249-0.737,0.405-1.123,0.417c-1.433,0.047-2.866,0.016-4.301,0.018
		c-0.235,0-0.473,0.022-0.845,0.038c0.284,0.305,0.471,0.517,0.672,0.717c2.937,2.938,5.874,5.875,8.812,8.809
		c0.434,0.434,0.847,0.864,0.563,1.547c-0.294,0.7-0.886,0.767-1.536,0.761c-1.755-0.012-3.513-0.004-5.268-0.004
		c-0.239,0-0.476,0.023-0.856,0.036c0.272,0.301,0.459,0.514,0.658,0.713c2.531,2.537,5.065,5.073,7.604,7.604
		c0.428,0.43,0.865,0.848,0.597,1.541c-0.288,0.746-0.912,0.794-1.589,0.794c-4.721-0.007-9.444-0.004-14.167-0.005
		c-0.218,0-0.434,0-0.688,0c0-0.796,0-1.524,0-2.313C66.771,49.062,70.865,49.062,75.171,49.062z"/>
	<path fill="#010101" d="M36.385,18.104c-0.772,0-1.479,0-2.227,0c0-0.764,0-1.489,0-2.254c0.762,0,1.486,0,2.227,0
		C36.385,16.628,36.385,17.373,36.385,18.104z"/>
	<path fill="#010101" d="M34.144,28.77c0-0.756,0-1.465,0-2.225c0.744,0,1.473,0,2.252,0c0,0.719,0,1.444,0,2.225
		C35.676,28.77,34.95,28.77,34.144,28.77z"/>
	<path fill="#010101" d="M34.153,40.63c0-0.73,0-1.442,0-2.209c0.72,0,1.446,0,2.234,0c0,0.695,0,1.42,0,2.209
		C35.692,40.63,34.966,40.63,34.153,40.63z"/>
</g>
</svg>
