<?xml version="1.0" encoding="utf-8"?>
<!-- Generator: Adobe Illustrator 16.0.0, SVG Export Plug-In . SVG Version: 6.00 Build 0)  -->
<!DOCTYPE svg PUBLIC "-//W3C//DTD SVG 1.1//EN" "http://www.w3.org/Graphics/SVG/1.1/DTD/svg11.dtd">
<svg version="1.1" id="Layer_1" xmlns="http://www.w3.org/2000/svg" xmlns:xlink="http://www.w3.org/1999/xlink" x="0px" y="0px"
	 width="87px" height="67px" viewBox="0 0 87 67" enable-background="new 0 0 87 67" xml:space="preserve">
<g>
	<path fill="#010101" d="M76.366,16.12c-1.958-8.149-9-14.512-17.322-15.692c-0.422-0.059-0.841-0.128-1.262-0.194
		c0,0,0,0.001-0.002,0.001c-0.337-0.049-0.953-0.082-1.656-0.082c-0.645,0-1.215,0.029-1.565,0.07l0,0
		c-0.849,0.125-1.7,0.231-2.539,0.406C39.476,3.263,32.211,16.314,36.612,28.331c0.466,1.269,1.121,2.469,1.707,3.738
		c0.693-0.439,1.236-0.781,1.777-1.123c-5.33-8.777-2.649-19.987,5.306-25.434c7.72-5.285,18.457-4.072,24.763,2.898
		c3.032,3.352,4.619,7.339,4.771,11.844c0.228,6.804-2.545,12.195-7.985,16.255c0.283,0.407,0.529,0.763,0.778,1.119
		c0.112,0.159,0.229,0.312,0.349,0.474c0.073-0.033,0.137-0.05,0.188-0.086c0.126-0.083,0.248-0.173,0.37-0.268
		c3.917-3.002,6.503-6.897,7.715-11.679c0.309-1.214,0.453-2.47,0.671-3.705v-2.609C76.809,18.543,76.654,17.316,76.366,16.12z"/>
	<path fill="#010101" d="M25.85,64.933c-5.215,0-10.43-0.017-15.645-0.02c0,0.695,0,1.391,0,2.087c22.273,0,44.549,0,66.82,0
		c0-0.696,0-1.392,0-2.087c-0.217,0.003-0.432,0.02-0.649,0.02C59.533,64.933,42.691,64.935,25.85,64.933z"/>
	<path fill="#010101" d="M15.31,22.067c4.259,0.042,8.521,0.053,12.778-0.002c2.581-0.035,4.814-2.247,5.052-4.84
		c0.214-2.355-1.697-4.844-4.115-5.421c-0.342-0.083-0.709-0.307-0.936-0.575c-1.109-1.306-2.862-1.97-4.235-1.441
		c-0.54,0.209-0.77,0.099-1.112-0.319c-1.173-1.434-2.654-2.28-4.566-1.83c-1.917,0.454-3.133,1.712-3.637,3.609
		c-0.11,0.418-0.302,0.591-0.69,0.731c-1.48,0.534-2.546,1.545-3.195,2.981c-0.185,0.407-0.302,0.847-0.448,1.273
		c0,0.434,0,0.871,0,1.305c0.056,0.16,0.125,0.315,0.166,0.478C10.959,20.28,13.035,22.046,15.31,22.067z M13.114,14.637
		c0.569-0.63,1.329-0.869,2.166-0.906c0.888-0.038,1.205-0.381,1.184-1.259c-0.043-1.649,0.704-2.677,2.101-2.891
		c1.524-0.234,2.699,0.576,3.144,2.17c0.272,0.984,1.11,1.285,1.807,0.542c1.032-1.102,2.785-0.721,3.265,0.695
		c0.187,0.544,0.586,0.751,1.159,0.757c2.43,0.035,3.853,2.201,2.918,4.46c-0.517,1.244-1.516,1.813-2.827,1.826
		c-2.13,0.021-4.262,0.005-6.392,0.005c-2.111-0.001-4.222,0.011-6.332-0.005c-1.328-0.009-2.377-0.694-2.799-1.861
		C12.051,16.896,12.172,15.678,13.114,14.637z"/>
	<path fill="#010101" d="M57.287,39.112c0.932-0.936,1.858-1.875,2.84-2.861c5.014,8.723,9.98,17.354,14.96,26.013
		c0.623-0.365,1.161-0.681,1.746-1.023c-0.154-0.274-0.276-0.497-0.405-0.718c-7.144-12.434-14.293-24.866-21.439-37.296
		c-0.671-1.167-1.329-2.344-1.997-3.513c-0.535-0.937-1.419-0.964-1.995-0.066c-0.079,0.127-0.154,0.259-0.234,0.39
		c-3.753,6.162-7.507,12.325-11.257,18.488c-0.994,1.629-1.979,3.262-3.004,4.953c0.593,0.36,1.139,0.695,1.727,1.055
		c1.352-2.211,2.682-4.391,4.014-6.565c0.082-0.049,0.167-0.099,0.25-0.146c0.136,0.225,0.233,0.485,0.413,0.666
		c1.312,1.334,2.635,2.655,3.963,3.973c0.723,0.717,1.243,0.686,1.903-0.104c1.282-1.533,2.558-3.076,3.84-4.612
		c0.146-0.174,0.303-0.341,0.507-0.571c0.658,0.681,1.256,1.31,1.866,1.927C55.976,40.092,56.311,40.092,57.287,39.112z
		 M54.051,35.243c-0.762-0.792-1.337-0.79-2.05,0.062c-1.408,1.683-2.813,3.369-4.246,5.086c-0.121-0.095-0.226-0.16-0.312-0.244
		c-1.232-1.228-2.462-2.461-3.691-3.688c-0.208-0.205-0.386-0.366-0.173-0.713c2.758-4.503,5.501-9.015,8.249-13.525
		c0.02-0.03,0.068-0.044,0.146-0.096c0.113,0.182,0.232,0.354,0.339,0.538c2.146,3.728,4.279,7.464,6.45,11.178
		c0.281,0.485,0.206,0.735-0.167,1.09c-0.816,0.775-1.591,1.593-2.405,2.421C55.435,36.608,54.726,35.94,54.051,35.243z"/>
	<path fill="#010101" d="M32.254,30.322c-0.866-1.213-1.53-1.203-2.335,0.068C23.563,40.435,17.204,50.477,10.846,60.52
		c-0.135,0.214-0.269,0.431-0.432,0.691c0.577,0.365,1.104,0.704,1.706,1.093c6.346-10.019,12.658-19.985,19.02-30.03
		c1.512,2.083,2.936,4.048,4.395,6.061c0.564-0.407,1.081-0.781,1.642-1.186c-0.245-0.347-0.444-0.631-0.647-0.908
		C35.104,34.271,33.668,32.303,32.254,30.322z"/>
	<path fill="#010101" d="M49.677,54.909c-0.245-0.243-0.69-0.388-1.048-0.4c-1.368-0.046-2.739-0.006-4.109-0.033
		c-0.253-0.005-0.569-0.098-0.744-0.27c-2.137-2.105-4.26-4.227-6.369-6.359c-0.856-0.868-1.288-0.895-2.162-0.022
		c-4.229,4.228-8.458,8.459-12.693,12.68c-0.164,0.164-0.41,0.25-0.567,0.342c0.599,0.643,1.039,1.111,1.59,1.698
		c4.28-4.282,8.53-8.533,12.902-12.905c0.134,0.191,0.247,0.416,0.412,0.584c1.608,1.623,3.214,3.247,4.842,4.847
		c1.811,1.778,0.997,1.426,3.55,1.47c1.044,0.016,2.201-0.258,3.095,0.109c0.893,0.373,1.526,1.379,2.264,2.116
		c1.224,1.229,2.44,2.469,3.652,3.694c0.53-0.511,0.99-0.96,1.463-1.423c-0.071-0.095-0.118-0.166-0.178-0.225
		C53.617,58.841,51.665,56.854,49.677,54.909z"/>
</g>
</svg>
